<svg width="393" height="852" viewBox="0 0 393 852" fill="none" xmlns="http://www.w3.org/2000/svg">
<rect x="49" y="220" width="298" height="559" fill="#FFE8E8" stroke="black" stroke-width="2"/>
<path d="M71.5951 69L49 220H347L327.389 69H71.5951Z" fill="#3A4366" stroke="black" stroke-width="2" stroke-linejoin="bevel"/>
<path d="M220.093 59.2323L218.851 57.7543C217.655 56.3319 217 54.5334 217 52.6752C217 49.2485 219.211 46.2132 222.472 45.162L222.735 45.0772C220.676 40.901 218.941 31.6448 228.471 28.0299C232.096 26.6548 235.325 26.7816 238.056 27.6778C245.175 30.0133 245.549 39.0778 243.029 46.1335C245.338 46.5941 247 48.6206 247 50.9746V54.0015C247 58.2158 243.955 61.8133 239.799 62.5099L232.372 63.7546C227.767 64.5264 223.097 62.8065 220.093 59.2323Z" fill="white"/>
<path d="M222.735 45.0772L222.472 45.162C219.211 46.2132 217 49.2485 217 52.6752C217 54.5334 217.655 56.3319 218.851 57.7543L220.093 59.2323C223.097 62.8065 227.767 64.5264 232.372 63.7546L239.799 62.5099C243.955 61.8133 247 58.2158 247 54.0015V50.9746C247 48.6206 245.338 46.5941 243.029 46.1335M222.735 45.0772C220.676 40.901 218.941 31.6448 228.471 28.0299C232.096 26.6548 235.325 26.7816 238.056 27.6778C245.175 30.0133 245.549 39.0778 243.029 46.1335M222.735 45.0772C226.496 43.865 230.505 43.6346 234.38 44.4078L243.029 46.1335M227.147 36.6563C228.618 38.9841 234.647 40.3533 238.618 37.4779" stroke="black" stroke-width="2" stroke-linecap="round"/>
<path d="M56.2568 143.421L60.1222 126.355C61.2741 121.269 63.7319 116.571 67.2532 112.725L86.6537 91.5327C92.2347 85.4363 100.084 81.9125 108.348 81.793L289.489 79.1751C297.259 79.0628 304.77 81.9701 310.439 87.2849L327.002 102.811C331.459 106.989 334.534 112.428 335.816 118.402L339.787 136.901L341.955 161.913C342.204 164.791 343.05 167.585 344.438 170.119L345.336 171.756C346.428 173.748 347 175.983 347 178.254V185.198C347 188.013 344.912 190.392 342.121 190.757L340.538 190.965C338.652 191.211 337.241 192.819 337.241 194.721C337.241 197.946 333.467 199.696 331.006 197.612L326.336 193.658C324.677 192.254 322.406 191.817 320.345 192.506L319.943 192.641C318.285 193.195 316.461 192.913 315.049 191.882C313.546 190.785 311.584 190.54 309.857 191.233L305.754 192.88C304.742 193.286 303.979 194.143 303.693 195.195L302.295 200.34C302.031 201.312 300.736 201.502 300.204 200.647C299.826 200.04 298.992 199.921 298.458 200.397L296.621 202.035C296.005 202.585 295.201 202.877 294.376 202.852L240.632 201.205C240.265 201.194 239.9 201.148 239.541 201.068L234.262 199.891C233.329 199.683 232.443 200.393 232.443 201.349C232.443 202.828 230.523 203.408 229.705 202.176L229.626 202.057C229.277 201.532 228.644 201.274 228.028 201.404L222.887 202.49C221.908 202.697 220.987 201.95 220.987 200.95C220.987 199.518 219.23 198.829 218.258 199.88L217.691 200.493C216.701 201.563 214.924 201.166 214.484 199.776L212.988 195.058C212.682 194.095 211.934 193.335 210.976 193.014L208.968 192.343C207.665 191.907 207.275 190.255 208.244 189.282C208.768 188.757 208.927 187.97 208.649 187.282L204.384 176.726C203.508 174.556 200.943 173.627 198.88 174.731C197.386 175.53 196.572 177.196 196.859 178.865L197.856 184.67C198.219 186.783 196.893 188.819 194.814 189.341C192.99 189.798 191.711 191.437 191.711 193.317V198.124C191.711 200.564 188.79 201.817 187.022 200.136C185.499 198.688 182.981 199.392 182.43 201.42L182.033 202.879C181.585 204.528 179.623 205.216 178.243 204.209C177.221 203.463 175.799 203.623 174.968 204.576L174.793 204.777C174.005 205.68 172.72 205.964 171.625 205.475L169.862 204.689C167.522 203.646 166.253 201.087 166.838 198.593L167.006 197.874C168.043 193.452 164.154 189.441 159.702 190.342L116.224 199.135C115.102 199.362 114.089 199.96 113.349 200.834L109.701 205.14C108.659 206.371 106.667 205.954 106.205 204.409L105.415 201.768C105.171 200.95 104.051 200.853 103.67 201.618C103.369 202.221 102.55 202.322 102.112 201.809L99.3098 198.529C98.6813 197.793 97.4986 197.974 97.1185 198.864C96.6092 200.057 94.8609 199.856 94.6347 198.579L92.5365 186.737C92.2108 184.899 90.8661 183.406 89.0714 182.892L82.4067 180.981C81.2633 180.653 80.1243 181.512 80.1243 182.701V184.163C80.1243 185.037 79.1256 185.536 78.4271 185.01C77.7287 184.484 76.73 184.983 76.73 185.857V187.001C76.73 188.317 75.2503 189.091 74.1691 188.34L72.894 187.454C71.9221 186.779 70.6059 186.898 69.7705 187.736L67.8572 189.656C66.8707 190.646 65.2967 190.733 64.2069 189.858L60.6926 187.037C60.3167 186.735 59.7586 187.003 59.7586 187.485C59.7586 187.912 59.3085 188.19 58.9265 187.998L57.0943 187.079C56.2123 186.637 55.1373 186.971 54.6594 187.834C54.0427 188.948 52.5084 189.119 51.6642 188.166L51.1405 187.575C50.4585 186.805 50.3422 185.686 50.8511 184.793L52.6459 181.641C53.1398 180.774 53.4549 179.816 53.5725 178.825L55.5157 162.446V150.048C55.5157 147.818 55.7643 145.596 56.2568 143.421Z" fill="#DCF1FF"/>
<path d="M191.711 146.693C194.399 152.37 201.046 162.02 206.137 155.208C206.362 154.907 206.582 154.625 206.798 154.361C210.89 149.347 221.051 156.502 223.533 150.525C224.601 147.951 229.049 144.025 229.049 141.239C229.049 140.777 229.049 140.563 229.049 140.733M55.5157 162.446V150.048C55.5157 147.818 55.7643 145.596 56.2568 143.421L60.1222 126.355C61.2741 121.269 63.7319 116.571 67.2532 112.725L86.6537 91.5327C92.2347 85.4363 100.084 81.9125 108.348 81.793L289.489 79.1751C297.259 79.0628 304.77 81.9701 310.439 87.2849L327.002 102.811C331.459 106.989 334.534 112.428 335.816 118.402L339.787 136.901L341.955 161.913C342.204 164.791 343.05 167.585 344.438 170.119L345.336 171.756C346.428 173.748 347 175.983 347 178.254V185.198C347 188.013 344.912 190.392 342.121 190.757L340.538 190.965C338.652 191.211 337.241 192.819 337.241 194.721C337.241 197.946 333.467 199.696 331.006 197.612L326.336 193.658C324.677 192.254 322.406 191.817 320.345 192.506L319.943 192.641C318.285 193.195 316.461 192.913 315.049 191.882C313.546 190.785 311.584 190.54 309.857 191.233L305.754 192.88C304.742 193.286 303.979 194.143 303.693 195.195L302.295 200.34C302.031 201.312 300.736 201.502 300.204 200.647C299.826 200.04 298.992 199.921 298.458 200.397L296.621 202.035C296.005 202.585 295.201 202.877 294.376 202.852L240.632 201.205C240.265 201.194 239.9 201.148 239.541 201.068L234.262 199.891C233.329 199.683 232.443 200.393 232.443 201.349C232.443 202.828 230.523 203.408 229.705 202.176L229.626 202.057C229.277 201.532 228.644 201.274 228.028 201.404L222.887 202.49C221.908 202.697 220.987 201.95 220.987 200.95C220.987 199.518 219.23 198.829 218.258 199.88L217.691 200.493C216.701 201.563 214.924 201.166 214.484 199.776L212.988 195.058C212.682 194.095 211.934 193.335 210.976 193.014L208.968 192.343C207.665 191.907 207.275 190.255 208.244 189.282C208.768 188.757 208.927 187.97 208.649 187.282L204.384 176.726C203.508 174.556 200.943 173.627 198.88 174.731C197.386 175.53 196.572 177.196 196.859 178.865L197.856 184.67C198.219 186.783 196.893 188.819 194.814 189.341C192.99 189.798 191.711 191.437 191.711 193.317V198.124C191.711 200.564 188.79 201.817 187.022 200.136C185.499 198.688 182.981 199.392 182.43 201.42L182.033 202.879C181.585 204.528 179.623 205.216 178.243 204.209C177.221 203.463 175.799 203.623 174.968 204.576L174.793 204.777C174.005 205.68 172.72 205.964 171.625 205.475L169.862 204.689C167.522 203.646 166.253 201.087 166.838 198.593L167.006 197.874C168.043 193.452 164.154 189.441 159.702 190.342L116.224 199.135C115.102 199.362 114.089 199.96 113.349 200.834L109.701 205.14C108.659 206.371 106.667 205.954 106.205 204.409L105.415 201.768C105.171 200.95 104.051 200.853 103.67 201.618C103.369 202.221 102.55 202.322 102.112 201.809L99.3098 198.529C98.6813 197.793 97.4986 197.974 97.1185 198.864C96.6092 200.057 94.8609 199.856 94.6347 198.579L92.5365 186.737C92.2108 184.899 90.8661 183.406 89.0714 182.892L82.4067 180.981C81.2633 180.653 80.1243 181.512 80.1243 182.701V184.163C80.1243 185.037 79.1256 185.536 78.4271 185.01C77.7287 184.484 76.73 184.983 76.73 185.857V187.001C76.73 188.317 75.2503 189.091 74.1691 188.34L72.894 187.454C71.9221 186.779 70.6059 186.898 69.7705 187.736L67.8572 189.656C66.8707 190.646 65.2967 190.733 64.2069 189.858L60.6926 187.037C60.3167 186.735 59.7586 187.003 59.7586 187.485C59.7586 187.912 59.3085 188.19 58.9265 187.998L57.0943 187.079C56.2123 186.637 55.1373 186.971 54.6594 187.834C54.0427 188.948 52.5084 189.119 51.6642 188.166L51.1405 187.575C50.4585 186.805 50.3422 185.686 50.8511 184.793L52.6459 181.641C53.1398 180.774 53.4549 179.816 53.5725 178.825L55.5157 162.446Z" stroke="black" stroke-width="2" stroke-linecap="round"/>
<path d="M169 207V169.233L140.786 151L113 169.233V207H169Z" fill="#EFAFAF" stroke="black" stroke-width="2"/>
<path d="M169 207V169.233L140.786 151L113 169.233V207H169Z" fill="#EFAFAF" stroke="black" stroke-width="2"/>
<path d="M106.698 176L142.146 153.154L178.875 176L184 170.077L142.146 143L102 170.077L106.698 176Z" fill="#E68383" stroke="black" stroke-width="2"/>
<path d="M238 207V169.233L265.71 151L293 169.233V207H238Z" fill="#EFAFAF" stroke="black" stroke-width="2"/>
<path d="M300.417 176L265.833 153.154L230 176L225 170.077L265.833 143L305 170.077L300.417 176Z" fill="#E68383" stroke="black" stroke-width="2"/>
<path d="M56.9914 88.4081L58.6557 91.9107C60.7972 96.4177 60.8547 101.637 58.813 106.19L57.115 109.977C56.7334 110.828 56.5361 111.75 56.5361 112.683C56.5361 116.335 59.4969 119.296 63.1493 119.296H68.1918C69.4203 119.296 70.6307 119.592 71.7199 120.161L76.1238 122.457C78.0329 123.453 80.3782 122.484 81.0268 120.43C81.6917 118.326 84.1296 117.372 86.0461 118.467L88.5196 119.88C90.1917 120.835 92.2304 120.891 93.9528 120.03L96.6382 118.688C99.5628 117.226 103.035 117.376 105.822 119.084L109.502 121.339C112.177 122.978 115.681 122.015 117.143 119.238C118.082 117.455 119.932 116.338 121.948 116.338H131.995C133.04 116.338 133.887 115.491 133.887 114.446C133.887 113.012 135.42 112.1 136.68 112.784L146.597 118.165C147.96 118.905 149.099 120 149.891 121.334L154.048 128.333C155.297 130.435 158.3 130.548 159.703 128.545C161.089 126.565 164.047 126.646 165.322 128.698L169.397 135.251C170.825 137.546 174.106 137.705 175.748 135.558C176.943 133.997 179.119 133.581 180.805 134.592L181.498 135.008C184.016 136.518 187.288 135.416 188.379 132.69L188.709 131.865C189.324 130.328 190.596 129.148 192.175 128.649L194.139 128.029C196.403 127.314 198.869 127.638 200.872 128.912L204.039 130.927C205.726 132 207.951 131.62 209.186 130.048C210.541 128.325 213.051 128.06 214.735 129.463L219.733 133.627C221.071 134.742 222.758 135.352 224.5 135.352H225.701C229.151 135.352 231.948 132.555 231.948 129.105C231.948 126.303 233.814 123.844 236.512 123.089L237.037 122.942C240.225 122.05 243.601 123.525 245.112 126.471L246.619 129.408C249.116 134.276 254.809 136.571 259.984 134.798L261.762 134.188C264.337 133.305 266.495 131.5 267.818 129.12L268.576 127.756C270.637 124.046 274.997 122.263 279.068 123.465L286.751 125.735C288.723 126.317 290.701 124.839 290.701 122.783C290.701 120.931 292.324 119.499 294.161 119.728L300.657 120.54C304.065 120.966 306.88 117.912 306.179 114.55C305.765 112.564 306.591 110.524 308.27 109.385L310.886 107.61C314.653 105.055 319.688 105.454 323.006 108.57L327.491 112.781C329.759 114.911 333.126 115.374 335.885 113.935C338.885 112.371 340.421 108.953 339.6 105.671L335.516 89.3409C334.947 87.0659 334.66 84.7297 334.66 82.3846V73.8134C334.66 70.9653 333.78 68.1866 332.14 65.8576C328.825 61.1479 322.936 58.9879 317.362 60.4367L311.868 61.8647C307.71 62.9453 303.327 62.7859 299.259 61.4061L291.506 58.7765C285.229 56.6476 278.424 56.6573 272.153 58.804L261.082 62.5941C254.598 64.8138 247.504 64.4108 241.313 61.4712C236.587 59.2271 231.298 58.4458 226.125 59.2275L205.568 62.3339C200.419 63.112 195.156 62.5363 190.297 60.6636L168.841 52.3941C164.969 50.9018 160.604 51.4793 157.253 53.927L155.366 55.3056C153.056 56.9933 150.027 57.3373 147.397 56.2106C144.56 54.9951 141.279 55.4972 138.935 57.5054L137.854 58.4317C135.358 60.5703 131.997 61.4017 128.792 60.6735L114.25 57.3697C108.849 56.1425 103.213 56.4347 97.9677 58.2138L84.0845 62.9225C82.9112 63.3205 81.699 63.5927 80.4682 63.7347L64.85 65.5362C62.473 65.8103 60.8936 68.1308 61.5103 70.4426C61.837 71.6673 61.5516 72.9744 60.7442 73.9515L58.44 76.7398C55.7313 80.0176 55.1665 84.5675 56.9914 88.4081Z" fill="white" stroke="black" stroke-width="2"/>
<path d="M101.027 165.345L99.8595 166.426C98.4839 167.7 99.3851 170 101.26 170C101.669 170 102.069 169.878 102.409 169.65L141.841 143.161L181.806 168.898C182.076 169.072 182.376 169.197 182.69 169.267C184.389 169.643 186 168.35 186 166.61V164.762C186 163.949 185.341 163.29 184.528 163.29C183.715 163.29 183.056 162.631 183.056 161.818V160.008C183.056 158.49 182.015 157.17 180.538 156.817L174.341 155.334C173.286 155.081 172.542 154.138 172.542 153.054V152.296C172.542 151.42 171.832 150.71 170.955 150.71C170.378 150.71 169.845 150.395 169.566 149.889L167.016 145.266C165.975 143.378 164.24 141.969 162.178 141.336C160.705 140.885 159.387 140.032 158.371 138.874L157.658 138.061C155.357 135.439 152.037 133.935 148.549 133.935H146.985C146.087 133.935 145.198 133.765 144.364 133.432L143.709 133.171C142.253 132.59 140.618 132.658 139.216 133.357L139.146 133.392C138.429 133.749 137.639 133.935 136.838 133.935H134.474C133.84 133.935 133.268 133.558 133.018 132.977C132.596 131.996 131.344 131.704 130.533 132.398L127.487 135.001C126.708 135.667 125.717 136.032 124.693 136.032C122.318 136.032 120.393 137.958 120.393 140.333V142.07C120.393 143.509 119.578 144.825 118.29 145.468L117.622 145.801C116.742 146.239 116.187 147.137 116.187 148.119C116.187 149.55 115.027 150.71 113.596 150.71H111.331C109.135 150.71 107.355 152.49 107.355 154.686C107.355 156.332 106.34 157.809 104.803 158.398L104.621 158.468C102.975 159.099 101.888 160.68 101.888 162.444V163.375C101.888 164.123 101.576 164.837 101.027 165.345Z" fill="white" stroke="black" stroke-width="2"/>
<path d="M307.029 165.346L308.21 166.452C309.568 167.723 308.668 170 306.808 170C306.397 170 305.996 169.877 305.656 169.646L266.668 143.161L227.149 168.897C226.88 169.072 226.583 169.197 226.271 169.267C224.593 169.643 223 168.367 223 166.648V164.746C223 163.942 223.652 163.29 224.456 163.29C225.26 163.29 225.911 162.639 225.911 161.835V160.005C225.911 158.488 226.95 157.168 228.424 156.811L234.514 155.338C235.567 155.083 236.308 154.14 236.308 153.057V152.275C236.308 151.411 237.009 150.71 237.874 150.71C238.447 150.71 238.974 150.397 239.249 149.894L241.786 145.241C242.807 143.37 244.518 141.969 246.554 141.337C248.012 140.885 249.315 140.034 250.316 138.881L251.024 138.066C253.3 135.442 256.602 133.935 260.076 133.935H261.58C262.468 133.935 263.349 133.765 264.173 133.432L264.819 133.172C266.259 132.591 267.879 132.659 269.265 133.358L269.331 133.391C270.041 133.749 270.826 133.935 271.621 133.935H273.948C274.577 133.935 275.146 133.559 275.392 132.98C275.808 132.001 277.057 131.712 277.862 132.407L280.861 134.999C281.632 135.666 282.617 136.032 283.636 136.032C285.979 136.032 287.879 137.932 287.879 140.275V142.091C287.879 143.519 288.683 144.825 289.958 145.468L290.61 145.797C291.485 146.238 292.037 147.134 292.037 148.114C292.037 149.548 293.199 150.71 294.633 150.71H296.788C298.988 150.71 300.771 152.493 300.771 154.692C300.771 156.336 301.781 157.811 303.314 158.405L303.474 158.468C305.104 159.1 306.178 160.668 306.178 162.416V163.382C306.178 164.126 306.486 164.837 307.029 165.346Z" fill="white" stroke="black" stroke-width="2"/>
<ellipse cx="230.12" cy="32.6148" rx="0.974977" ry="1.26952" transform="rotate(10.2456 230.12 32.6148)" fill="black"/>
<ellipse cx="236.891" cy="32.6148" rx="0.974977" ry="1.26952" transform="rotate(3.72254 236.891 32.6148)" fill="black"/>
<path d="M247 50L256.122 45.3462M256.122 45.3462V39M256.122 45.3462L261.927 41.1154M256.122 45.3462L264 46.1923" stroke="black" stroke-width="2" stroke-linecap="round"/>
<path d="M218 46L209.444 41.6M209.444 41.6V36M209.444 41.6L204 37.6M209.444 41.6L204 42.8" stroke="black" stroke-width="2" stroke-linecap="round"/>
<rect x="130" y="171" width="24" height="35" fill="#FCE574" stroke="black" stroke-width="2"/>
<rect x="253" y="171" width="26" height="35" fill="#FCE574" stroke="black" stroke-width="2"/>
<path d="M157.772 246.585C141.543 245.863 134.95 234.561 133.682 229H86.7693C87.3329 231.856 84.9943 238.649 71.1318 242.978C57.2693 247.306 51.2679 235.463 50 229H86.7693H133.682H180.172H229.62H271.461H314.57H345V242.978C344.662 245.863 339.083 247.487 336.125 247.938C325.643 246.855 317.388 234.862 314.57 229H271.461C268.785 235.763 260.642 249.02 249.484 247.938C238.327 246.855 231.593 234.862 229.62 229H180.172C179.468 235.162 174.001 247.306 157.772 246.585Z" fill="#E68383"/>
<path d="M133.682 229C134.95 234.561 141.543 245.863 157.772 246.585C174.001 247.306 179.468 235.162 180.172 229H229.62C231.593 234.862 238.327 246.855 249.484 247.938C260.642 249.02 268.785 235.763 271.461 229H314.57C317.388 234.862 325.643 246.855 336.125 247.938C339.083 247.487 344.662 245.863 345 242.978V229H86.7693M86.7693 229H50C51.2679 235.463 57.2693 247.306 71.1318 242.978C84.9943 238.649 87.3329 231.856 86.7693 229Z" stroke="black" stroke-width="2" stroke-linecap="round"/>
<rect x="49" y="220" width="298" height="10" fill="#E68383" stroke="black" stroke-width="2"/>
<path d="M70 136C71.0551 141.909 75.1688 151.595 83.5284 147.324C84.7941 146.677 86.5294 147.193 87.2753 148.403C89.5775 152.138 94.0572 155.839 96 152.989" stroke="black" stroke-width="2" stroke-linecap="round"/>
<path d="M150.225 668.267V778.32H245.015V668.267C243.323 658.123 231.135 638.002 195.927 638.669C160.719 639.336 150.789 658.679 150.225 668.267Z" fill="white" stroke="black" stroke-width="2" stroke-linecap="round"/>
<rect x="-1" y="-1" width="6.46345" height="89.4053" transform="matrix(0 -1 -1 0 240.476 748.38)" fill="#E68383" stroke="black" stroke-width="2"/>
<rect x="168.565" y="648.783" width="6.46345" height="36.2573" transform="rotate(-43.8127 168.565 648.783)" fill="#E68383" stroke="black" stroke-width="2"/>
<rect x="-1.41391" y="0.0293037" width="6.46345" height="36.2573" transform="matrix(-0.721607 -0.692303 -0.692303 0.721607 224.414 647.783)" fill="#E68383" stroke="black" stroke-width="2"/>
<rect x="194.388" y="643.048" width="6.46345" height="135.954" fill="#E68383" stroke="black" stroke-width="2"/>
<rect x="150.379" y="675.749" width="6.46345" height="91.098" transform="rotate(-90 150.379 675.749)" fill="#E68383" stroke="black" stroke-width="2"/>
<rect x="-1" y="-1" width="6.46345" height="89.4053" transform="matrix(0 -1 -1 0 241.323 712.834)" fill="#E68383" stroke="black" stroke-width="2"/>
<path d="M195.908 637.668C231.591 636.992 244.224 657.448 246.002 668.101L246.016 668.183V779.319H240.091V670.775L240.08 670.7C239.301 665.608 236.506 658.63 229.901 653.008C223.283 647.376 212.93 643.181 197.177 643.506C165.714 644.156 155.687 659.615 155.15 669.544L155.149 669.572V779.319H149.225V668.236L149.227 668.207C149.827 658.019 160.261 638.344 195.908 637.668Z" fill="#E68383"/>
<path d="M195.908 637.668L195.889 636.669H195.889L195.908 637.668ZM246.002 668.101L246.988 667.937L246.988 667.936L246.002 668.101ZM246.016 668.183H247.016V668.1L247.002 668.019L246.016 668.183ZM246.016 779.319V780.319H247.016V779.319H246.016ZM240.091 779.319H239.091V780.319H240.091V779.319ZM240.091 670.775H241.091V670.704L241.081 670.633L240.091 670.775ZM240.08 670.7L241.07 670.558L241.069 670.548L240.08 670.7ZM229.901 653.008L230.55 652.247L230.549 652.247L229.901 653.008ZM197.177 643.506L197.156 642.507L197.156 642.507L197.177 643.506ZM155.15 669.544L154.152 669.491L154.151 669.5L154.151 669.509L155.15 669.544ZM155.149 669.572L154.15 669.536L154.149 669.554V669.572H155.149ZM155.149 779.319V780.319H156.149V779.319H155.149ZM149.225 779.319H148.225V780.319H149.225V779.319ZM149.225 668.236L148.227 668.169L148.225 668.203V668.236H149.225ZM149.227 668.207L150.224 668.273L150.225 668.265L149.227 668.207ZM195.908 637.668L195.927 638.668C231.135 638.001 243.323 658.122 245.016 668.266L246.002 668.101L246.988 667.936C245.125 656.774 232.047 635.984 195.889 636.669L195.908 637.668ZM246.002 668.101L245.016 668.265L245.029 668.348L246.016 668.183L247.002 668.019L246.988 667.937L246.002 668.101ZM246.016 668.183H245.016V779.319H246.016H247.016V668.183H246.016ZM246.016 779.319V778.319H240.091V779.319V780.319H246.016V779.319ZM240.091 779.319H241.091V670.775H240.091H239.091V779.319H240.091ZM240.091 670.775L241.081 670.633L241.07 670.558L240.08 670.7L239.09 670.841L239.101 670.916L240.091 670.775ZM240.08 670.7L241.069 670.548C240.259 665.255 237.364 658.046 230.55 652.247L229.901 653.008L229.253 653.77C235.649 659.214 238.343 665.961 239.092 670.851L240.08 670.7ZM229.901 653.008L230.549 652.247C223.709 646.425 213.103 642.177 197.156 642.507L197.177 643.506L197.197 644.506C212.757 644.185 222.857 648.326 229.253 653.77L229.901 653.008ZM197.177 643.506L197.156 642.507C165.353 643.164 154.725 658.874 154.152 669.491L155.15 669.544L156.149 669.598C156.648 660.356 166.075 645.149 197.197 644.506L197.177 643.506ZM155.15 669.544L154.151 669.509L154.15 669.536L155.149 669.572L156.149 669.607L156.15 669.58L155.15 669.544ZM155.149 669.572H154.149V779.319H155.149H156.149V669.572H155.149ZM155.149 779.319V778.319H149.225V779.319V780.319H155.149V779.319ZM149.225 779.319H150.225V668.236H149.225H148.225V779.319H149.225ZM149.225 668.236L150.222 668.302L150.224 668.273L149.227 668.207L148.229 668.14L148.227 668.169L149.225 668.236ZM149.227 668.207L150.225 668.265C150.79 658.678 160.72 639.335 195.927 638.668L195.908 637.668L195.889 636.669C159.802 637.352 148.864 657.361 148.228 668.148L149.227 668.207Z" fill="black"/>
<path d="M325.477 691.029V778.735H267.807V691.029C268.837 682.945 276.252 666.91 297.672 667.442C319.092 667.973 325.134 683.388 325.477 691.029Z" fill="white" stroke="black" stroke-width="2" stroke-linecap="round"/>
<rect x="-1" y="1" width="4.77076" height="85.1735" transform="matrix(-1 0 0 1 297.181 692.838)" fill="#E68383" stroke="black" stroke-width="2"/>
<rect x="324.418" y="693.838" width="4.77076" height="57.2442" transform="rotate(90 324.418 693.838)" fill="#E68383" stroke="black" stroke-width="2"/>
<path d="M297.698 666.442C286.703 666.17 279.22 670.16 274.365 675.319C269.542 680.446 267.354 686.681 266.816 690.902L266.808 690.966V779.734H326.478V691.007L326.477 690.984C326.296 686.969 324.631 680.981 320.235 675.914C315.809 670.814 308.671 666.715 297.698 666.442ZM296.086 671.586C305.452 671.848 311.679 674.859 315.603 678.865C319.51 682.855 321.05 687.75 321.205 691.647L321.206 691.667V779.358H272.536V693.53L272.542 693.475C272.988 689.529 274.065 683.931 277.459 679.373C280.903 674.748 286.637 671.321 296.086 671.586Z" fill="#E68383"/>
<path d="M297.698 666.442L297.722 665.443L297.722 665.443L297.698 666.442ZM274.365 675.319L273.637 674.634L273.637 674.634L274.365 675.319ZM266.816 690.902L265.823 690.78L265.824 690.776L266.816 690.902ZM266.808 690.966H265.808V690.905L265.815 690.844L266.808 690.966ZM266.808 779.734V780.734H265.808V779.734H266.808ZM326.478 779.734H327.478V780.734H326.478V779.734ZM326.478 691.007L327.477 690.963L327.478 690.985V691.007H326.478ZM326.477 690.984L327.476 690.939L327.476 690.941L326.477 690.984ZM320.235 675.914L320.99 675.259L320.99 675.259L320.235 675.914ZM296.086 671.586L296.114 670.586L296.114 670.586L296.086 671.586ZM315.603 678.865L316.317 678.166L316.317 678.166L315.603 678.865ZM321.205 691.647L320.207 691.697L320.206 691.687L321.205 691.647ZM321.206 691.667L322.205 691.617L322.206 691.642V691.667H321.206ZM321.206 779.358H322.206V780.358H321.206V779.358ZM272.536 779.358V780.358H271.536V779.358H272.536ZM272.536 693.53H271.536V693.478L271.542 693.426L272.536 693.53ZM272.542 693.475L271.548 693.37L271.549 693.362L272.542 693.475ZM277.459 679.373L276.657 678.776L276.657 678.776L277.459 679.373ZM297.698 666.442L297.673 667.442C286.963 667.176 279.754 671.052 275.094 676.005L274.365 675.319L273.637 674.634C278.687 669.267 286.444 665.163 297.722 665.443L297.698 666.442ZM274.365 675.319L275.094 676.005C270.434 680.957 268.323 686.987 267.808 691.029L266.816 690.902L265.824 690.776C266.384 686.375 268.649 679.936 273.637 674.634L274.365 675.319ZM266.816 690.902L267.808 691.024L267.8 691.088L266.808 690.966L265.815 690.844L265.823 690.78L266.816 690.902ZM266.808 690.966H267.808V779.734H266.808H265.808V690.966H266.808ZM266.808 779.734V778.734H326.478V779.734V780.734H266.808V779.734ZM326.478 779.734H325.478V691.007H326.478H327.478V779.734H326.478ZM326.478 691.007L325.479 691.05L325.478 691.028L326.477 690.984L327.476 690.941L327.477 690.963L326.478 691.007ZM326.477 690.984L325.478 691.029C325.306 687.209 323.71 681.445 319.479 676.569L320.235 675.914L320.99 675.259C325.553 680.517 327.287 686.729 327.476 690.939L326.477 690.984ZM320.235 675.914L319.479 676.569C315.249 671.694 308.383 667.708 297.673 667.442L297.698 666.442L297.722 665.443C308.96 665.722 316.369 669.934 320.99 675.259L320.235 675.914ZM296.086 671.586L296.114 670.586C305.692 670.855 312.182 673.943 316.317 678.166L315.603 678.865L314.888 679.565C311.177 675.775 305.212 672.842 296.058 672.586L296.086 671.586ZM315.603 678.865L316.317 678.166C320.421 682.356 322.041 687.497 322.205 691.608L321.205 691.647L320.206 691.687C320.059 688.003 318.6 683.355 314.888 679.565L315.603 678.865ZM321.205 691.647L322.204 691.598L322.205 691.617L321.206 691.667L320.208 691.717L320.207 691.697L321.205 691.647ZM321.206 691.667H322.206V779.358H321.206H320.206V691.667H321.206ZM321.206 779.358V780.358H272.536V779.358V778.358H321.206V779.358ZM272.536 779.358H271.536V693.53H272.536H273.536V779.358H272.536ZM272.536 693.53L271.542 693.426L271.548 693.37L272.542 693.475L273.537 693.579L273.531 693.635L272.536 693.53ZM272.542 693.475L271.549 693.362C272 689.368 273.101 683.552 276.657 678.776L277.459 679.373L278.261 679.97C275.029 684.31 273.976 689.689 273.536 693.587L272.542 693.475ZM277.459 679.373L276.657 678.776C280.313 673.866 286.369 670.313 296.114 670.586L296.086 671.586L296.058 672.586C286.904 672.329 281.493 675.631 278.261 679.97L277.459 679.373Z" fill="black"/>
<path d="M69.8225 691.029V778.735H127.493V691.029C126.463 682.945 119.048 666.91 97.6278 667.442C76.2074 667.973 70.1658 683.388 69.8225 691.029Z" fill="white" stroke="black" stroke-width="2" stroke-linecap="round"/>
<rect x="97.1185" y="693.838" width="4.77076" height="85.1735" fill="#E68383" stroke="black" stroke-width="2"/>
<rect x="1" y="1" width="4.77076" height="57.2442" transform="matrix(0 1 1 0 69.8816 692.838)" fill="#E68383" stroke="black" stroke-width="2"/>
<path d="M97.6023 666.442C108.597 666.17 116.08 670.16 120.934 675.319C125.758 680.446 127.946 686.681 128.484 690.902L128.492 690.966V779.734H68.822V691.007L68.823 690.984C69.0035 686.969 70.6684 680.981 75.0652 675.914C79.4911 670.814 86.6282 666.715 97.6023 666.442ZM99.2146 671.586C89.8485 671.848 83.6216 674.859 79.698 678.865C75.7905 682.855 74.2507 687.75 74.0955 691.647L74.0945 691.667V779.358H122.764V693.53L122.759 693.475C122.313 689.529 121.236 683.931 117.842 679.373C114.398 674.748 108.664 671.321 99.2146 671.586Z" fill="#E68383"/>
<path d="M97.6023 666.442L97.5775 665.443L97.5775 665.443L97.6023 666.442ZM120.934 675.319L121.663 674.634L121.663 674.634L120.934 675.319ZM128.484 690.902L129.477 690.78L129.476 690.776L128.484 690.902ZM128.492 690.966H129.492V690.905L129.484 690.844L128.492 690.966ZM128.492 779.734V780.734H129.492V779.734H128.492ZM68.822 779.734H67.822V780.734H68.822V779.734ZM68.822 691.007L67.823 690.963L67.822 690.985V691.007H68.822ZM68.823 690.984L67.824 690.939L67.8239 690.941L68.823 690.984ZM75.0652 675.914L74.3099 675.259L74.3099 675.259L75.0652 675.914ZM99.2146 671.586L99.1866 670.586L99.1866 670.586L99.2146 671.586ZM79.698 678.865L78.9835 678.166L78.9835 678.166L79.698 678.865ZM74.0955 691.647L75.0943 691.697L75.0947 691.687L74.0955 691.647ZM74.0945 691.667L73.0957 691.617L73.0945 691.642V691.667H74.0945ZM74.0945 779.358H73.0945V780.358H74.0945V779.358ZM122.764 779.358V780.358H123.764V779.358H122.764ZM122.764 693.53H123.764V693.478L123.759 693.426L122.764 693.53ZM122.759 693.475L123.753 693.37L123.752 693.362L122.759 693.475ZM117.842 679.373L118.644 678.776L118.644 678.776L117.842 679.373ZM97.6023 666.442L97.6271 667.442C108.337 667.176 115.546 671.052 120.206 676.005L120.934 675.319L121.663 674.634C116.613 669.267 108.856 665.163 97.5775 665.443L97.6023 666.442ZM120.934 675.319L120.206 676.005C124.866 680.957 126.977 686.987 127.492 691.029L128.484 690.902L129.476 690.776C128.915 686.375 126.651 679.936 121.663 674.634L120.934 675.319ZM128.484 690.902L127.492 691.024L127.499 691.088L128.492 690.966L129.484 690.844L129.477 690.78L128.484 690.902ZM128.492 690.966H127.492V779.734H128.492H129.492V690.966H128.492ZM128.492 779.734V778.734H68.822V779.734V780.734H128.492V779.734ZM68.822 779.734H69.822V691.007H68.822H67.822V779.734H68.822ZM68.822 691.007L69.8211 691.05L69.8221 691.028L68.823 690.984L67.8239 690.941L67.823 690.963L68.822 691.007ZM68.823 690.984L69.822 691.029C69.9937 687.209 71.5899 681.445 75.8205 676.569L75.0652 675.914L74.3099 675.259C69.7469 680.517 68.0133 686.729 67.824 690.939L68.823 690.984ZM75.0652 675.914L75.8204 676.569C80.0512 671.694 86.9171 667.708 97.6271 667.442L97.6023 666.442L97.5775 665.443C86.3393 665.722 78.9309 669.934 74.3099 675.259L75.0652 675.914ZM99.2146 671.586L99.1866 670.586C89.6087 670.854 83.1191 673.943 78.9835 678.166L79.698 678.865L80.4125 679.565C84.1242 675.775 90.0882 672.842 99.2426 672.586L99.2146 671.586ZM79.698 678.865L78.9835 678.166C74.88 682.356 73.2599 687.497 73.0963 691.608L74.0955 691.647L75.0947 691.687C75.2414 688.003 76.701 683.355 80.4125 679.565L79.698 678.865ZM74.0955 691.647L73.0967 691.598L73.0957 691.617L74.0945 691.667L75.0932 691.717L75.0942 691.697L74.0955 691.647ZM74.0945 691.667H73.0945V779.358H74.0945H75.0945V691.667H74.0945ZM74.0945 779.358V780.358H122.764V779.358V778.358H74.0945V779.358ZM122.764 779.358H123.764V693.53H122.764H121.764V779.358H122.764ZM122.764 693.53L123.759 693.426L123.753 693.37L122.759 693.475L121.764 693.579L121.77 693.635L122.764 693.53ZM122.759 693.475L123.752 693.362C123.301 689.368 122.2 683.552 118.644 678.776L117.842 679.373L117.04 679.97C120.271 684.31 121.325 689.689 121.765 693.587L122.759 693.475ZM117.842 679.373L118.644 678.776C114.987 673.866 108.931 670.314 99.1866 670.586L99.2146 671.586L99.2426 672.586C108.397 672.329 113.808 675.631 117.04 679.97L117.842 679.373Z" fill="black"/>
<path d="M115.006 638.031L113.354 635.484C111.213 632.182 107.545 630.19 103.61 630.19C102.543 630.19 101.495 630.465 100.566 630.989L100.504 631.024C99.2675 631.721 98.2949 632.807 97.7366 634.112L95.987 638.204C94.9697 640.583 95.1657 643.307 96.513 645.515L99.9202 651.101C100.347 651.801 100.477 652.643 100.282 653.439C99.8378 655.246 101.085 657.03 102.935 657.234L104.068 657.359C104.842 657.444 105.625 657.306 106.323 656.96L120.794 649.798C122.232 649.086 123.141 647.621 123.141 646.016C123.141 644.451 122.274 643.014 120.889 642.284L117.988 640.755C116.777 640.117 115.751 639.179 115.006 638.031Z" fill="#FCE574" stroke="black" stroke-width="2"/>
<path d="M76.4317 640.793L82.31 633.528C84.0188 631.417 86.6207 630.19 89.3371 630.19C92.1475 630.19 94.8271 631.508 96.5208 633.751C98.3447 636.165 98.8267 639.338 97.8026 642.185L95.0343 649.882C94.7713 650.613 94.7001 651.4 94.8273 652.167L95.0792 653.684C95.5707 656.645 92.546 658.948 89.8224 657.686L70.9957 648.612C70.227 648.242 69.6722 647.537 69.4921 646.703C69.1972 645.336 69.968 643.964 71.2887 643.505L73.8259 642.623C74.8482 642.268 75.7508 641.634 76.4317 640.793Z" fill="#FCE574" stroke="black" stroke-width="2"/>
<path d="M89.8755 625.747L94.4475 629.339C94.7999 629.616 95.235 629.766 95.6832 629.766H98.1123C98.2878 629.766 98.4627 629.743 98.6322 629.698L108.263 627.105C108.954 626.919 109.732 627.09 110.112 627.696C110.654 628.559 110.541 629.238 110.003 629.766V635.474C110.003 637.044 108.278 638.001 106.945 637.172L100.978 633.454C100.661 633.257 100.294 633.152 99.9207 633.152H95.1598C95.0478 633.152 94.9359 633.161 94.8254 633.18L86.3815 634.612C84.7714 634.885 83.5304 633.218 84.2542 631.754L86.1048 628.011C85.4115 626.942 86.6027 626.035 88.0941 625.444C88.6939 625.206 89.3681 625.348 89.8755 625.747Z" fill="#E72D2D"/>
<path d="M86.1048 628.011C85.4115 626.942 86.6027 626.035 88.0941 625.444C88.6939 625.206 89.3681 625.348 89.8755 625.747L94.4475 629.339C94.7999 629.616 95.235 629.766 95.6832 629.766H98.1123C98.2878 629.766 98.4627 629.743 98.6322 629.698L108.263 627.105C108.954 626.919 109.732 627.09 110.112 627.696C110.654 628.559 110.541 629.238 110.003 629.766M86.1048 628.011C86.7732 629.042 89.1934 630.222 94.7856 631.416C94.921 631.444 95.0612 631.459 95.1997 631.459H100.493C103.655 631.555 108.496 631.247 110.003 629.766M86.1048 628.011L84.2542 631.754C83.5304 633.218 84.7714 634.885 86.3815 634.612L94.8254 633.18C94.9359 633.161 95.0478 633.152 95.1598 633.152H99.9207C100.294 633.152 100.661 633.257 100.978 633.454L106.945 637.172C108.278 638.001 110.003 637.044 110.003 635.474V629.766" stroke="black" stroke-width="2" stroke-linecap="round"/>
<path d="M97.328 628.651C98.7825 628.651 100.136 629.996 100.137 631.883C100.137 633.769 98.7826 635.115 97.328 635.115C95.8734 635.115 94.5194 633.769 94.5194 631.883C94.5195 629.996 95.8735 628.651 97.328 628.651Z" fill="#E72D2D" stroke="black" stroke-width="2"/>
<path d="M314.744 640.57L313.092 638.023C310.95 634.721 307.283 632.729 303.347 632.729C302.281 632.729 301.233 633.004 300.304 633.528L300.242 633.563C299.005 634.26 298.033 635.346 297.474 636.651L295.725 640.743C294.707 643.122 294.903 645.846 296.251 648.054L299.658 653.64C300.085 654.34 300.215 655.182 300.02 655.978C299.576 657.785 300.823 659.57 302.672 659.773L303.805 659.898C304.58 659.983 305.363 659.845 306.061 659.499L320.532 652.337C321.969 651.625 322.879 650.16 322.879 648.555C322.879 646.99 322.012 645.553 320.627 644.823L317.726 643.294C316.515 642.656 315.489 641.718 314.744 640.57Z" fill="#FCE574" stroke="black" stroke-width="2"/>
<path d="M276.169 643.332L282.048 636.067C283.756 633.956 286.358 632.729 289.075 632.729C291.885 632.729 294.565 634.047 296.258 636.29C298.082 638.704 298.564 641.877 297.54 644.724L294.772 652.421C294.509 653.153 294.438 653.939 294.565 654.706L294.817 656.223C295.308 659.184 292.284 661.487 289.56 660.225L270.733 651.151C269.964 650.781 269.41 650.076 269.23 649.242C268.935 647.875 269.706 646.503 271.026 646.044L273.563 645.163C274.586 644.807 275.488 644.173 276.169 643.332Z" fill="#FCE574" stroke="black" stroke-width="2"/>
<path d="M289.613 628.286L294.185 631.879C294.538 632.156 294.973 632.306 295.421 632.306H297.85C298.026 632.306 298.2 632.283 298.37 632.237L308.001 629.644C308.691 629.458 309.47 629.629 309.85 630.236C310.391 631.099 310.279 631.777 309.741 632.306V638.014C309.741 639.583 308.015 640.541 306.683 639.711L300.716 635.994C300.399 635.796 300.032 635.691 299.658 635.691H294.898C294.786 635.691 294.674 635.701 294.563 635.72L286.119 637.152C284.509 637.425 283.268 635.758 283.992 634.294L285.843 630.551C285.149 629.482 286.341 628.575 287.832 627.983C288.432 627.745 289.106 627.888 289.613 628.286Z" fill="#E72D2D"/>
<path d="M285.843 630.551C285.149 629.482 286.341 628.575 287.832 627.983C288.432 627.745 289.106 627.888 289.613 628.286L294.185 631.879C294.538 632.156 294.973 632.306 295.421 632.306H297.85C298.026 632.306 298.2 632.283 298.37 632.237L308.001 629.644C308.691 629.458 309.47 629.629 309.85 630.236C310.391 631.099 310.279 631.777 309.741 632.306M285.843 630.551C286.511 631.581 288.931 632.762 294.523 633.955C294.659 633.984 294.799 633.999 294.937 633.999H300.23C303.393 634.095 308.234 633.787 309.741 632.306M285.843 630.551L283.992 634.294C283.268 635.758 284.509 637.425 286.119 637.152L294.563 635.72C294.674 635.701 294.786 635.691 294.898 635.691H299.658C300.032 635.691 300.399 635.796 300.716 635.994L306.683 639.711C308.015 640.541 309.741 639.583 309.741 638.014V632.306" stroke="black" stroke-width="2" stroke-linecap="round"/>
<path d="M297.066 631.19C298.52 631.19 299.874 632.535 299.874 634.421C299.874 636.308 298.52 637.654 297.066 637.654C295.611 637.654 294.257 636.308 294.257 634.421C294.257 632.535 295.611 631.19 297.066 631.19Z" fill="#E72D2D" stroke="black" stroke-width="2"/>
</svg>
