<svg width="300" height="400" viewBox="0 0 300 400" fill="none" xmlns="http://www.w3.org/2000/svg">
<g clip-path="url(#clip0_90_37)">
<mask id="path-1-inside-1_90_37" fill="white">
<path d="M146 102C195.154 102 235 140.28 235 187.5C235 213.676 222.755 237.104 203.468 252.787L278.57 293.538C290.179 299.837 294.498 314.362 288.218 325.981C281.938 337.601 267.435 341.913 255.826 335.614L212.555 312.136L245.5 404H56.5004L81.3636 321.119L49.764 338.266C38.155 344.565 23.653 340.252 17.3724 328.633C11.092 317.014 15.411 302.489 27.0199 296.189L96.4359 258.523C72.6518 243.175 57.0004 217.094 57.0004 187.5C57.0004 140.28 96.847 102 146 102Z"/>
</mask>
<path d="M146 102C195.154 102 235 140.28 235 187.5C235 213.676 222.755 237.104 203.468 252.787L278.57 293.538C290.179 299.837 294.498 314.362 288.218 325.981C281.938 337.601 267.435 341.913 255.826 335.614L212.555 312.136L245.5 404H56.5004L81.3636 321.119L49.764 338.266C38.155 344.565 23.653 340.252 17.3724 328.633C11.092 317.014 15.411 302.489 27.0199 296.189L96.4359 258.523C72.6518 243.175 57.0004 217.094 57.0004 187.5C57.0004 140.28 96.847 102 146 102Z" fill="#BB8760"/>
<path d="M146 102V101V102ZM203.468 252.787L202.837 252.011L201.678 252.954L202.991 253.666L203.468 252.787ZM278.57 293.538L278.093 294.417V294.417L278.57 293.538ZM288.218 325.981L289.098 326.457L289.098 326.457L288.218 325.981ZM255.826 335.614L256.302 334.735L255.826 335.614ZM212.555 312.136L213.032 311.257L210.729 310.007L211.614 312.473L212.555 312.136ZM245.5 404V405H246.921L246.442 403.662L245.5 404ZM56.5004 404L55.5425 403.713L55.1563 405H56.5004V404ZM81.3636 321.119L82.3215 321.406L83.0183 319.084L80.8867 320.24L81.3636 321.119ZM49.764 338.266L50.241 339.145L50.241 339.145L49.764 338.266ZM17.3724 328.633L16.4927 329.108H16.4927L17.3724 328.633ZM27.0199 296.189L26.543 295.311H26.543L27.0199 296.189ZM96.4359 258.523L96.9128 259.402L98.3955 258.598L96.9781 257.683L96.4359 258.523ZM146 102V103C194.639 103 234 140.869 234 187.5H235H236C236 139.69 195.668 101 146 101V102ZM235 187.5H234C234 213.354 221.907 236.504 202.837 252.011L203.468 252.787L204.099 253.563C223.602 237.703 236 213.998 236 187.5H235ZM203.468 252.787L202.991 253.666L278.093 294.417L278.57 293.538L279.047 292.659L203.945 251.908L203.468 252.787ZM278.57 293.538L278.093 294.417C289.217 300.453 293.356 314.372 287.338 325.506L288.218 325.981L289.098 326.457C295.64 314.353 291.14 299.221 279.047 292.659L278.57 293.538ZM288.218 325.981L287.338 325.506C281.321 336.639 267.426 340.771 256.302 334.735L255.826 335.614L255.349 336.493C267.444 343.056 282.554 338.562 289.098 326.457L288.218 325.981ZM255.826 335.614L256.302 334.735L213.032 311.257L212.555 312.136L212.078 313.015L255.349 336.493L255.826 335.614ZM212.555 312.136L211.614 312.473L244.559 404.338L245.5 404L246.442 403.662L213.496 311.798L212.555 312.136ZM245.5 404V403H56.5004V404V405H245.5V404ZM56.5004 404L57.4582 404.287L82.3215 321.406L81.3636 321.119L80.4058 320.832L55.5425 403.713L56.5004 404ZM81.3636 321.119L80.8867 320.24L49.2871 337.387L49.764 338.266L50.241 339.145L81.8406 321.998L81.3636 321.119ZM49.764 338.266L49.2871 337.387C38.164 343.422 24.2698 339.29 18.2521 328.157L17.3724 328.633L16.4927 329.108C23.0362 341.214 38.1459 345.707 50.241 339.145L49.764 338.266ZM17.3724 328.633L18.2521 328.157C12.234 317.024 16.3728 303.104 27.4968 297.068L27.0199 296.189L26.543 295.311C14.4492 301.873 9.94994 317.004 16.4927 329.108L17.3724 328.633ZM27.0199 296.189L27.4968 297.068L96.9128 259.402L96.4359 258.523L95.959 257.645L26.543 295.311L27.0199 296.189ZM96.4359 258.523L96.9781 257.683C73.4571 242.505 58.0004 216.729 58.0004 187.5H57.0004H56.0004C56.0004 217.459 71.8464 243.845 95.8937 259.364L96.4359 258.523ZM57.0004 187.5H58.0004C58.0004 140.869 97.3611 103 146 103V102V101C96.3329 101 56.0004 139.69 56.0004 187.5H57.0004Z" fill="black" mask="url(#path-1-inside-1_90_37)"/>
<mask id="path-3-inside-2_90_37" fill="white">
<path d="M146.5 111C191.511 111 228 145.474 228 188C228 214.762 213.549 238.333 191.618 252.133L273.96 296.812C282.849 301.635 286.155 312.756 281.347 321.652C276.539 330.548 265.435 333.851 256.547 329.028L197.662 297.077L239 410H60.0004L92.1996 307.873L48.6019 331.53C39.8426 336.283 28.9004 333.029 24.1615 324.262C19.4227 315.495 22.6816 304.535 31.4408 299.782L110.286 257C83.4462 244.402 65.0004 218.236 65.0004 188C65.0004 145.474 101.489 111 146.5 111Z"/>
</mask>
<path d="M146.5 111L146.5 108H146.5V111ZM191.618 252.133L190.02 249.594C189.118 250.161 188.585 251.164 188.619 252.23C188.653 253.295 189.25 254.261 190.187 254.77L191.618 252.133ZM273.96 296.812L272.53 299.449H272.53L273.96 296.812ZM281.347 321.652L283.986 323.079V323.079L281.347 321.652ZM256.547 329.028L255.116 331.665L255.117 331.665L256.547 329.028ZM197.662 297.077L199.093 294.44C197.997 293.845 196.646 293.991 195.702 294.807C194.757 295.622 194.416 296.937 194.845 298.108L197.662 297.077ZM239 410V413C239.98 413 240.898 412.522 241.459 411.718C242.021 410.915 242.154 409.889 241.818 408.969L239 410ZM60.0004 410L57.1392 409.098C56.8518 410.009 57.0159 411.003 57.581 411.774C58.1462 412.545 59.0447 413 60.0004 413V410ZM92.1996 307.873L95.0607 308.775C95.4284 307.609 95.0515 306.336 94.1081 305.558C93.1647 304.781 91.8435 304.653 90.7688 305.236L92.1996 307.873ZM48.6019 331.53L50.0327 334.167L50.0327 334.167L48.6019 331.53ZM24.1615 324.262L21.5224 325.688L21.5224 325.688L24.1615 324.262ZM31.4408 299.782L30.01 297.145L30.01 297.145L31.4408 299.782ZM110.286 257L111.717 259.637C112.712 259.097 113.318 258.044 113.285 256.913C113.252 255.781 112.586 254.765 111.561 254.284L110.286 257ZM146.5 111L146.5 114C190.017 114 225 147.289 225 188H228H231C231 143.659 193.005 108 146.5 108L146.5 111ZM228 188H225C225 213.638 211.16 236.292 190.02 249.594L191.618 252.133L193.215 254.672C215.938 240.375 231 215.886 231 188H228ZM191.618 252.133L190.187 254.77L272.53 299.449L273.96 296.812L275.391 294.176L193.048 249.496L191.618 252.133ZM273.96 296.812L272.53 299.449C279.963 303.483 282.729 312.786 278.708 320.226L281.347 321.652L283.986 323.079C289.582 312.727 285.734 299.788 275.391 294.176L273.96 296.812ZM281.347 321.652L278.708 320.226C274.688 327.663 265.408 330.423 257.978 326.391L256.547 329.028L255.117 331.665C265.463 337.279 278.389 333.434 283.986 323.079L281.347 321.652ZM256.547 329.028L257.978 326.391L199.093 294.44L197.662 297.077L196.232 299.714L255.116 331.665L256.547 329.028ZM197.662 297.077L194.845 298.108L236.183 411.031L239 410L241.818 408.969L200.48 296.046L197.662 297.077ZM239 410V407H60.0004V410V413H239V410ZM60.0004 410L62.8615 410.902L95.0607 308.775L92.1996 307.873L89.3384 306.971L57.1392 409.098L60.0004 410ZM92.1996 307.873L90.7688 305.236L47.1711 328.893L48.6019 331.53L50.0327 334.167L93.6304 310.51L92.1996 307.873ZM48.6019 331.53L47.1712 328.893C39.8699 332.855 30.7508 330.143 26.8006 322.835L24.1615 324.262L21.5224 325.688C27.0499 335.914 39.8153 339.711 50.0327 334.167L48.6019 331.53ZM24.1615 324.262L26.8006 322.835C22.8488 315.524 25.5671 306.383 32.8716 302.419L31.4408 299.782L30.01 297.145C19.7961 302.688 15.9967 315.466 21.5224 325.688L24.1615 324.262ZM31.4408 299.782L32.8716 302.419L111.717 259.637L110.286 257L108.856 254.363L30.01 297.145L31.4408 299.782ZM110.286 257L111.561 254.284C85.6684 242.131 68.0004 216.961 68.0004 188H65.0004H62.0004C62.0004 219.512 81.224 246.673 109.012 259.716L110.286 257ZM65.0004 188H68.0004C68.0004 147.289 102.983 114 146.5 114V111V108C99.9951 108 62.0004 143.659 62.0004 188H65.0004Z" fill="#FFF2E7" mask="url(#path-3-inside-2_90_37)"/>
<path d="M71.5 170.5C82.0283 173.646 101.466 175.123 115 164.212M127 146C124.37 154.217 120.105 160.096 115 164.212M115 164.212C129.333 169.642 159.5 173.6 165.5 146C169.5 155.833 186.3 175.5 221.5 175.5" stroke="#FFF2E7" stroke-width="3" stroke-linecap="round" stroke-linejoin="round"/>
<circle cx="114.5" cy="195.5" r="8.5" fill="black"/>
<circle cx="180.157" cy="195.675" r="8.5" fill="black"/>
<circle cx="112" cy="192" r="2" fill="white"/>
<circle cx="177" cy="192" r="2" fill="white"/>
<path d="M165.124 215.944C168.684 214.466 171.069 214.196 172.531 214.474C173.86 214.726 174.436 215.415 174.653 216.29C174.902 217.299 174.704 218.758 173.914 220.377C173.139 221.968 171.86 223.564 170.202 224.796C169.23 225.519 167.207 226.462 164.256 227.325C161.346 228.177 157.649 228.917 153.415 229.298C144.945 230.061 134.403 229.381 123.778 225.355C119.97 223.912 118.322 221.447 118.252 219.71C118.219 218.883 118.52 218.111 119.249 217.473C120 216.816 121.291 216.237 123.309 216.059C125.077 216.07 127.111 216.565 129.675 217.263C132.213 217.954 135.187 218.816 138.589 219.39C145.461 220.549 154.061 220.534 165.124 215.944Z" stroke="black" stroke-width="3"/>
<path d="M163.974 213.172C167.759 211.601 170.792 211.09 173.091 211.527C175.524 211.989 177.055 213.51 177.565 215.57C178.041 217.496 177.584 219.698 176.612 221.692C175.626 223.714 174.035 225.686 171.991 227.204C170.592 228.244 168.165 229.307 165.099 230.204C161.991 231.113 158.101 231.888 153.685 232.285C144.855 233.08 133.844 232.377 122.715 228.16C118.277 226.479 115.391 223.221 115.255 219.829C115.186 218.092 115.865 216.447 117.274 215.215C118.654 214.008 120.642 213.27 123.121 213.063L123.184 213.058H123.246C125.493 213.058 127.925 213.678 130.463 214.368C133.058 215.075 135.866 215.888 139.088 216.432C145.466 217.508 153.488 217.523 163.974 213.172Z" stroke="black" stroke-width="3"/>
<path d="M164.549 214.558C143 223.5 131.305 214.558 123.246 214.558C114.18 215.315 115 223.633 123.246 226.757C145 235 166.352 229.525 171.097 226C178.5 220.5 179.24 208.461 164.549 214.558Z" stroke="#E26262" stroke-width="4"/>
<circle cx="152.5" cy="310.5" r="16" fill="#0BA53F" stroke="black"/>
<circle cx="152.5" cy="363.5" r="16" fill="#FFDB38" stroke="black"/>
<circle cx="148.5" cy="306.5" r="4.5" fill="white"/>
<ellipse cx="148.5" cy="359" rx="4.5" ry="5" fill="white"/>
</g>
<defs>
<clipPath id="clip0_90_37">
<rect width="300" height="400" fill="white"/>
</clipPath>
</defs>
</svg>
