<svg width="300" height="400" viewBox="0 0 300 400" fill="none" xmlns="http://www.w3.org/2000/svg">
<path d="M169.912 308.112C173.988 291.241 192.638 269.517 201.453 260.764L221.079 268.844C234.764 287.17 236.859 311.405 236.196 321.232L237.653 324.21C238.75 331.98 236.61 329.163 235.403 326.783C235.073 335.123 232.514 331.636 231.275 328.85C224.597 334.363 226.081 329.038 227.658 325.686C222.397 321.086 227.341 321.625 230.471 322.47C233.016 314.251 226.316 296.698 222.648 288.948L216.275 348.656C211.427 350.661 203.315 348.656 199.846 346.21C194.179 342.213 204.032 339.653 207.068 340.605L210.468 313.492L197.185 312.094L192.196 346.331L178.207 343.748C171.893 338.227 180.077 336.301 184.958 336.028L192.606 284.815C186.863 286.605 178.496 302.941 175.031 310.885L176.16 313.575C180.186 321.183 176.337 318.461 173.909 316.148C171.212 322.418 170.532 318.683 170.53 316.031C163.062 320.854 164.569 315.549 166.255 312.293C163.248 308.301 167.44 307.842 169.912 308.112Z" fill="#248B35" stroke="black" stroke-linecap="round" stroke-linejoin="round"/>
<circle cx="183.476" cy="260.621" r="4.93902" transform="rotate(6.2427 183.476 260.621)" fill="#472121" stroke="black" stroke-linecap="round"/>
<circle cx="177.241" cy="267.6" r="4.93902" transform="rotate(4.26493 177.241 267.6)" fill="#472121" stroke="black" stroke-linecap="round"/>
<path d="M161.705 279.579L168.066 276.445L172.933 276.977L172.468 286.227L170.06 283.228L164.839 285.94L167.593 280.77L161.705 279.579Z" fill="#472121" stroke="black" stroke-linecap="round" stroke-linejoin="round"/>
<circle cx="172.206" cy="273.615" r="4.93902" transform="rotate(6.2427 172.206 273.615)" fill="#472121" stroke="black" stroke-linecap="round"/>
<circle cx="5.43902" cy="5.43902" r="4.93902" transform="matrix(-0.99407 -0.10874 -0.10874 0.99407 241.396 271.334)" fill="#472121" stroke="black" stroke-linecap="round"/>
<circle cx="5.43902" cy="5.43902" r="4.93902" transform="matrix(-0.99407 -0.10874 -0.10874 0.99407 246.093 278.414)" fill="#472121" stroke="black" stroke-linecap="round"/>
<path d="M252.674 298.284L247.14 293.848L242.274 293.316L240.728 302.449L243.727 300.041L248.238 303.817L246.667 298.174L252.674 298.284Z" fill="#472121" stroke="black" stroke-linecap="round" stroke-linejoin="round"/>
<circle cx="5.43902" cy="5.43902" r="4.93902" transform="matrix(-0.99407 -0.10874 -0.10874 0.99407 249.709 285.375)" fill="#472121" stroke="black" stroke-linecap="round"/>
<mask id="path-10-inside-1_90_288" fill="white">
<path d="M232.831 226.81C240.834 233.22 244.687 242.931 244.072 252.616C245.379 252.973 246.63 253.593 247.746 254.488C252.283 258.121 252.892 264.898 249.108 269.623C245.681 273.902 239.827 275.032 235.383 272.512C224.253 283.682 206.082 278.145 194.306 271.655C189.51 269.011 185.591 262.886 184.06 255.725C181.825 255.702 179.605 254.972 177.754 253.489C173.217 249.856 172.607 243.079 176.392 238.354C179.194 234.856 183.617 233.464 187.567 234.449C188.045 233.705 188.565 232.976 189.134 232.266C200.035 218.655 219.598 216.212 232.831 226.81Z"/>
</mask>
<path d="M232.831 226.81C240.834 233.22 244.687 242.931 244.072 252.616C245.379 252.973 246.63 253.593 247.746 254.488C252.283 258.121 252.892 264.898 249.108 269.623C245.681 273.902 239.827 275.032 235.383 272.512C224.253 283.682 206.082 278.145 194.306 271.655C189.51 269.011 185.591 262.886 184.06 255.725C181.825 255.702 179.605 254.972 177.754 253.489C173.217 249.856 172.607 243.079 176.392 238.354C179.194 234.856 183.617 233.464 187.567 234.449C188.045 233.705 188.565 232.976 189.134 232.266C200.035 218.655 219.598 216.212 232.831 226.81Z" fill="#E3E3E3"/>
<path d="M232.831 226.81L233.456 226.03L233.456 226.03L232.831 226.81ZM244.072 252.616L243.074 252.553L243.023 253.366L243.809 253.581L244.072 252.616ZM247.746 254.488L248.371 253.707L248.371 253.707L247.746 254.488ZM249.108 269.623L249.888 270.249L249.888 270.249L249.108 269.623ZM235.383 272.512L235.876 271.642L235.213 271.265L234.674 271.806L235.383 272.512ZM194.306 271.655L193.824 272.531L193.824 272.531L194.306 271.655ZM184.06 255.725L185.038 255.516L184.871 254.734L184.071 254.725L184.06 255.725ZM177.754 253.489L177.129 254.27L177.129 254.27L177.754 253.489ZM176.392 238.354L175.612 237.728L175.612 237.728L176.392 238.354ZM187.567 234.449L187.325 235.419L188.021 235.593L188.408 234.989L187.567 234.449ZM189.134 232.266L188.353 231.641L188.353 231.641L189.134 232.266ZM232.831 226.81L232.206 227.591C239.938 233.783 243.67 243.171 243.074 252.553L244.072 252.616L245.07 252.68C245.704 242.69 241.73 232.656 233.456 226.03L232.831 226.81ZM244.072 252.616L243.809 253.581C244.987 253.903 246.114 254.462 247.121 255.268L247.746 254.488L248.371 253.707C247.145 252.725 245.771 252.044 244.336 251.652L244.072 252.616ZM247.746 254.488L247.121 255.268C251.197 258.533 251.791 264.673 248.327 268.998L249.108 269.623L249.888 270.249C253.994 265.122 253.369 257.71 248.371 253.707L247.746 254.488ZM249.108 269.623L248.327 268.998C245.193 272.911 239.874 273.909 235.876 271.642L235.383 272.512L234.889 273.381C239.78 276.155 246.168 274.893 249.888 270.249L249.108 269.623ZM235.383 272.512L234.674 271.806C229.392 277.107 222.411 278.49 215.194 277.712C207.965 276.932 200.608 273.986 194.789 270.779L194.306 271.655L193.824 272.531C199.781 275.814 207.397 278.882 214.98 279.7C222.575 280.52 230.244 279.086 236.091 273.217L235.383 272.512ZM194.306 271.655L194.789 270.779C190.327 268.32 186.531 262.498 185.038 255.516L184.06 255.725L183.083 255.934C184.652 263.274 188.693 269.703 193.824 272.531L194.306 271.655ZM184.06 255.725L184.071 254.725C182.047 254.704 180.047 254.045 178.379 252.709L177.754 253.489L177.129 254.27C179.164 255.9 181.602 256.699 184.05 256.725L184.06 255.725ZM177.754 253.489L178.379 252.709C174.303 249.444 173.709 243.304 177.173 238.979L176.392 238.354L175.612 237.728C171.506 242.855 172.131 250.267 177.129 254.27L177.754 253.489ZM176.392 238.354L177.173 238.979C179.732 235.783 183.757 234.529 187.325 235.419L187.567 234.449L187.809 233.479C183.478 232.398 178.656 233.928 175.612 237.728L176.392 238.354ZM187.567 234.449L188.408 234.989C188.868 234.274 189.369 233.573 189.915 232.891L189.134 232.266L188.353 231.641C187.762 232.379 187.221 233.137 186.726 233.908L187.567 234.449ZM189.134 232.266L189.915 232.891C200.487 219.69 219.425 217.355 232.206 227.591L232.831 226.81L233.456 226.03C219.772 215.07 199.583 217.62 188.353 231.641L189.134 232.266Z" fill="black" mask="url(#path-10-inside-1_90_288)"/>
<path d="M191.713 230.335C188.057 227.747 195.388 225.083 199.511 224.075L215.161 222.063C215.453 222.025 215.75 222.052 216.03 222.143L233.404 227.747C233.517 227.783 233.624 227.828 233.728 227.885C236.365 229.342 241.513 233.486 242.182 239.139C242.648 243.073 240.205 243.003 237.696 241.882C236.225 241.225 234.248 242.625 232.677 242.982C231.214 243.314 229.074 242.226 227.175 240.875C225.974 240.02 224.225 240.634 223.067 241.547C220.465 243.597 216.136 240.964 213.317 238.488C212.672 237.922 211.754 237.787 210.943 238.07C206.17 239.739 202.967 236.888 201.429 234.355C200.953 233.57 200.085 233.053 199.169 232.999C197.282 232.889 194.437 232.263 191.713 230.335Z" fill="#472121" stroke="black" stroke-linecap="round"/>
<path d="M199.769 226.701C214.767 223.54 226.326 229.684 233.888 234.628C234.558 235.066 235.451 234.577 235.444 233.777C235.186 201.581 225.786 183.566 216.891 175.765C215.506 174.551 213.487 176.051 213.612 177.889C214.535 191.559 204.952 213.351 198.592 225.181C198.172 225.961 198.902 226.883 199.769 226.701Z" fill="#248B35" stroke="black" stroke-linecap="round"/>
<circle cx="215.237" cy="172.998" r="4.93902" transform="rotate(6.2427 215.237 172.998)" fill="#D51B1B" stroke="black" stroke-linecap="round"/>
<ellipse cx="3.76079" cy="3.67728" rx="3.76079" ry="3.67728" transform="matrix(0.776399 0.630241 -0.674496 0.738279 195.09 244.383)" fill="black"/>
<ellipse cx="3.76079" cy="3.67728" rx="3.76079" ry="3.67728" transform="matrix(0.776399 0.630241 -0.674496 0.738279 224.802 254.146)" fill="black"/>
<path d="M204.305 254.048C203.821 258.47 209.665 261.298 212.842 257.268" stroke="black" stroke-linecap="round" stroke-linejoin="round"/>
<path d="M85.4658 63.7363L85.6885 64.9648L86.376 63.9219L96.877 47.9961L93.1865 70.4932L93.0439 71.3643L93.8643 71.0391L108.41 65.2764L97.7148 82.3066L97.4062 82.7988L97.9375 83.0312L112.75 89.5L97.9375 95.9688L97.4062 96.2012L97.7148 96.6934L108.41 113.723L93.8643 107.961L93.0439 107.636L93.1865 108.507L96.877 131.003L86.376 115.078L85.6885 114.035L85.4658 115.264L81.5 137.189L77.5342 115.264L77.3115 114.035L76.624 115.078L66.1221 131.003L69.8135 108.507L69.9561 107.636L69.1357 107.961L54.5889 113.723L65.2852 96.6934L65.5938 96.2012L65.0625 95.9688L50.249 89.5L65.0625 83.0312L65.5938 82.7988L65.2852 82.3066L54.5889 65.2764L69.1357 71.0391L69.9561 71.3643L69.8135 70.4932L66.1221 47.9961L76.624 63.9219L77.3115 64.9648L77.5342 63.7363L81.5 41.8096L85.4658 63.7363Z" fill="#FF6666" stroke="black"/>
<path d="M168.028 158.5L168.237 159.301L168.849 158.744L178.009 150.407L174.521 164.221L174.364 164.839L175.002 164.843L186.535 164.913L177.145 173.634L176.75 174L177.145 174.366L186.535 183.086L175.002 183.157L174.364 183.161L174.521 183.779L178.009 197.592L168.849 189.256L168.237 188.699L168.028 189.5L164.5 203.021L160.972 189.5L160.763 188.699L160.151 189.256L150.99 197.592L154.479 183.779L154.636 183.161L153.998 183.157L142.464 183.086L151.855 174.366L152.25 174L151.855 173.634L142.464 164.913L153.998 164.843L154.636 164.839L154.479 164.221L150.99 150.407L160.151 158.744L160.763 159.301L160.972 158.5L164.5 144.978L168.028 158.5Z" fill="#FF0000" stroke="black"/>
<path d="M97.0283 260.5L97.2373 261.301L97.8486 260.744L107.009 252.407L103.521 266.221L103.364 266.839L104.002 266.843L115.535 266.913L106.145 275.634L105.75 276L106.145 276.366L115.535 285.086L104.002 285.157L103.364 285.161L103.521 285.779L107.009 299.592L97.8486 291.256L97.2373 290.699L97.0283 291.5L93.5 305.021L89.9717 291.5L89.7627 290.699L89.1514 291.256L79.9902 299.592L83.4795 285.779L83.6357 285.161L82.998 285.157L71.4639 285.086L80.8555 276.366L81.25 276L80.8555 275.634L71.4639 266.913L82.998 266.843L83.6357 266.839L83.4795 266.221L79.9902 252.407L89.1514 260.744L89.7627 261.301L89.9717 260.5L93.5 246.978L97.0283 260.5Z" fill="#FF6666" stroke="black"/>
</svg>
