<svg width="300" height="400" viewBox="0 0 300 400" fill="none" xmlns="http://www.w3.org/2000/svg">
<path d="M85.5 224.5C104.271 224.5 119.5 239.939 119.5 259C119.5 278.061 104.271 293.5 85.5 293.5C66.7291 293.5 51.5 278.061 51.5 259C51.5 239.939 66.7291 224.5 85.5 224.5Z" fill="#02FFCC" stroke="black"/>
<path d="M220 356.5C216.306 356.5 212.743 354.724 209.455 351.421C206.165 348.116 203.18 343.308 200.662 337.328C195.627 325.369 192.5 308.813 192.5 290.5C192.5 272.187 195.627 255.631 200.662 243.672C203.18 237.692 206.165 232.884 209.455 229.579C212.743 226.276 216.306 224.5 220 224.5C223.694 224.5 227.257 226.276 230.545 229.579C233.835 232.884 236.82 237.692 239.338 243.672C244.373 255.631 247.5 272.187 247.5 290.5C247.5 308.813 244.373 325.369 239.338 337.328C236.82 343.308 233.835 348.116 230.545 351.421C227.257 354.724 223.694 356.5 220 356.5Z" fill="#7BC88D" stroke="black"/>
<path d="M146.504 289.817C139.797 270.158 144.421 236.045 147.571 221.446L172.139 216.695C197.349 226.157 214.852 249.178 220.453 259.505L223.791 261.546C229.824 268.648 225.912 267.217 223.203 265.613C228.186 274.225 223.433 272.395 220.433 270.404C217.335 280.338 215.413 274.004 214.84 269.595C206.704 268.418 211.94 265.714 215.576 264.51C212.861 254.565 195.055 241.295 186.491 235.903L218.2 300.19C214.679 305.391 206.1 311.512 200.383 308.514C193.103 304.696 200.352 299.165 203.962 298.13L190.065 268.606L176.029 275.919L192.89 313.659L177.402 320.243C167.639 318.831 174.512 311.519 179.168 308.04L154.13 251.466C149.586 257.038 151.707 278.975 153.335 289.248L156.165 291.214C164.993 296.229 159.451 296.016 155.577 295.282C156.899 303.364 153.849 300.05 152.158 297.383C147.839 307.141 145.952 300.811 145.548 296.427C140.029 294.382 143.886 291.168 146.504 289.817Z" fill="#D51B1B" stroke="black" stroke-linecap="round" stroke-linejoin="round"/>
<mask id="path-4-inside-1_90_254" fill="white">
<path d="M158.521 152.949C170.409 154.669 180.066 162.188 185.197 172.334C186.73 171.918 188.361 171.802 190.02 172.042C196.76 173.017 201.4 179.499 200.384 186.52C199.465 192.869 194.236 197.484 188.259 197.587C183.811 215.919 163.511 225.311 144.808 222.604C136.021 221.333 129.077 217.605 124.342 212.067C122.59 212.673 120.685 212.884 118.742 212.603C112.002 211.628 107.362 205.146 108.377 198.126C109.126 192.953 112.736 188.931 117.28 187.562C117.36 186.526 117.475 185.475 117.629 184.41C120.555 164.19 138.863 150.105 158.521 152.949Z"/>
</mask>
<path d="M158.521 152.949C170.409 154.669 180.066 162.188 185.197 172.334C186.73 171.918 188.361 171.802 190.02 172.042C196.76 173.017 201.4 179.499 200.384 186.52C199.465 192.869 194.236 197.484 188.259 197.587C183.811 215.919 163.511 225.311 144.808 222.604C136.021 221.333 129.077 217.605 124.342 212.067C122.59 212.673 120.685 212.884 118.742 212.603C112.002 211.628 107.362 205.146 108.377 198.126C109.126 192.953 112.736 188.931 117.28 187.562C117.36 186.526 117.475 185.475 117.629 184.41C120.555 164.19 138.863 150.105 158.521 152.949Z" fill="#FFE8DD"/>
<path d="M158.521 152.949L158.664 151.959L158.664 151.959L158.521 152.949ZM185.197 172.334L184.305 172.785L184.673 173.512L185.459 173.299L185.197 172.334ZM190.02 172.042L190.163 171.052L190.163 171.052L190.02 172.042ZM200.384 186.52L201.374 186.663L201.374 186.663L200.384 186.52ZM188.259 197.587L188.242 196.587L187.469 196.601L187.287 197.351L188.259 197.587ZM144.808 222.604L144.665 223.594L144.665 223.594L144.808 222.604ZM124.342 212.067L125.102 211.417L124.66 210.899L124.016 211.122L124.342 212.067ZM118.742 212.603L118.599 213.592L118.599 213.592L118.742 212.603ZM108.377 198.126L107.388 197.982L107.388 197.982L108.377 198.126ZM117.28 187.562L117.568 188.52L118.224 188.322L118.277 187.64L117.28 187.562ZM117.629 184.41L116.639 184.266L116.639 184.266L117.629 184.41ZM158.521 152.949L158.377 153.939C169.922 155.609 179.311 162.911 184.305 172.785L185.197 172.334L186.09 171.883C180.821 161.465 170.895 153.729 158.664 151.959L158.521 152.949ZM185.197 172.334L185.459 173.299C186.863 172.918 188.357 172.812 189.877 173.032L190.02 172.042L190.163 171.052C188.366 170.792 186.596 170.918 184.935 171.369L185.197 172.334ZM190.02 172.042L189.877 173.032C196.032 173.922 200.337 179.864 199.394 186.377L200.384 186.52L201.374 186.663C202.463 179.135 197.488 172.112 190.163 171.052L190.02 172.042ZM200.384 186.52L199.394 186.377C198.543 192.262 193.706 196.493 188.242 196.587L188.259 197.587L188.276 198.587C194.765 198.475 200.388 193.475 201.374 186.663L200.384 186.52ZM188.259 197.587L187.287 197.351C183.001 215.017 163.33 224.274 144.951 221.615L144.808 222.604L144.665 223.594C163.691 226.347 184.621 216.821 189.231 197.823L188.259 197.587ZM144.808 222.604L144.951 221.615C136.37 220.373 129.658 216.746 125.102 211.417L124.342 212.067L123.582 212.717C128.495 218.464 135.673 222.293 144.665 223.594L144.808 222.604ZM124.342 212.067L124.016 211.122C122.408 211.678 120.665 211.87 118.885 211.613L118.742 212.603L118.599 213.592C120.706 213.897 122.772 213.668 124.669 213.012L124.342 212.067ZM118.742 212.603L118.885 211.613C112.73 210.722 108.425 204.781 109.367 198.269L108.377 198.126L107.388 197.982C106.298 205.511 111.275 212.533 118.599 213.592L118.742 212.603ZM108.377 198.126L109.367 198.269C110.06 193.478 113.399 189.776 117.568 188.52L117.28 187.562L116.991 186.605C112.072 188.087 108.191 192.428 107.388 197.982L108.377 198.126ZM117.28 187.562L118.277 187.64C118.355 186.625 118.468 185.595 118.619 184.553L117.629 184.41L116.639 184.266C116.482 185.354 116.365 186.427 116.283 187.485L117.28 187.562ZM117.629 184.41L118.619 184.553C121.469 164.854 139.292 151.177 158.377 153.939L158.521 152.949L158.664 151.959C138.433 149.032 119.64 163.527 116.639 184.266L117.629 184.41Z" fill="black" mask="url(#path-4-inside-1_90_254)"/>
<path d="M120.7 173.952C118.961 171.624 126.144 163.838 129.953 160.236C137.95 157.586 156.196 152.509 165.204 153.397C174.213 154.285 178.731 160.372 179.864 163.305C178.528 165.361 173.388 168.597 163.512 165.092C153.637 161.587 152.712 164.394 153.483 166.236C158.001 175.196 150.558 176.888 146.271 176.614C150.291 171.796 147.134 168.259 145.053 167.093C143.093 166.29 138.254 166.006 134.583 171.289C130.911 176.572 123.798 175.265 120.7 173.952Z" fill="#D1BC81" stroke="black" stroke-linecap="round" stroke-linejoin="round"/>
<path d="M170.065 157.294C155.783 153.005 138.968 158.359 130.673 162.365C129.952 162.713 129.112 162.131 129.205 161.337C132.751 131.111 148.203 114.466 158.673 107.83C160.229 106.844 162.112 108.589 161.824 110.408C159.804 123.153 166.593 144.213 171.394 155.876C171.731 156.695 170.914 157.548 170.065 157.294Z" fill="#D51B1B" stroke="black" stroke-linecap="round"/>
<circle cx="163.447" cy="106.801" r="6.69285" transform="rotate(8.23295 163.447 106.801)" fill="#248B35" stroke="black" stroke-linecap="round"/>
<circle cx="134.905" cy="194.177" r="4.1102" transform="rotate(8.23295 134.905 194.177)" fill="black"/>
<circle cx="168.197" cy="186.535" r="4.1102" transform="rotate(8.23295 168.197 186.535)" fill="black"/>
<path d="M143.651 194.06C146.84 196.627 152.894 199.275 155.5 191.103" stroke="black" stroke-linecap="round" stroke-linejoin="round"/>
<path d="M206.5 64.5C219.245 64.5 229.5 73.943 229.5 85.5C229.5 97.057 219.245 106.5 206.5 106.5C193.755 106.5 183.5 97.057 183.5 85.5C183.5 73.943 193.755 64.5 206.5 64.5Z" fill="#7BC88D" stroke="black"/>
</svg>
