<svg width="300" height="400" viewBox="0 0 300 400" fill="none" xmlns="http://www.w3.org/2000/svg">
<g clip-path="url(#clip0_90_139)">
<path d="M133.87 298.5H178.214C182.988 298.5 187.02 302.043 187.635 306.777L198.539 390.777C199.277 396.462 194.85 401.5 189.118 401.5H123.773C118.077 401.5 113.662 396.522 114.342 390.866L124.438 306.866C124.993 302.241 128.812 298.726 133.422 298.511L133.87 298.5Z" fill="#564631" stroke="black"/>
<path d="M35.9799 291.625C29.6126 271.875 55.8201 245.954 70.0279 235.207C70.2447 235.043 70.4188 234.844 70.5541 234.608L80.0299 218.098C80.4145 217.427 81.1509 217.039 81.9213 217.099L238.163 229.391C238.551 229.421 238.936 229.575 239.243 229.814C296.432 274.247 274.509 300.092 255.638 307.872C255.102 308.093 254.679 308.54 254.473 309.082C246.098 331.139 231.164 326.438 222.812 319.944C221.654 319.044 219.874 319.496 219.287 320.84C210.812 340.237 192.077 333.206 182.016 326.053C181.081 325.388 179.773 325.59 179.072 326.498C164.967 344.766 150.061 335.411 142.923 326.806C142.096 325.809 140.555 325.737 139.646 326.659C124.229 342.295 110.31 330.345 103.892 320.358C103.137 319.184 101.441 319.011 100.457 320.001C83.8792 336.672 70.0719 321.441 64.3151 309.978C63.8254 309.003 62.6738 308.559 61.6258 308.862C54.5284 310.915 41.8423 309.809 35.9799 291.625Z" fill="#1F2F21" stroke="black"/>
<path d="M54.8457 231.297C49.3566 214.035 71.9176 191.386 84.1894 181.963C84.4047 181.798 84.5776 181.598 84.7113 181.362L92.7794 167.11C93.1625 166.433 93.9035 166.04 94.6788 166.101L229.257 176.835C229.648 176.866 230.036 177.023 230.345 177.266C279.502 216.022 260.793 238.604 244.54 245.466C244.005 245.691 243.585 246.138 243.38 246.681C236.262 265.543 223.708 261.876 216.452 256.353C215.277 255.459 213.481 255.914 212.876 257.261C205.553 273.574 189.81 267.747 181.139 261.603C180.195 260.934 178.874 261.127 178.166 262.043C166.196 277.52 153.593 269.772 147.377 262.361C146.538 261.36 144.975 261.293 144.054 262.22C131.027 275.32 119.276 265.389 113.68 256.783C112.913 255.604 111.193 255.434 110.196 256.425C96.1359 270.413 84.4263 257.529 79.4224 247.599C78.9278 246.618 77.7639 246.168 76.7039 246.457C70.5305 248.144 59.8302 246.971 54.8457 231.297Z" fill="#195222" stroke="black"/>
<path d="M94.6437 127.101C75.9107 110.837 129.344 84.1524 159.93 72.2719C160.391 72.0928 160.91 72.1059 161.372 72.2834C240.157 102.573 236.574 120.888 223.186 127.403C221.923 128.017 221.509 129.716 222.408 130.796C270.219 188.244 245.425 198.148 225.864 195.838C225.18 195.757 224.495 196.027 224.033 196.537C211.309 210.575 194.278 203.443 185.812 197.036C184.89 196.338 183.561 196.487 182.818 197.374C168.54 214.424 151.186 205.232 142.846 197.183C142.028 196.393 140.717 196.375 139.878 197.142C121.344 214.072 104.134 201.565 97.1074 192.265C96.7155 191.747 96.0711 191.432 95.4211 191.422C51.9397 190.789 76.03 151.514 94.9479 130.232C95.7594 129.319 95.5661 127.902 94.6437 127.101Z" fill="#248B35" stroke="black"/>
<path d="M159.874 36.3828C160.851 34.8043 163.149 34.8043 164.126 36.3828L173.253 51.123C173.773 51.9632 174.625 52.5451 175.597 52.7236L193.348 55.9834C195.335 56.3483 196.091 58.7973 194.655 60.2188L182.729 72.0273C181.956 72.7932 181.583 73.8752 181.72 74.9551L183.775 91.1436C184.017 93.0497 182.108 94.5051 180.334 93.7666L163.346 86.6895C162.484 86.3306 161.516 86.3306 160.654 86.6895L143.666 93.7666C141.892 94.5051 139.983 93.0497 140.225 91.1436L142.28 74.9551C142.417 73.8752 142.044 72.7932 141.271 72.0273L129.345 60.2188C127.909 58.7973 128.665 56.3483 130.652 55.9834L148.403 52.7236C149.375 52.5451 150.227 51.9632 150.747 51.123L159.874 36.3828Z" fill="#FFDD44" stroke="black"/>
<path d="M139.67 175.859C146.753 175.859 153.243 180.499 157.988 188.164C162.729 195.822 165.678 206.433 165.678 218.18C165.678 229.926 162.729 240.537 157.988 248.195C153.243 255.861 146.753 260.5 139.67 260.5C134.369 260.5 127.376 258.179 121.955 251.757C116.537 245.339 112.647 234.772 113.661 218.21C114.38 206.465 117.332 195.843 121.897 188.174C126.466 180.499 132.596 175.859 139.67 175.859Z" fill="white" stroke="black"/>
<path d="M195.842 174.5C202.921 174.5 209.411 179.211 214.158 187.001C218.9 194.782 221.85 205.564 221.85 217.5C221.85 229.467 219.816 240.248 215.539 248.018C211.275 255.764 204.8 260.5 195.842 260.5C190.344 260.5 185.994 258.837 182.548 256.105C179.095 253.368 176.526 249.536 174.636 245.169C170.852 236.425 169.834 225.629 169.834 217.5C169.834 205.564 172.784 194.782 177.525 187.001C182.273 179.211 188.763 174.5 195.842 174.5Z" fill="white" stroke="black"/>
<path d="M152.584 229.055C152.584 239.19 150.545 247.406 144.428 247.406C138.31 247.406 136.271 239.19 136.271 229.055C136.271 218.919 139.923 210.703 144.428 210.703C148.932 210.703 152.584 218.919 152.584 229.055Z" fill="black"/>
<path d="M201.312 229.352C201.312 239.487 198.594 247.703 193.156 247.703C187.719 247.703 185 239.487 185 229.352C185 219.216 188.652 211 193.156 211C197.661 211 201.312 219.216 201.312 229.352Z" fill="black"/>
<path d="M167.389 273.5C171.812 273.5 175.044 272.732 177.518 271.394C179.969 270.068 181.717 268.159 183.152 265.795C183.719 263.913 183.55 262.594 182.952 261.641C182.338 260.662 181.206 259.962 179.636 259.478C176.481 258.505 171.899 258.5 167.389 258.5C162.877 258.5 158.545 258.506 155.516 259.477C154.014 259.958 152.898 260.657 152.232 261.652C151.584 262.622 151.313 263.95 151.639 265.811C153.074 267.954 154.822 269.855 157.268 271.23C159.746 272.625 162.976 273.5 167.389 273.5Z" fill="#DA3232" stroke="black"/>
</g>
<defs>
<clipPath id="clip0_90_139">
<rect width="300" height="400" fill="white"/>
</clipPath>
</defs>
</svg>
