<svg width="300" height="400" viewBox="0 0 300 400" fill="none" xmlns="http://www.w3.org/2000/svg">
<g clip-path="url(#clip0_90_313)">
<path d="M101.743 297.098L103.428 289.434C103.669 288.34 104.091 287.294 104.679 286.339L109.066 279.21C110.826 276.35 113.904 274.565 117.26 274.456L184.559 272.282C189.551 272.12 193.897 275.668 194.739 280.591L196.847 292.927C197.154 294.722 197.946 296.4 199.137 297.778L202.078 301.184C203.647 303.001 204.511 305.321 204.511 307.721V311.626C204.511 312.673 204.347 313.712 204.024 314.708L203.47 316.419C202.435 319.613 203.072 323.113 205.166 325.737L205.925 326.688C207.338 328.46 208.108 330.659 208.108 332.925V338.492C208.108 339.167 208.176 339.84 208.312 340.501L209.916 348.32C210.206 349.734 210.186 351.194 209.859 352.599L208.566 358.144C208.264 359.441 208.224 360.786 208.448 362.099L210.213 372.424C210.308 372.98 210.356 373.544 210.356 374.109V383.901C210.356 385.826 210.912 387.709 211.956 389.326L215.192 394.338C216.953 397.064 217.281 400.476 216.072 403.488L214.363 407.747C214.091 408.425 213.894 409.131 213.775 409.852L212.155 419.726L211.668 422.216C210.877 426.264 207.681 429.412 203.621 430.141L194.147 431.843C193.563 431.947 192.972 432 192.379 432H178.447C177.838 432 177.231 431.944 176.633 431.834L166.105 429.892C162.846 429.291 160.097 427.116 158.764 424.082L156.346 418.581C155.788 417.312 155.5 415.942 155.5 414.557V406.695C155.5 405.744 155.364 404.797 155.096 403.883L153.753 399.301C153.136 397.195 153.229 394.946 154.016 392.898L154.229 392.345C155.051 390.207 155.115 387.852 154.409 385.673L153.289 382.215C152.966 381.219 152.802 380.179 152.802 379.133V371.047C152.802 370.772 152.746 370.5 152.638 370.247L152.551 370.042C151.848 368.398 149.488 368.486 148.91 370.178C148.808 370.475 148.78 370.792 148.827 371.103L150.081 379.356C150.389 381.38 150.068 383.45 149.161 385.286L146.613 390.444C145.397 392.907 145.247 395.761 146.199 398.337L147.185 401.008C148.183 403.71 147.967 406.712 146.592 409.244L145.921 410.48C145.125 411.945 144.709 413.585 144.709 415.252V416.577C144.709 421.438 141.213 425.595 136.424 426.429L132.119 427.178L121.69 428.742C120.852 428.868 120.002 428.887 119.159 428.798L108.227 427.646C105.404 427.348 102.84 425.865 101.176 423.565L100.296 422.35C99.0607 420.645 98.3957 418.592 98.3957 416.486V415.041C98.3957 413.509 98.0438 411.998 97.3672 410.623L94.5751 404.953C93.572 402.915 93.4752 400.549 94.3086 398.436C94.92 396.887 95.036 395.186 94.6408 393.568L93.7218 389.805C93.2513 387.878 93.3643 385.855 94.0465 383.993L94.2394 383.466C94.8981 381.668 95.0267 379.719 94.6099 377.85L93.6837 373.696C93.2386 371.7 93.4162 369.616 94.1924 367.724L96.9306 361.05C97.8734 358.752 97.9273 356.186 97.0818 353.85L94.3139 346.204C93.4683 343.869 93.5223 341.302 94.4651 339.005L97.214 332.305C97.9836 330.429 98.1649 328.364 97.7338 326.383L95.4768 316.01C95.3248 315.311 95.2482 314.598 95.2482 313.884V308.025C95.2482 305.508 96.4983 303.156 98.5841 301.748C100.195 300.661 101.326 298.996 101.743 297.098Z" fill="white" stroke="black" stroke-linecap="round" stroke-linejoin="round"/>
<path d="M96.7641 283.973L106.179 286.714C106.734 286.876 107.275 287.085 107.793 287.34L113.493 290.14C113.968 290.374 114.461 290.569 114.967 290.724L127.16 294.468C128.111 294.76 129.1 294.908 130.095 294.908H135.852C137.291 294.908 138.712 295.218 140.02 295.818L141.679 296.579C143.647 297.481 145.911 297.481 147.879 296.579L148.063 296.494C150.223 295.504 152.736 295.666 154.751 296.926C155.873 297.628 157.171 298 158.495 298H163.662H172.827C174.186 298 175.523 297.644 176.703 296.968C178.95 295.68 181.69 295.593 184.015 296.735L184.841 297.14C185.993 297.706 187.258 298 188.541 298H192.622C195.002 298 196.932 296.07 196.932 293.69C196.932 291.79 198.176 290.115 199.994 289.565L205.198 287.992C207.231 287.377 208.621 285.505 208.621 283.381C208.621 280.721 210.778 278.564 213.438 278.564H215.062C217.217 278.564 219.23 277.486 220.424 275.692L225.081 268.694C225.789 267.631 226.722 266.737 227.814 266.077C230.412 264.506 232 261.691 232 258.655V253.932C232 252.696 231.771 251.47 231.324 250.317L229.692 246.108C228.858 243.959 228.793 241.588 229.507 239.396L231.508 233.252C231.834 232.252 232 231.207 232 230.155V223.812C232 222.062 231.541 220.343 230.668 218.826L227.184 212.769C226.51 211.598 226.155 210.27 226.155 208.919V208.832C226.155 206.816 225.345 204.885 223.907 203.472C222.469 202.06 221.659 200.128 221.659 198.112V193.722C221.659 190.927 220.49 188.26 218.434 186.367L215.36 183.535C214.766 182.988 214.241 182.371 213.795 181.698L210.31 176.43C209.256 174.836 207.472 173.877 205.561 173.877C203.804 173.877 202.146 173.067 201.067 171.68L198.765 168.723C197.569 167.187 195.95 166.033 194.108 165.403L187.937 163.294C187.045 162.989 186.199 162.559 185.427 162.017L182.883 160.232C181.2 159.051 179.194 158.417 177.138 158.417H176.796C175.545 158.417 174.304 158.182 173.139 157.724L167.184 155.384C164.914 154.492 162.398 154.46 160.107 155.294L155.311 157.039C152.927 157.906 150.273 157.599 148.151 156.209C146.029 154.819 143.375 154.511 140.991 155.378L132.64 158.417L125.734 161.81C124.362 162.484 122.854 162.834 121.325 162.834H118.675C115.832 162.834 113.123 164.045 111.226 166.162L107.297 170.549C105.4 172.667 102.691 173.877 99.8481 173.877H96.6525C93.2964 173.877 90.1642 175.561 88.3125 178.36L85.4332 182.712L80.0785 190.274C78.8822 191.964 78.2398 193.983 78.2398 196.053V199.265C78.2398 200.585 77.9787 201.891 77.4715 203.109L74.9618 209.136C74.4546 210.354 74.1935 211.661 74.1935 212.98V218.602C74.1935 220.268 73.777 221.908 72.9821 223.373L69.7023 229.415C68.075 232.412 68.4663 236.103 70.6861 238.693L71.0406 239.107C72.9554 241.341 73.3637 244.497 72.0804 247.145C70.6641 250.067 71.3197 253.571 73.6967 255.784L75.0723 257.064C77.0924 258.944 78.2398 261.58 78.2398 264.339V265.14C78.2398 268.054 79.511 270.823 81.7208 272.723L85.4332 275.914L93.3345 282.198C94.3515 283.007 95.5165 283.61 96.7641 283.973Z" fill="white" stroke="black" stroke-linecap="round" stroke-linejoin="round"/>
<path d="M143 249.924C147.091 250.375 154.909 249.022 153.455 240C153.758 243.308 156.091 249.924 163 249.924" stroke="black" stroke-linecap="round" stroke-linejoin="round"/>
<path d="M128.512 161.219C131.686 145.862 141.312 113.07 154.422 104.752C167.533 96.4353 178.118 119.837 182.547 130.641C182.252 132.612 181.528 135.248 178.34 134.107C175.377 133.046 169.734 128.677 167.496 125.611C173.517 135.001 176.317 153.065 176.125 162.238L128.512 161.219Z" fill="#D51B1B"/>
<path d="M163.945 120.245C164.627 121.076 166.485 123.74 167.045 124.934M167.045 124.934C173.378 134.107 176.321 152.839 176.125 162.238L128.512 161.219C131.686 145.862 141.312 113.07 154.422 104.752C167.533 96.4353 178.118 119.837 182.547 130.641C182.252 132.612 181.528 135.248 178.34 134.107C175.151 132.965 168.858 127.991 167.045 124.934Z" stroke="black" stroke-linecap="round"/>
<path d="M126.804 157.262L126.115 158.261C125.38 159.327 123.967 159.681 122.818 159.087C121.313 158.309 119.478 159.178 119.123 160.836L118.802 162.339C118.449 163.988 119.243 165.668 120.741 166.439L125.623 168.953C127.34 169.836 129.449 169.284 130.516 167.672C131.77 165.778 134.395 165.402 136.124 166.87L136.807 167.45C138.226 168.654 140.234 168.878 141.888 168.016L143.371 167.242C145.473 166.145 148.031 166.453 149.808 168.016C151.665 169.649 154.363 169.904 156.499 168.649L158.597 167.416C160.481 166.309 162.854 166.493 164.54 167.877L165.251 168.46C166.937 169.844 169.404 169.706 170.931 168.143C172.326 166.715 174.53 166.46 176.209 167.533L177.016 168.049C178.744 169.154 180.952 169.178 182.709 168.113L184.316 167.138C185.741 166.273 186.455 164.596 186.089 162.972L185.757 161.503C185.377 159.817 183.522 158.931 181.968 159.694C180.801 160.267 179.393 159.921 178.627 158.872L177.795 157.732C176.551 156.028 174.264 155.462 172.364 156.387L170.281 157.402C168.014 158.507 165.335 158.335 163.233 156.949L162.313 156.343C160.021 154.832 157.063 154.772 154.705 156.189L153.47 156.931C151.423 158.16 148.808 157.863 147.096 156.205L146.984 156.096C144.982 154.158 141.793 154.187 139.819 156.161C138.205 157.774 135.721 158.126 133.729 157.023L131.963 156.045C130.189 155.063 127.957 155.59 126.804 157.262Z" fill="white" stroke="black" stroke-linecap="round"/>
<path d="M178.543 129.03L177.228 130.092C176.32 130.826 175.793 131.931 175.793 133.098C175.793 134.939 177.092 136.525 178.898 136.886L180.188 137.144C181.734 137.454 183.339 137.081 184.59 136.121L185.957 135.072C186.849 134.387 187.372 133.327 187.372 132.203C187.372 130.91 186.681 129.715 185.56 129.07L184.654 128.549C182.713 127.432 180.285 127.623 178.543 129.03Z" fill="white" stroke="black" stroke-linecap="round"/>
<path d="M162 236C162 238.761 157.59 242 154 242C150.41 242 147 238.761 147 236C147 233.239 151.91 232 155.5 232C159.09 232 162 233.239 162 236Z" fill="black"/>
<circle cx="118" cy="230" r="7" fill="black"/>
<circle cx="189.5" cy="229.5" r="6.5" fill="black"/>
</g>
<defs>
<clipPath id="clip0_90_313">
<rect width="300" height="400" fill="white"/>
</clipPath>
</defs>
</svg>
