<svg width="300" height="400" viewBox="0 0 300 400" fill="none" xmlns="http://www.w3.org/2000/svg">
<g clip-path="url(#clip0_90_226)">
<path d="M227.5 142L240.5 191.5C276 232 273 274 227.5 306C259.1 336.8 270.833 432.333 271.5 449L41 427C48.6 375.8 65.5 313 107 306C95 299.6 82.6667 277.667 78 267.5C64.8 229.1 78.1667 198.5 86.5 188L114 142L135.5 182C161.5 165.5 183 172.167 193 176L227.5 142Z" fill="black" stroke="black" stroke-linecap="round" stroke-linejoin="round"/>
<path d="M212.5 249C201.333 247.334 174 282 174 234C165 284 149.7 249 126.5 249" stroke="#CD2323" stroke-linecap="round" stroke-linejoin="round"/>
<path d="M165.474 227.5H183.841C185.865 227.5 186.609 230.162 184.878 231.211L175.553 236.862C174.907 237.253 174.096 237.248 173.456 236.848L164.414 231.196C162.71 230.131 163.464 227.5 165.474 227.5Z" fill="#CD2323"/>
<path d="M237.5 217.5C230.167 206.5 210 199.8 188 223C198.5 248 231.5 239.5 237.5 217.5Z" fill="white"/>
<path d="M157 223C149.333 212.334 125.5 194.9 101.5 220.5C109 232 131.5 255 157 223Z" fill="white"/>
<path d="M237.5 217.5C230.167 206.5 210 199.8 188 223C198.5 248 231.5 239.5 237.5 217.5Z" stroke="black" stroke-linecap="round" stroke-linejoin="round"/>
<path d="M157 223C149.333 212.334 125.5 194.9 101.5 220.5C109 232 131.5 255 157 223Z" stroke="black" stroke-linecap="round" stroke-linejoin="round"/>
<path d="M213.5 207.5C217 215.5 221.5 232.9 211.5 238.5C208.167 231.834 203.9 216.3 213.5 207.5Z" fill="#23AD73"/>
<path d="M124.5 207.5C129.667 213.834 138.9 229.3 126.5 238.5C123.667 234.167 113.5 218.5 124.5 207.5Z" fill="#23AD73"/>
<path d="M213.5 207.5C217 215.5 221.5 232.9 211.5 238.5C208.167 231.834 203.9 216.3 213.5 207.5Z" stroke="black" stroke-linecap="round" stroke-linejoin="round"/>
<path d="M124.5 207.5C129.667 213.834 138.9 229.3 126.5 238.5C123.667 234.167 113.5 218.5 124.5 207.5Z" stroke="black" stroke-linecap="round" stroke-linejoin="round"/>
<path d="M203 180.5L229 186.5L222.5 157.5L203 180.5Z" fill="#CD2323"/>
<path d="M113.5 157.5L124 180.5L96.5 186.5L113.5 157.5Z" fill="#CD2323"/>
<path d="M203 180.5L229 186.5L222.5 157.5L203 180.5Z" stroke="black" stroke-linecap="round" stroke-linejoin="round"/>
<path d="M113.5 157.5L124 180.5L96.5 186.5L113.5 157.5Z" stroke="black" stroke-linecap="round" stroke-linejoin="round"/>
<path d="M113 246L52 232.5M113 246L52 252.5M113 246L65.5 271.5" stroke="#CD2323" stroke-linecap="round" stroke-linejoin="round"/>
<path d="M225 243L286 229.5M225 243L286 249.5M225 243L272.5 268.5" stroke="#CD2323" stroke-linecap="round" stroke-linejoin="round"/>
<path d="M163.874 126.383C164.851 124.804 167.149 124.804 168.126 126.383L177.253 141.123C177.773 141.963 178.625 142.545 179.597 142.724L197.348 145.983C199.335 146.348 200.091 148.797 198.655 150.219L186.729 162.027C185.956 162.793 185.583 163.875 185.72 164.955L187.775 181.144C188.017 183.05 186.108 184.505 184.334 183.767L167.346 176.689C166.484 176.331 165.516 176.331 164.654 176.689L147.666 183.767C145.892 184.505 143.983 183.05 144.225 181.144L146.28 164.955C146.417 163.875 146.044 162.793 145.271 162.027L133.345 150.219C131.909 148.797 132.665 146.348 134.652 145.983L152.403 142.724C153.375 142.545 154.227 141.963 154.747 141.123L163.874 126.383Z" fill="#FFDD44" stroke="black"/>
</g>
<defs>
<clipPath id="clip0_90_226">
<rect width="300" height="400" fill="white" transform="matrix(-1 0 0 1 300 0)"/>
</clipPath>
</defs>
</svg>
