<svg width="300" height="400" viewBox="0 0 300 400" fill="none" xmlns="http://www.w3.org/2000/svg">
<g clip-path="url(#clip0_90_209)">
<path d="M88.5 142L75.5 191.5C40 232 43 274 88.5 306C56.9 336.8 46.1667 411.333 45.5 428L282 419.5C274.4 368.3 226 314.167 209 306C221 299.6 233.333 277.667 238 267.5C251.2 229.1 237.833 198.5 229.5 188L202 142L180.5 182C154.5 165.5 133 172.167 123 176L88.5 142Z" fill="#ECD3A5" stroke="black" stroke-linecap="round" stroke-linejoin="round"/>
<path d="M187.929 312.777C195.789 310.805 206.699 310.309 214.91 310.461L216.516 310.5L216.594 310.509L216.997 310.585C230.949 319.732 250.203 337.923 261.533 365.467L261.478 365.648C261.432 365.796 261.32 365.915 261.175 365.969C261.03 366.023 260.868 366.006 260.736 365.925L242.335 354.486C240.848 354.333 239.11 354.3 237.438 354.493C235.716 354.692 234.104 355.125 232.902 355.874C231.719 356.612 230.947 357.646 230.825 359.095C230.701 360.576 231.25 362.576 232.923 365.233C233.796 366.621 234.251 367.837 234.292 368.897C234.334 369.983 233.941 370.869 233.209 371.548C232.495 372.21 231.482 372.655 230.3 372.946C229.112 373.239 227.713 373.387 226.188 373.425C220.1 373.577 211.721 371.987 205.876 370.484C205.866 370.482 205.855 370.479 205.845 370.476C201.987 369.217 196.807 366.783 193.95 363.543C192.513 361.913 191.617 360.025 191.854 357.948C192.089 355.877 193.437 353.749 196.193 351.605C197.866 350.304 199.068 349.182 199.875 348.188C200.682 347.193 201.072 346.353 201.169 345.614C201.358 344.173 200.456 342.848 198.491 341.195C197.524 340.382 196.34 339.521 194.984 338.555C193.633 337.591 192.117 336.525 190.505 335.313C187.278 332.887 183.655 329.864 180.124 325.829C178.69 324.19 177.879 322.671 177.654 321.26C177.426 319.828 177.81 318.556 178.661 317.458C179.5 316.375 180.785 315.468 182.356 314.705C183.932 313.94 185.829 313.304 187.929 312.777ZM123 176C125.939 174.873 129.871 173.503 134.618 172.547C135.373 177.925 135.857 183.856 135.625 189.146C135.436 193.441 134.776 197.367 133.371 200.235C131.954 203.128 129.745 205 126.5 205C118.991 205 117.102 205.257 114.657 206.449C112.158 207.668 108.951 209.958 99.1904 213.963C95.2074 215.597 92.6542 215.267 90.9609 213.813C89.3374 212.42 88.6534 210.091 88.1064 208.161C87.8241 207.165 87.5807 206.275 87.2754 205.572C86.9651 204.858 86.642 204.464 86.2803 204.315C85.9412 204.176 85.4047 204.19 84.4961 204.72C83.5987 205.243 82.4303 206.218 80.8955 207.811C78.6854 211.352 75.9738 215.323 73.1631 218.744C70.3525 222.165 67.3978 225.093 64.7139 226.458C63.3671 227.143 62.0304 227.464 60.7891 227.192C59.5296 226.917 58.4699 226.054 57.6445 224.587C57.1593 223.724 56.7506 222.642 56.4199 221.322C60.4378 211.404 66.8163 201.407 75.5 191.5L88.5 142L123 176Z" fill="#846346"/>
<path d="M187.929 312.777L187.807 312.292L187.929 312.777ZM214.91 310.461L214.922 309.961L214.919 309.961L214.91 310.461ZM216.516 310.5L216.572 310.003C216.557 310.001 216.542 310.001 216.528 310L216.516 310.5ZM216.594 310.509L216.687 310.017C216.674 310.015 216.662 310.013 216.65 310.012L216.594 310.509ZM216.997 310.585L217.271 310.167C217.216 310.131 217.155 310.106 217.09 310.094L216.997 310.585ZM261.533 365.467L262.011 365.613C262.045 365.503 262.04 365.384 261.996 365.277L261.533 365.467ZM261.478 365.648L261.955 365.797L261.956 365.795L261.478 365.648ZM261.175 365.969L261.349 366.437L261.35 366.437L261.175 365.969ZM260.736 365.925L260.472 366.349L260.473 366.35L260.736 365.925ZM242.335 354.486L242.599 354.062C242.534 354.022 242.462 353.997 242.386 353.989L242.335 354.486ZM237.438 354.493L237.38 353.996L237.438 354.493ZM232.902 355.874L232.638 355.45L232.638 355.45L232.902 355.874ZM230.825 359.095L230.327 359.053V359.053L230.825 359.095ZM232.923 365.233L232.5 365.5H232.5L232.923 365.233ZM234.292 368.897L234.792 368.878V368.878L234.292 368.897ZM233.209 371.548L233.549 371.915L233.549 371.915L233.209 371.548ZM230.3 372.946L230.42 373.432H230.42L230.3 372.946ZM226.188 373.425L226.2 373.925L226.188 373.425ZM205.876 370.484L205.751 370.969H205.751L205.876 370.484ZM205.845 370.476L205.69 370.951L205.69 370.951L205.845 370.476ZM193.95 363.543L193.575 363.874H193.575L193.95 363.543ZM191.854 357.948L191.357 357.892V357.892L191.854 357.948ZM196.193 351.605L196.5 352V352L196.193 351.605ZM199.875 348.188L200.263 348.503L200.263 348.503L199.875 348.188ZM201.169 345.614L201.665 345.679L201.665 345.679L201.169 345.614ZM198.491 341.195L198.813 340.813V340.813L198.491 341.195ZM194.984 338.555L195.275 338.148L194.984 338.555ZM190.505 335.313L190.204 335.713L190.505 335.313ZM180.124 325.829L179.748 326.158L180.124 325.829ZM177.654 321.26L177.161 321.338L177.161 321.338L177.654 321.26ZM178.661 317.458L178.266 317.152L178.266 317.152L178.661 317.458ZM182.356 314.705L182.138 314.255L182.138 314.255L182.356 314.705ZM123 176L122.649 176.356C122.789 176.494 122.996 176.537 123.179 176.467L123 176ZM134.618 172.547L135.113 172.477C135.094 172.341 135.02 172.218 134.907 172.139C134.795 172.059 134.654 172.03 134.519 172.057L134.618 172.547ZM135.625 189.146L136.125 189.168V189.168L135.625 189.146ZM133.371 200.235L133.82 200.455L133.82 200.455L133.371 200.235ZM126.5 205V205.5H126.5L126.5 205ZM114.657 206.449L114.438 206L114.438 206L114.657 206.449ZM99.1904 213.963L99.3802 214.425H99.3802L99.1904 213.963ZM90.9609 213.813L90.6353 214.193L90.6353 214.193L90.9609 213.813ZM88.1064 208.161L87.6254 208.297V208.297L88.1064 208.161ZM87.2754 205.572L87.734 205.373L87.7339 205.373L87.2754 205.572ZM86.2803 204.315L86.4705 203.853L86.4704 203.853L86.2803 204.315ZM84.4961 204.72L84.2443 204.288L84.2443 204.288L84.4961 204.72ZM80.8955 207.811L80.5355 207.464C80.5113 207.489 80.4898 207.516 80.4713 207.546L80.8955 207.811ZM73.1631 218.744L73.5494 219.062H73.5494L73.1631 218.744ZM64.7139 226.458L64.9405 226.904L64.9405 226.904L64.7139 226.458ZM60.7891 227.192L60.6822 227.681L60.6823 227.681L60.7891 227.192ZM57.6445 224.587L57.2087 224.832L57.2087 224.832L57.6445 224.587ZM56.4199 221.322L55.9565 221.135C55.9167 221.233 55.9092 221.341 55.9349 221.444L56.4199 221.322ZM75.5 191.5L75.876 191.83C75.9271 191.771 75.9639 191.702 75.9836 191.627L75.5 191.5ZM88.5 142L88.851 141.644C88.7239 141.519 88.5397 141.471 88.3676 141.518C88.1956 141.565 88.0617 141.7 88.0164 141.873L88.5 142ZM187.929 312.777L188.05 313.262C195.846 311.306 206.703 310.809 214.901 310.961L214.91 310.461L214.919 309.961C206.695 309.809 195.732 310.303 187.807 312.292L187.929 312.777ZM214.91 310.461L214.898 310.961L216.503 311L216.516 310.5L216.528 310L214.922 309.961L214.91 310.461ZM216.516 310.5L216.46 310.997L216.538 311.006L216.594 310.509L216.65 310.012L216.572 310.003L216.516 310.5ZM216.594 310.509L216.501 311L216.904 311.076L216.997 310.585L217.09 310.094L216.687 310.017L216.594 310.509ZM216.997 310.585L216.723 311.003C230.607 320.106 249.786 338.223 261.071 365.657L261.533 365.467L261.996 365.277C250.62 337.623 231.29 319.358 217.271 310.167L216.997 310.585ZM261.533 365.467L261.055 365.32L260.999 365.502L261.478 365.648L261.956 365.795L262.011 365.613L261.533 365.467ZM261.478 365.648L261 365.5L261 365.5L261.175 365.969L261.35 366.437C261.64 366.329 261.863 366.092 261.955 365.797L261.478 365.648ZM261.175 365.969L261 365.5L261 365.5L260.736 365.925L260.473 366.35C260.735 366.513 261.059 366.545 261.349 366.437L261.175 365.969ZM260.736 365.925L261 365.5L242.599 354.062L242.335 354.486L242.071 354.911L260.472 366.349L260.736 365.925ZM242.335 354.486L242.386 353.989C240.87 353.833 239.095 353.798 237.38 353.996L237.438 354.493L237.495 354.99C239.125 354.802 240.826 354.833 242.284 354.984L242.335 354.486ZM237.438 354.493L237.38 353.996C235.622 354.2 233.927 354.646 232.638 355.45L232.902 355.874L233.167 356.298C234.28 355.604 235.81 355.185 237.495 354.99L237.438 354.493ZM232.902 355.874L232.638 355.45C231.348 356.254 230.464 357.417 230.327 359.053L230.825 359.095L231.323 359.136C231.429 357.874 232.09 356.97 233.167 356.298L232.902 355.874ZM230.825 359.095L230.327 359.053C230.19 360.689 230.8 362.8 232.5 365.5L232.923 365.233L233.346 364.967C231.699 362.351 231.212 360.463 231.323 359.136L230.825 359.095ZM232.923 365.233L232.5 365.5C233.35 366.85 233.756 367.98 233.792 368.917L234.292 368.897L234.792 368.878C234.745 367.695 234.243 366.391 233.346 364.967L232.923 365.233ZM234.292 368.897L233.792 368.917C233.829 369.854 233.496 370.6 232.869 371.181L233.209 371.548L233.549 371.915C234.386 371.138 234.84 370.112 234.792 368.878L234.292 368.897ZM233.209 371.548L232.869 371.181C232.242 371.762 231.321 372.18 230.18 372.461L230.3 372.946L230.42 373.432C231.643 373.13 232.748 372.657 233.549 371.915L233.209 371.548ZM230.3 372.946L230.18 372.461C229.04 372.742 227.679 372.887 226.175 372.925L226.188 373.425L226.2 373.925C227.747 373.886 229.185 373.736 230.42 373.432L230.3 372.946ZM226.188 373.425L226.175 372.925C220.159 373.075 211.834 371.5 206 370L205.876 370.484L205.751 370.969C211.609 372.475 220.042 374.078 226.2 373.925L226.188 373.425ZM205.876 370.484L206.001 370L206 370L205.845 370.476L205.69 370.951C205.717 370.96 205.742 370.966 205.751 370.969L205.876 370.484ZM205.845 370.476L206 370C202.167 368.75 197.092 366.35 194.325 363.212L193.95 363.543L193.575 363.874C196.522 367.216 201.807 369.685 205.69 370.951L205.845 370.476ZM193.95 363.543L194.325 363.212C192.942 361.643 192.136 359.89 192.35 358.005L191.854 357.948L191.357 357.892C191.099 360.159 192.084 362.183 193.575 363.874L193.95 363.543ZM191.854 357.948L192.35 358.005C192.565 356.119 193.8 354.1 196.5 352L196.193 351.605L195.886 351.211C193.074 353.398 191.614 355.635 191.357 357.892L191.854 357.948ZM196.193 351.605L196.5 352C198.188 350.688 199.422 349.539 200.263 348.503L199.875 348.188L199.487 347.872C198.713 348.825 197.544 349.921 195.886 351.211L196.193 351.605ZM199.875 348.188L200.263 348.503C201.104 347.467 201.551 346.542 201.665 345.679L201.169 345.614L200.673 345.549C200.593 346.164 200.261 346.919 199.487 347.872L199.875 348.188ZM201.169 345.614L201.665 345.679C201.891 343.953 200.782 342.469 198.813 340.813L198.491 341.195L198.169 341.578C200.13 343.227 200.825 344.393 200.673 345.549L201.169 345.614ZM198.491 341.195L198.813 340.813C197.829 339.985 196.629 339.113 195.275 338.148L194.984 338.555L194.694 338.962C196.051 339.929 197.22 340.779 198.169 341.578L198.491 341.195ZM194.984 338.555L195.275 338.148C193.92 337.182 192.411 336.121 190.805 334.914L190.505 335.313L190.204 335.713C191.823 336.93 193.346 338.001 194.694 338.962L194.984 338.555ZM190.505 335.313L190.805 334.914C187.594 332.5 184 329.5 180.5 325.5L180.124 325.829L179.748 326.158C183.309 330.228 186.961 333.274 190.204 335.713L190.505 335.313ZM180.124 325.829L180.5 325.5C179.1 323.9 178.353 322.465 178.148 321.181L177.654 321.26L177.161 321.338C177.406 322.878 178.28 324.481 179.748 326.158L180.124 325.829ZM177.654 321.26L178.148 321.181C177.944 319.897 178.283 318.763 179.056 317.764L178.661 317.458L178.266 317.152C177.338 318.349 176.909 319.758 177.161 321.338L177.654 321.26ZM178.661 317.458L179.056 317.764C179.83 316.765 181.04 315.9 182.575 315.155L182.356 314.705L182.138 314.255C180.53 315.036 179.17 315.984 178.266 317.152L178.661 317.458ZM182.356 314.705L182.575 315.155C184.11 314.41 185.972 313.784 188.05 313.262L187.929 312.777L187.807 312.292C185.687 312.824 183.755 313.471 182.138 314.255L182.356 314.705ZM123 176L123.179 176.467C126.104 175.345 130.008 173.985 134.717 173.037L134.618 172.547L134.519 172.057C129.734 173.02 125.773 174.402 122.821 175.533L123 176ZM134.618 172.547L134.123 172.616C134.876 177.977 135.356 183.876 135.125 189.125L135.625 189.146L136.125 189.168C136.359 183.836 135.871 177.872 135.113 172.477L134.618 172.547ZM135.625 189.146L135.125 189.125C134.938 193.395 134.281 197.239 132.922 200.015L133.371 200.235L133.82 200.455C135.27 197.495 135.935 193.487 136.125 189.168L135.625 189.146ZM133.371 200.235L132.922 200.015C131.562 202.792 129.499 204.5 126.5 204.5L126.5 205L126.5 205.5C129.99 205.5 132.346 203.465 133.82 200.455L133.371 200.235ZM126.5 205V204.5C119.001 204.5 117 204.75 114.438 206L114.657 206.449L114.876 206.899C117.204 205.763 118.98 205.5 126.5 205.5V205ZM114.657 206.449L114.438 206C111.876 207.25 108.75 209.5 99.0006 213.5L99.1904 213.963L99.3802 214.425C109.153 210.416 112.44 208.087 114.876 206.899L114.657 206.449ZM99.1904 213.963L99.0007 213.5C95.1002 215.101 92.7753 214.712 91.2866 213.434L90.9609 213.813L90.6353 214.193C92.533 215.822 95.3146 216.093 99.3802 214.425L99.1904 213.963ZM90.9609 213.813L91.2866 213.434C89.7973 212.156 89.1435 209.986 88.5875 208.025L88.1064 208.161L87.6254 208.297C88.1632 210.195 88.8776 212.684 90.6353 214.193L90.9609 213.813ZM88.1064 208.161L88.5875 208.025C88.3096 207.044 88.056 206.114 87.734 205.373L87.2754 205.572L86.8168 205.772C87.1055 206.436 87.3386 207.286 87.6254 208.297L88.1064 208.161ZM87.2754 205.572L87.7339 205.373C87.4118 204.632 87.021 204.08 86.4705 203.853L86.2803 204.315L86.09 204.778C86.263 204.849 86.5184 205.085 86.8168 205.772L87.2754 205.572ZM86.2803 204.315L86.4704 203.853C85.9205 203.627 85.2094 203.725 84.2443 204.288L84.4961 204.72L84.7479 205.152C85.6 204.655 85.9619 204.725 86.0901 204.778L86.2803 204.315ZM84.4961 204.72L84.2443 204.288C83.2871 204.846 82.0808 205.86 80.5355 207.464L80.8955 207.811L81.2555 208.158C82.7798 206.576 83.9103 205.64 84.7479 205.152L84.4961 204.72ZM80.8955 207.811L80.4713 207.546C78.2682 211.076 75.5692 215.028 72.7767 218.427L73.1631 218.744L73.5494 219.062C76.3783 215.618 79.1026 211.628 81.3197 208.075L80.8955 207.811ZM73.1631 218.744L72.7767 218.427C69.9723 221.841 67.0726 224.698 64.4872 226.012L64.7139 226.458L64.9405 226.904C67.7229 225.489 70.7327 222.49 73.5494 219.062L73.1631 218.744ZM64.7139 226.458L64.4873 226.012C63.1946 226.67 61.9806 226.941 60.8959 226.704L60.7891 227.192L60.6823 227.681C62.0802 227.986 63.5396 227.616 64.9405 226.904L64.7139 226.458ZM60.7891 227.192L60.8959 226.704C59.8112 226.467 58.8558 225.721 58.0803 224.342L57.6445 224.587L57.2087 224.832C58.084 226.388 59.2479 227.367 60.6822 227.681L60.7891 227.192ZM57.6445 224.587L58.0803 224.342C57.6229 223.528 57.2282 222.491 56.9049 221.201L56.4199 221.322L55.9349 221.444C56.273 222.793 56.6957 223.92 57.2087 224.832L57.6445 224.587ZM56.4199 221.322L56.8833 221.51C60.8762 211.654 67.2214 201.703 75.876 191.83L75.5 191.5L75.124 191.17C66.4111 201.11 59.9994 211.155 55.9565 221.135L56.4199 221.322ZM75.5 191.5L75.9836 191.627L88.9836 142.127L88.5 142L88.0164 141.873L75.0164 191.373L75.5 191.5ZM88.5 142L88.149 142.356L122.649 176.356L123 176L123.351 175.644L88.851 141.644L88.5 142Z" fill="black"/>
<path d="M103.5 249C114.667 247.334 140.4 259.2 142 234C147.5 260 166.3 249 189.5 249" stroke="black" stroke-linecap="round" stroke-linejoin="round"/>
<path d="M150.526 227.5H132.159C130.135 227.5 129.391 230.162 131.122 231.211L140.447 236.862C141.093 237.253 141.904 237.248 142.544 236.848L151.586 231.196C153.29 230.131 152.536 227.5 150.526 227.5Z" fill="black" stroke="black" stroke-linecap="round" stroke-linejoin="round"/>
<path d="M78.5 217.5C85.8333 206.5 106 199.8 128 223C117.5 248 84.5 239.5 78.5 217.5Z" fill="white"/>
<path d="M159 223C166.667 212.334 190.5 194.9 214.5 220.5C207 232 184.5 255 159 223Z" fill="white"/>
<path d="M78.5 217.5C85.8333 206.5 106 199.8 128 223C117.5 248 84.5 239.5 78.5 217.5Z" stroke="black" stroke-linecap="round" stroke-linejoin="round"/>
<path d="M159 223C166.667 212.334 190.5 194.9 214.5 220.5C207 232 184.5 255 159 223Z" stroke="black" stroke-linecap="round" stroke-linejoin="round"/>
<path d="M102.5 207.5C99 215.5 94.5 232.9 104.5 238.5C107.833 231.834 112.1 216.3 102.5 207.5Z" fill="#1F7C44"/>
<path d="M191.5 207.5C186.333 213.834 177.1 229.3 189.5 238.5C192.333 234.167 202.5 218.5 191.5 207.5Z" fill="#1F7C44"/>
<path d="M102.5 207.5C99 215.5 94.5 232.9 104.5 238.5C107.833 231.834 112.1 216.3 102.5 207.5Z" stroke="black" stroke-linecap="round" stroke-linejoin="round"/>
<path d="M191.5 207.5C186.333 213.834 177.1 229.3 189.5 238.5C192.333 234.167 202.5 218.5 191.5 207.5Z" stroke="black" stroke-linecap="round" stroke-linejoin="round"/>
<path d="M113 180.5L87 186.5L93.5 157.5L113 180.5Z" fill="#FFB7B7"/>
<path d="M202.5 157.5L192 180.5L219.5 186.5L202.5 157.5Z" fill="#FFB7B7"/>
<path d="M113 180.5L87 186.5L93.5 157.5L113 180.5Z" stroke="black" stroke-linecap="round" stroke-linejoin="round"/>
<path d="M202.5 157.5L192 180.5L219.5 186.5L202.5 157.5Z" stroke="black" stroke-linecap="round" stroke-linejoin="round"/>
<path d="M203 246L264 232.5M203 246L264 252.5M203 246L250.5 271.5" stroke="black" stroke-linecap="round" stroke-linejoin="round"/>
<path d="M207 231C210.495 231 213.639 232.037 215.897 233.687C218.156 235.337 219.5 237.575 219.5 240C219.5 242.425 218.156 244.663 215.897 246.314C213.639 247.964 210.495 249 207 249C203.505 249 200.361 247.964 198.103 246.314C195.844 244.663 194.5 242.425 194.5 240C194.5 237.575 195.844 235.337 198.103 233.687C200.361 232.037 203.505 231 207 231Z" fill="#FFB7B7"/>
<path d="M207 231C210.495 231 213.639 232.037 215.897 233.687C218.156 235.337 219.5 237.575 219.5 240C219.5 242.425 218.156 244.663 215.897 246.314C213.639 247.964 210.495 249 207 249C203.505 249 200.361 247.964 198.103 246.314C195.844 244.663 194.5 242.425 194.5 240C194.5 237.575 195.844 235.337 198.103 233.687C200.361 232.037 203.505 231 207 231Z" fill="#FFB7B7"/>
<path d="M207 231C210.495 231 213.639 232.037 215.897 233.687C218.156 235.337 219.5 237.575 219.5 240C219.5 242.425 218.156 244.663 215.897 246.314C213.639 247.964 210.495 249 207 249C203.505 249 200.361 247.964 198.103 246.314C195.844 244.663 194.5 242.425 194.5 240C194.5 237.575 195.844 235.337 198.103 233.687C200.361 232.037 203.505 231 207 231Z" stroke="black"/>
<path d="M91 243L30 229.5M91 243L30 249.5M91 243L43.5 268.5" stroke="black" stroke-linecap="round" stroke-linejoin="round"/>
<path d="M90.5 233C94.1372 233 97.4087 234.039 99.7578 235.692C102.108 237.346 103.5 239.584 103.5 242C103.5 244.417 102.108 246.655 99.7578 248.309C97.4087 249.962 94.1372 251 90.5 251C86.8628 251 83.5913 249.962 81.2422 248.309C78.8916 246.655 77.5 244.417 77.5 242C77.5 239.584 78.8916 237.346 81.2422 235.692C83.5913 234.039 86.8628 233 90.5 233Z" fill="#FFB7B7"/>
<path d="M90.5 233C94.1372 233 97.4087 234.039 99.7578 235.692C102.108 237.346 103.5 239.584 103.5 242C103.5 244.417 102.108 246.655 99.7578 248.309C97.4087 249.962 94.1372 251 90.5 251C86.8628 251 83.5913 249.962 81.2422 248.309C78.8916 246.655 77.5 244.417 77.5 242C77.5 239.584 78.8916 237.346 81.2422 235.692C83.5913 234.039 86.8628 233 90.5 233Z" fill="#FFB7B7"/>
<path d="M90.5 233C94.1372 233 97.4087 234.039 99.7578 235.692C102.108 237.346 103.5 239.584 103.5 242C103.5 244.417 102.108 246.655 99.7578 248.309C97.4087 249.962 94.1372 251 90.5 251C86.8628 251 83.5913 249.962 81.2422 248.309C78.8916 246.655 77.5 244.417 77.5 242C77.5 239.584 78.8916 237.346 81.2422 235.692C83.5913 234.039 86.8628 233 90.5 233Z" stroke="black"/>
<path d="M125.824 177.957C129.641 162.747 140.636 130.388 154.085 122.629C167.533 114.87 177.125 138.697 181.096 149.677C180.719 151.634 179.885 154.238 176.747 152.963C173.831 151.779 168.378 147.176 166.27 144.018C171.891 153.654 173.929 171.819 173.352 180.976L125.824 177.957Z" fill="#1F7C44"/>
<path d="M162.948 138.508C163.594 139.368 165.338 142.107 165.848 143.323M165.848 143.323C171.789 152.754 173.943 171.594 173.352 180.976L125.824 177.957C129.641 162.747 140.636 130.388 154.085 122.629C167.533 114.87 177.125 138.697 181.096 149.677C180.719 151.634 179.885 154.238 176.747 152.963C173.609 151.688 167.531 146.454 165.848 143.323Z" stroke="black" stroke-linecap="round"/>
<path d="M177.164 147.9L175.806 148.905C174.868 149.6 174.294 150.681 174.245 151.848C174.167 153.688 175.399 155.326 177.188 155.763L178.466 156.076C179.998 156.45 181.617 156.144 182.908 155.238L184.318 154.247C185.237 153.601 185.804 152.564 185.851 151.441C185.905 150.149 185.265 148.926 184.173 148.234L183.29 147.675C181.398 146.478 178.963 146.567 177.164 147.9Z" fill="#FFDD44" stroke="black" stroke-linecap="round"/>
</g>
<defs>
<clipPath id="clip0_90_209">
<rect width="300" height="400" fill="white"/>
</clipPath>
</defs>
</svg>
