<svg width="300" height="400" viewBox="0 0 300 400" fill="none" xmlns="http://www.w3.org/2000/svg">
<path d="M246.343 329.084C233.626 326.827 217.332 327.376 207.843 328.325C205.509 340.325 199.943 365.425 196.343 369.825C192.743 374.225 197.176 382.325 199.843 385.825C208.343 387.491 229.543 390.225 246.343 387.825C267.343 384.825 278.843 372.825 282.343 364.325C285.143 357.525 277.843 334.825 273.843 324.325L259.343 312.825L246.343 329.084Z" fill="#B52020"/>
<path d="M31.3426 362.825C25.7426 344.425 39.0093 325.825 46.3426 318.825L75.8426 309.825C80.3426 327.491 88.8426 364.925 86.8426 373.325C84.8426 381.725 70.0093 385.158 62.8426 385.825C54.6759 385.825 36.9426 381.225 31.3426 362.825Z" fill="#B52020"/>
<path d="M262.843 336.325C259.904 332.651 253.726 330.395 246.343 329.084M246.343 329.084C233.626 326.827 217.332 327.376 207.843 328.325C205.509 340.325 199.943 365.425 196.343 369.825C192.743 374.225 197.176 382.325 199.843 385.825C208.343 387.491 229.543 390.225 246.343 387.825C267.343 384.825 278.843 372.825 282.343 364.325C285.143 357.525 277.843 334.825 273.843 324.325L259.343 312.825L246.343 329.084ZM46.3426 318.825C39.0093 325.825 25.7426 344.425 31.3426 362.825C36.9426 381.225 54.6759 385.825 62.8426 385.825C70.0093 385.158 84.8426 381.725 86.8426 373.325C88.8426 364.925 80.3426 327.491 75.8426 309.825L46.3426 318.825Z" stroke="black" stroke-linecap="round"/>
<path d="M252.343 182.325C264.743 107.125 231.509 87.6581 213.343 87.3248C188.316 88.889 176.111 101.961 170.492 117.825C168.276 108.991 158.043 90.5248 134.843 87.3248C105.843 83.3248 86 115.5 82 129.5C78.8 140.7 77.8426 167.658 78.3426 178.825C54.176 202.825 19.1426 259.825 72.3426 295.825C125.543 331.825 219.176 310.825 259.343 295.825C264.009 291.658 275.243 281.525 278.843 258.325C282.443 235.125 265.343 193.825 252.343 182.325Z" fill="#FEF1F1"/>
<path d="M166.843 161.825C165.726 149.301 165.334 132.387 170.492 117.825M170.492 117.825C176.111 101.961 188.316 88.889 213.343 87.3248C231.509 87.6581 264.743 107.125 252.343 182.325C265.343 193.825 282.443 235.125 278.843 258.325C275.243 281.525 264.009 291.658 259.343 295.825C219.176 310.825 125.543 331.825 72.3426 295.825C19.1426 259.825 54.176 202.825 78.3426 178.825C77.8426 167.658 78.8 140.7 82 129.5C86 115.5 105.843 83.3248 134.843 87.3248C158.043 90.5248 168.276 108.991 170.492 117.825Z" stroke="black"/>
<path d="M141.843 163.825C132.243 161.425 120.843 166.491 116.343 169.325C113.543 170.853 113.509 159.628 113.843 153.825C115.009 144.991 120.543 126.925 133.343 125.325C146.143 123.725 144.343 150.325 141.843 163.825Z" fill="#F3B6B6" stroke="#EAA7A7"/>
<path d="M209.343 127.325C192.543 125.725 192.009 152.325 193.843 165.825C202.643 161.425 216.843 167.658 222.843 171.325C225.343 157.325 226.143 128.925 209.343 127.325Z" fill="#F3B6B6" stroke="#EAA7A7"/>
<circle cx="115.843" cy="236.325" r="8.5" fill="black"/>
<circle cx="188.5" cy="236.5" r="8.5" fill="black"/>
<path d="M145.167 247.757C145.767 249.134 146.886 250.368 147.937 251.271C148.819 252.03 149.923 252.454 151.059 252.706L151.593 252.825C153.044 253.147 154.601 252.984 155.79 252.092C157.437 250.857 158.307 249.587 158.712 248.481C159.324 246.813 158.153 245.165 156.611 244.284C152.952 242.195 149.69 242.429 147.41 243.298C145.578 243.995 144.383 245.961 145.167 247.757Z" fill="black"/>
<path d="M151.593 252.825L151.059 252.706C149.923 252.454 148.819 252.03 147.937 251.271C146.886 250.368 145.767 249.134 145.167 247.757C144.383 245.961 145.578 243.995 147.41 243.298C149.69 242.429 152.952 242.195 156.611 244.284C158.153 245.165 159.324 246.813 158.712 248.481C158.307 249.587 157.437 250.857 155.79 252.092C154.601 252.984 153.044 253.147 151.593 252.825ZM151.593 252.825C150.176 257.325 145.043 264.125 135.843 255.325M151.593 252.825C154.009 257.491 160.243 264.825 165.843 256.825" stroke="black" stroke-width="3" stroke-linecap="round"/>
<path d="M256.197 297.585L265.881 299.863C267.163 300.165 268.336 300.818 269.268 301.75C270.596 303.078 271.343 304.88 271.343 306.759V307.21C271.343 309.512 272.314 311.708 274.017 313.257L274.846 314.01C276.118 315.166 276.843 316.804 276.843 318.523C276.843 321.34 274.913 323.79 272.175 324.452L262.343 326.825L250.398 329.214C248.378 329.618 246.301 329.651 244.269 329.313L230.73 327.056C229.807 326.902 228.872 326.825 227.936 326.825H214.843L195.436 324.399C195.042 324.35 194.643 324.346 194.248 324.388C188.761 324.972 186.298 317.705 191.009 314.833L191.843 314.325L208.004 307.336C209.554 306.666 211.196 306.23 212.874 306.043L230.426 304.093C232.029 303.915 233.598 303.51 235.087 302.89L245.765 298.44C249.066 297.065 252.716 296.766 256.197 297.585Z" fill="#F5F5F5" stroke="black" stroke-linecap="round"/>
<path d="M74.9207 296.808L87.3425 301.325L104.697 309.8C107.234 311.039 108.843 313.615 108.843 316.438C108.843 320.518 105.535 323.825 101.456 323.825H89.8425L52.1255 322.374C51.2739 322.341 50.4304 322.196 49.617 321.942L46.5608 320.987C44.3487 320.295 42.8425 318.247 42.8425 315.929C42.8425 314.883 43.1522 313.86 43.7325 312.99L45.6085 310.176C46.3986 308.991 46.6856 307.54 46.4062 306.143C46.0541 304.382 46.6052 302.562 47.875 301.292L49.011 300.156C50.2041 298.963 51.7299 298.158 53.3883 297.847L58.8425 296.825L66.5367 295.863C69.3667 295.509 72.2403 295.833 74.9207 296.808Z" fill="#F5F5F5" stroke="black" stroke-linecap="round"/>
<path d="M102.343 290.325C106.009 285.991 120.443 277.825 148.843 279.825C177.243 281.825 189.009 286.991 191.343 289.325V324.825L187.343 374.325C173.009 381.658 136.743 391.925 106.343 374.325C105.509 374.158 103.743 373.025 103.343 369.825C103.04 367.406 102.719 337.602 102.508 312.325C92.6403 309.525 87.2862 315.158 85.8426 318.325L83.3426 328.325H74.3426C73.3426 329.825 71.9426 329.325 74.3426 315.325C76.7426 301.325 94.0639 300.491 102.424 301.825C102.393 297.636 102.365 293.741 102.343 290.325Z" fill="#D34242"/>
<path d="M102.424 301.825C102.393 297.636 102.365 293.741 102.343 290.325C106.009 285.991 120.443 277.825 148.843 279.825C177.243 281.825 189.009 286.991 191.343 289.325V324.825L187.343 374.325C173.009 381.658 136.743 391.925 106.343 374.325C105.509 374.158 103.743 373.025 103.343 369.825C103.04 367.406 102.719 337.602 102.508 312.325M102.424 301.825C94.0639 300.491 76.7426 301.325 74.3426 315.325C71.9426 329.325 73.3426 329.825 74.3426 328.325H83.3426L85.8426 318.325C87.2862 315.158 92.6403 309.525 102.508 312.325M102.424 301.825C102.45 305.169 102.478 308.7 102.508 312.325" stroke="black" stroke-linecap="round"/>
<path d="M73.3426 317.825C49.7426 338.625 59.5092 362.825 67.3426 372.325C76.1426 377.925 84.6759 376.658 87.8426 375.325C94.8426 376.325 112.843 353.825 107.343 331.825C102.943 314.225 82.8426 315.158 73.3426 317.825Z" fill="white" stroke="black" stroke-linecap="round"/>
<path d="M175.843 340.325C178.603 327.558 192.724 326.027 202.222 327.132C204.881 327.441 207.193 329.088 208.389 331.483C217.664 350.057 209.86 367.698 202.268 377.43C200.027 380.302 196.147 381.208 192.755 379.881C169.696 370.862 172.12 357.542 175.843 340.325Z" fill="white" stroke="black" stroke-linecap="round"/>
<path d="M107.843 293.825C109.343 298.825 176.843 305.325 186.343 293.825C176.343 288.325 126.843 283.825 107.843 293.825Z" fill="#B52020" stroke="#D34242" stroke-linecap="round"/>
<ellipse cx="96" cy="248" rx="9" ry="3" fill="#EAA7A7"/>
<ellipse cx="209" cy="248" rx="9" ry="3" fill="#EAA7A7"/>
</svg>
