<svg width="300" height="400" viewBox="0 0 300 400" fill="none" xmlns="http://www.w3.org/2000/svg">
<mask id="path-1-inside-1_90_15" fill="white">
<path d="M145.5 102C194.93 102 235 142.518 235 192.5C235 218.215 224.392 241.424 207.362 257.899L278.57 296.538C290.179 302.837 294.498 317.362 288.218 328.981C281.938 340.601 267.435 344.913 255.826 338.614L211.141 314.368L216 400H84.5004L87.7103 317.675L49.764 338.266C38.155 344.565 23.653 340.252 17.3724 328.633C11.092 317.014 15.411 302.489 27.0199 296.189L88.9047 262.609C68.8219 246.014 56.0004 220.772 56.0004 192.5C56.0004 142.518 96.0709 102 145.5 102Z"/>
</mask>
<path d="M145.5 102C194.93 102 235 142.518 235 192.5C235 218.215 224.392 241.424 207.362 257.899L278.57 296.538C290.179 302.837 294.498 317.362 288.218 328.981C281.938 340.601 267.435 344.913 255.826 338.614L211.141 314.368L216 400H84.5004L87.7103 317.675L49.764 338.266C38.155 344.565 23.653 340.252 17.3724 328.633C11.092 317.014 15.411 302.489 27.0199 296.189L88.9047 262.609C68.8219 246.014 56.0004 220.772 56.0004 192.5C56.0004 142.518 96.0709 102 145.5 102Z" fill="#C5936E"/>
<path d="M145.5 102V101V102ZM207.362 257.899L206.666 257.181L205.687 258.128L206.885 258.778L207.362 257.899ZM278.57 296.538L278.093 297.417V297.417L278.57 296.538ZM288.218 328.981L289.098 329.457L289.098 329.457L288.218 328.981ZM255.826 338.614L255.349 339.493L255.826 338.614ZM211.141 314.368L211.618 313.489L210.041 312.634L210.143 314.425L211.141 314.368ZM216 400V401H217.059L216.999 399.943L216 400ZM84.5004 400L83.5011 399.961L83.4606 401H84.5004V400ZM87.7103 317.675L88.7096 317.714L88.778 315.958L87.2334 316.796L87.7103 317.675ZM49.764 338.266L50.241 339.145L50.241 339.145L49.764 338.266ZM17.3724 328.633L16.4927 329.108H16.4927L17.3724 328.633ZM27.0199 296.189L27.4968 297.068H27.4968L27.0199 296.189ZM88.9047 262.609L89.3816 263.488L90.6833 262.782L89.5417 261.839L88.9047 262.609ZM145.5 102V103C194.367 103 234 143.06 234 192.5H235H236C236 141.977 195.492 101 145.5 101V102ZM235 192.5H234C234 217.935 223.509 240.887 206.666 257.181L207.362 257.899L208.057 258.618C225.275 241.96 236 218.495 236 192.5H235ZM207.362 257.899L206.885 258.778L278.093 297.417L278.57 296.538L279.047 295.659L207.839 257.02L207.362 257.899ZM278.57 296.538L278.093 297.417C289.217 303.453 293.356 317.372 287.338 328.506L288.218 328.981L289.098 329.457C295.64 317.353 291.14 302.221 279.047 295.659L278.57 296.538ZM288.218 328.981L287.338 328.506C281.321 339.639 267.426 343.771 256.302 337.735L255.826 338.614L255.349 339.493C267.444 346.056 282.554 341.562 289.098 329.457L288.218 328.981ZM255.826 338.614L256.302 337.735L211.618 313.489L211.141 314.368L210.664 315.247L255.349 339.493L255.826 338.614ZM211.141 314.368L210.143 314.425L215.002 400.057L216 400L216.999 399.943L212.139 314.312L211.141 314.368ZM216 400V399H84.5004V400V401H216V400ZM84.5004 400L85.4996 400.039L88.7096 317.714L87.7103 317.675L86.7111 317.636L83.5011 399.961L84.5004 400ZM87.7103 317.675L87.2334 316.796L49.2871 337.387L49.764 338.266L50.241 339.145L88.1873 318.554L87.7103 317.675ZM49.764 338.266L49.2871 337.387C38.164 343.422 24.2698 339.29 18.2521 328.157L17.3724 328.633L16.4927 329.108C23.0362 341.214 38.1459 345.707 50.241 339.145L49.764 338.266ZM17.3724 328.633L18.2521 328.157C12.234 317.024 16.3728 303.104 27.4968 297.068L27.0199 296.189L26.543 295.311C14.4492 301.873 9.94994 317.004 16.4927 329.108L17.3724 328.633ZM27.0199 296.189L27.4968 297.068L89.3816 263.488L88.9047 262.609L88.4277 261.73L26.543 295.311L27.0199 296.189ZM88.9047 262.609L89.5417 261.839C69.6807 245.426 57.0004 220.463 57.0004 192.5H56.0004H55.0004C55.0004 221.08 67.963 246.601 88.2677 263.38L88.9047 262.609ZM56.0004 192.5H57.0004C57.0004 143.06 96.6336 103 145.5 103V102V101C95.5081 101 55.0004 141.976 55.0004 192.5H56.0004Z" fill="black" mask="url(#path-1-inside-1_90_15)"/>
<path d="M38 292L32.9735 306.166C32.7425 306.816 33.2253 307.5 33.9159 307.5H43.646C44.3188 307.5 44.7997 308.151 44.6018 308.794L41.3982 319.206C41.2003 319.849 41.6812 320.5 42.354 320.5H51.5174C52.3382 320.5 52.8094 321.434 52.3215 322.094L46.1785 330.406C45.6906 331.066 46.1618 332 46.9826 332H58" stroke="#FFF7F7" stroke-width="4"/>
<path d="M269 292L274.027 306.166C274.257 306.816 273.775 307.5 273.084 307.5H263.354C262.681 307.5 262.2 308.151 262.398 308.794L265.602 319.206C265.8 319.849 265.319 320.5 264.646 320.5H255.483C254.662 320.5 254.191 321.434 254.678 322.094L260.822 330.406C261.309 331.066 260.838 332 260.017 332H249" stroke="#FFF7F7" stroke-width="4"/>
<circle cx="111.5" cy="184.5" r="8.5" fill="black"/>
<circle cx="177.157" cy="184.675" r="8.5" fill="black"/>
<circle cx="109" cy="181" r="2" fill="white"/>
<circle cx="174" cy="181" r="2" fill="white"/>
<path d="M121 218C130.872 223.282 150.5 231 170 218" stroke="#FFF7F7" stroke-width="5" stroke-linecap="round"/>
<ellipse cx="93" cy="202.5" rx="12" ry="5.5" fill="#EAA7A7"/>
<ellipse cx="195" cy="202.5" rx="12" ry="5.5" fill="#EAA7A7"/>
<path d="M122.669 255.235L140.169 263.929H153.738L167.918 255.438C171.917 253.044 177 255.925 177 260.586V279.127C177 283.626 172.23 286.525 168.236 284.452L153.738 276.929L140.169 276L122.669 284.693C118.681 286.675 114 283.773 114 279.32V260.609C114 256.155 118.681 253.254 122.669 255.235Z" fill="#DA3232"/>
<path d="M140.169 263.929L122.669 255.235C118.681 253.254 114 256.155 114 260.609V279.32C114 283.773 118.681 286.675 122.669 284.693L140.169 276M140.169 263.929V276M140.169 263.929H153.738M140.169 276L153.738 276.929M153.738 263.929V276.929M153.738 263.929L167.918 255.438C171.917 253.044 177 255.925 177 260.586V279.127C177 283.626 172.23 286.525 168.236 284.452L153.738 276.929" stroke="black"/>
<path d="M146 297.5C154.023 297.5 160.5 303.803 160.5 311.546C160.5 319.288 154.023 325.591 146 325.591C137.977 325.591 131.5 319.288 131.5 311.546C131.5 303.803 137.977 297.5 146 297.5Z" fill="#0BA53F" stroke="black"/>
<ellipse cx="142.143" cy="307.805" rx="4.28571" ry="4.15584" fill="white"/>
<path d="M146 340.5C154.023 340.5 160.5 346.803 160.5 354.546C160.5 362.288 154.023 368.591 146 368.591C137.977 368.591 131.5 362.288 131.5 354.546C131.5 346.803 137.977 340.5 146 340.5Z" fill="#0BA53F" stroke="black"/>
<ellipse cx="142.143" cy="350.805" rx="4.28571" ry="4.15584" fill="white"/>
</svg>
