<svg width="300" height="400" viewBox="0 0 300 400" fill="none" xmlns="http://www.w3.org/2000/svg">
<path d="M133.87 294.5H178.214C182.988 294.5 187.02 298.043 187.635 302.777L198.539 386.777C199.277 392.462 194.85 397.5 189.118 397.5H123.773C118.077 397.5 113.662 392.522 114.342 386.866L124.438 302.866C124.993 298.241 128.812 294.726 133.422 294.511L133.87 294.5Z" fill="#564631" stroke="black"/>
<path d="M35.9799 287.625C29.6126 267.875 55.8201 241.954 70.0279 231.207C70.2447 231.043 70.4188 230.844 70.5541 230.608L80.0299 214.098C80.4145 213.427 81.1509 213.039 81.9213 213.099L238.163 225.391C238.551 225.421 238.936 225.575 239.243 225.814C296.432 270.247 274.509 296.092 255.638 303.872C255.102 304.093 254.679 304.54 254.473 305.082C246.098 327.139 231.164 322.438 222.812 315.944C221.654 315.044 219.874 315.496 219.287 316.84C210.812 336.237 192.077 329.206 182.016 322.053C181.081 321.388 179.773 321.59 179.072 322.498C164.967 340.766 150.061 331.411 142.923 322.806C142.096 321.809 140.555 321.737 139.646 322.659C124.229 338.295 110.31 326.345 103.892 316.358C103.137 315.184 101.441 315.011 100.457 316.001C83.8792 332.672 70.0719 317.441 64.3151 305.978C63.8254 305.003 62.6738 304.559 61.6258 304.862C54.5284 306.915 41.8423 305.809 35.9799 287.625Z" fill="#1F2F21" stroke="black"/>
<path d="M54.8457 227.297C49.3566 210.035 71.9176 187.386 84.1894 177.963C84.4047 177.798 84.5776 177.598 84.7113 177.362L92.7794 163.11C93.1625 162.433 93.9035 162.04 94.6788 162.101L229.257 172.835C229.648 172.866 230.036 173.023 230.345 173.266C279.502 212.022 260.793 234.604 244.54 241.466C244.005 241.691 243.585 242.138 243.38 242.681C236.262 261.543 223.708 257.876 216.452 252.353C215.277 251.459 213.481 251.914 212.876 253.261C205.553 269.574 189.81 263.747 181.139 257.603C180.195 256.934 178.874 257.127 178.166 258.043C166.196 273.52 153.593 265.772 147.377 258.361C146.538 257.36 144.975 257.293 144.054 258.22C131.027 271.32 119.276 261.389 113.68 252.783C112.913 251.604 111.193 251.434 110.196 252.425C96.1359 266.413 84.4263 253.529 79.4224 243.599C78.9278 242.618 77.7639 242.168 76.7039 242.457C70.5305 244.144 59.8302 242.971 54.8457 227.297Z" fill="#195222" stroke="black"/>
<path d="M94.6437 123.101C75.9107 106.837 129.344 80.1524 159.93 68.2719C160.391 68.0928 160.91 68.1059 161.372 68.2834C240.157 98.5729 236.574 116.888 223.186 123.403C221.923 124.017 221.509 125.716 222.408 126.796C270.219 184.244 245.425 194.148 225.864 191.838C225.18 191.757 224.495 192.027 224.033 192.537C211.309 206.575 194.278 199.443 185.812 193.036C184.89 192.338 183.561 192.487 182.818 193.374C168.54 210.424 151.186 201.232 142.846 193.183C142.028 192.393 140.717 192.375 139.878 193.142C121.344 210.072 104.134 197.565 97.1074 188.265C96.7155 187.747 96.0711 187.432 95.4211 187.422C51.9397 186.789 76.03 147.514 94.9479 126.232C95.7594 125.319 95.5661 123.902 94.6437 123.101Z" fill="#248B35" stroke="black"/>
<path d="M159.874 32.3828C160.851 30.8043 163.149 30.8043 164.126 32.3828L173.253 47.123C173.773 47.9632 174.625 48.5451 175.597 48.7236L193.348 51.9834C195.335 52.3483 196.091 54.7973 194.655 56.2188L182.729 68.0273C181.956 68.7932 181.583 69.8752 181.72 70.9551L183.775 87.1436C184.017 89.0497 182.108 90.5051 180.334 89.7666L163.346 82.6895C162.484 82.3306 161.516 82.3306 160.654 82.6895L143.666 89.7666C141.892 90.5051 139.983 89.0497 140.225 87.1436L142.28 70.9551C142.417 69.8752 142.044 68.7932 141.271 68.0273L129.345 56.2188C127.909 54.7973 128.665 52.3483 130.652 51.9834L148.403 48.7236C149.375 48.5451 150.227 47.9632 150.747 47.123L159.874 32.3828Z" fill="#FFDD44" stroke="black"/>
<circle cx="120.5" cy="124.5" r="7" fill="#EF4545" stroke="black"/>
<circle cx="210.5" cy="146.5" r="7" fill="#FFE100" stroke="black"/>
<circle cx="79.5" cy="220.5" r="7" fill="#FFE100" stroke="black"/>
<circle cx="249.5" cy="266.5" r="7" fill="#FFE100" stroke="black"/>
<circle cx="210.5" cy="301.5" r="7" fill="#0C82FF" stroke="black"/>
<circle cx="101.5" cy="256.5" r="7" fill="#0C82FF" stroke="black"/>
<circle cx="150.5" cy="134.5" r="4" fill="#0C82FF" stroke="black"/>
<circle cx="219.5" cy="222.5" r="4" fill="#FFDD44" stroke="black"/>
<circle cx="120.5" cy="283.5" r="4" fill="#FFDD44" stroke="black"/>
<circle cx="86.5" cy="298.5" r="4" fill="#FFDD44" stroke="black"/>
<circle cx="71.5" cy="285.5" r="4" fill="#EF4545" stroke="black"/>
<circle cx="91.5" cy="169.5" r="4" fill="#FFDD44" stroke="black"/>
<circle cx="190.5" cy="261.5" r="4" fill="#EF4545" stroke="black"/>
<circle cx="98.5" cy="188.5" r="4" fill="#EF4545" stroke="black"/>
<circle cx="174.5" cy="109.5" r="7" fill="#EF4545" stroke="black"/>
<circle cx="231.5" cy="191.5" r="7" fill="#EF4545" stroke="black"/>
<circle cx="171.5" cy="288.5" r="7" fill="#EF4545" stroke="black"/>
<path d="M131.67 152.859C138.753 152.859 145.243 157.499 149.988 165.164C154.729 172.822 157.678 183.433 157.678 195.18C157.678 206.926 154.729 217.537 149.988 225.195C145.243 232.861 138.753 237.5 131.67 237.5C126.369 237.5 119.376 235.179 113.955 228.757C108.537 222.339 104.647 211.772 105.661 195.21C106.38 183.465 109.332 172.843 113.897 165.174C118.466 157.499 124.596 152.859 131.67 152.859Z" fill="white" stroke="black"/>
<path d="M187.842 151.5C194.921 151.5 201.411 156.211 206.158 164.001C210.9 171.782 213.85 182.564 213.85 194.5C213.85 206.467 211.816 217.248 207.539 225.018C203.275 232.764 196.8 237.5 187.842 237.5C182.344 237.5 177.994 235.837 174.548 233.105C171.095 230.368 168.526 226.536 166.636 222.169C162.852 213.425 161.834 202.629 161.834 194.5C161.834 182.564 164.784 171.782 169.525 164.001C174.273 156.211 180.763 151.5 187.842 151.5Z" fill="white" stroke="black"/>
<path d="M144.584 206.055C144.584 216.19 142.545 224.406 136.428 224.406C130.31 224.406 128.271 216.19 128.271 206.055C128.271 195.919 131.923 187.703 136.428 187.703C140.932 187.703 144.584 195.919 144.584 206.055Z" fill="black"/>
<path d="M193.312 206.352C193.312 216.487 190.594 224.703 185.156 224.703C179.719 224.703 177 216.487 177 206.352C177 196.216 180.652 188 185.156 188C189.661 188 193.312 196.216 193.312 206.352Z" fill="black"/>
<path d="M160.611 248.5C156.188 248.5 152.956 247.732 150.482 246.394C148.031 245.067 146.283 243.159 144.848 240.794C144.268 238.875 144.482 237.881 144.988 237.343C145.536 236.76 146.6 236.5 148.217 236.5C149.802 236.5 151.745 236.745 153.893 236.997C156.024 237.247 158.339 237.5 160.611 237.5C162.885 237.5 165.138 237.246 167.194 236.996C169.267 236.744 171.116 236.5 172.638 236.5C174.179 236.5 175.23 236.755 175.83 237.354C176.396 237.918 176.693 238.93 176.362 240.811C174.927 242.954 173.178 244.855 170.732 246.23C168.254 247.625 165.024 248.5 160.611 248.5Z" fill="#DA3232" stroke="black"/>
</svg>
