<svg width="300" height="400" viewBox="0 0 300 400" fill="none" xmlns="http://www.w3.org/2000/svg">
<path d="M121.355 307.318C121.834 293.563 112.352 272.819 107.551 264.167L91.0599 265.87C76.8899 276.711 70.2103 294.67 68.6418 302.294L66.9164 304.229C64.4546 309.891 66.6601 308.232 68.0706 306.695C66.5638 313.113 69.2268 311.04 70.7467 309.201C74.6189 314.906 74.6211 310.52 74.1382 307.614C79.0713 305.306 75.2318 304.597 72.6954 304.531C72.5072 297.704 81.2512 285.87 85.6467 280.806L77.8817 327.661C81.1131 330.283 87.7464 331.343 90.7778 329.519C95.4445 326.711 89.0029 323.584 86.5146 323.621L89.6589 302.23L99.964 304.173L96.5173 331.343L107.603 332.545C113.523 329.774 107.761 326.457 104.14 325.145L109.156 284.462C113.107 287.123 115.974 301.442 116.914 308.268L115.497 310.059C110.861 314.934 114.335 313.735 116.651 312.525C117.364 317.904 118.662 315.217 119.222 313.201C123.834 318.56 123.816 314.184 123.23 311.326C126.337 308.97 123.274 307.672 121.355 307.318Z" fill="#FFEB6A" stroke="black" stroke-linecap="round" stroke-linejoin="round"/>
<mask id="path-2-inside-1_90_271" fill="white">
<path d="M87.4562 222.832C80.248 226.205 75.5676 232.828 74.2616 240.247C73.2101 240.277 72.1529 240.517 71.1471 240.987C67.0606 242.9 65.3634 247.901 67.3554 252.158C69.157 256.008 73.3588 257.93 77.1687 256.848C83.5091 267.619 98.1856 269.677 109.526 264.37C114.854 261.877 118.541 258.18 120.48 253.759C121.708 253.807 122.957 253.575 124.135 253.024C128.222 251.111 129.92 246.109 127.928 241.852C126.46 238.716 123.399 236.861 120.254 236.865C120.004 236.223 119.73 235.578 119.427 234.932C113.69 222.671 99.3758 217.254 87.4562 222.832Z"/>
</mask>
<path d="M87.4562 222.832C80.248 226.205 75.5676 232.828 74.2616 240.247C73.2101 240.277 72.1529 240.517 71.1471 240.987C67.0606 242.9 65.3634 247.901 67.3554 252.158C69.157 256.008 73.3588 257.93 77.1687 256.848C83.5091 267.619 98.1856 269.677 109.526 264.37C114.854 261.877 118.541 258.18 120.48 253.759C121.708 253.807 122.957 253.575 124.135 253.024C128.222 251.111 129.92 246.109 127.928 241.852C126.46 238.716 123.399 236.861 120.254 236.865C120.004 236.223 119.73 235.578 119.427 234.932C113.69 222.671 99.3758 217.254 87.4562 222.832Z" fill="#DC7D55"/>
<path d="M87.4562 222.832L87.0324 221.926L87.0324 221.926L87.4562 222.832ZM74.2616 240.247L75.2464 240.42L75.1051 241.223L74.2905 241.246L74.2616 240.247ZM71.1471 240.987L70.7232 240.082L70.7232 240.082L71.1471 240.987ZM67.3554 252.158L66.4497 252.582L66.4497 252.582L67.3554 252.158ZM77.1687 256.848L76.8956 255.886L77.6386 255.675L78.0305 256.341L77.1687 256.848ZM109.526 264.37L109.95 265.276L109.95 265.276L109.526 264.37ZM120.48 253.759L119.564 253.358L119.838 252.733L120.519 252.76L120.48 253.759ZM124.135 253.024L124.559 253.929L124.559 253.929L124.135 253.024ZM127.928 241.852L128.833 241.428L128.833 241.428L127.928 241.852ZM120.254 236.865L120.256 237.865L119.571 237.866L119.323 237.228L120.254 236.865ZM119.427 234.932L120.333 234.508L120.333 234.508L119.427 234.932ZM87.4562 222.832L87.8801 223.738C80.9861 226.964 76.4997 233.301 75.2464 240.42L74.2616 240.247L73.2767 240.074C74.6355 232.355 79.5098 225.447 87.0324 221.926L87.4562 222.832ZM74.2616 240.247L74.2905 241.246C73.3721 241.273 72.4497 241.482 71.5709 241.893L71.1471 240.987L70.7232 240.082C71.8561 239.551 73.0481 239.282 74.2326 239.247L74.2616 240.247ZM71.1471 240.987L71.5709 241.893C68.0193 243.555 66.4866 247.942 68.2611 251.734L67.3554 252.158L66.4497 252.582C64.2401 247.86 66.1019 242.244 70.7232 240.082L71.1471 240.987ZM67.3554 252.158L68.2611 251.734C69.8643 255.16 73.5785 256.828 76.8956 255.886L77.1687 256.848L77.4418 257.81C73.1391 259.032 68.4497 256.856 66.4497 252.582L67.3554 252.158ZM77.1687 256.848L78.0305 256.341C84.0233 266.521 98.0577 268.633 109.102 263.464L109.526 264.37L109.95 265.276C98.3136 270.721 82.995 268.717 76.3069 257.356L77.1687 256.848ZM109.526 264.37L109.102 263.464C114.242 261.059 117.736 257.526 119.564 253.358L120.48 253.759L121.396 254.161C119.347 258.834 115.466 262.695 109.95 265.276L109.526 264.37ZM120.48 253.759L120.519 252.76C121.594 252.802 122.683 252.599 123.711 252.118L124.135 253.024L124.559 253.929C123.23 254.551 121.822 254.812 120.441 254.758L120.48 253.759ZM124.135 253.024L123.711 252.118C127.263 250.456 128.796 246.068 127.022 242.276L127.928 241.852L128.833 241.428C131.043 246.15 129.18 251.767 124.559 253.929L124.135 253.024ZM127.928 241.852L127.022 242.276C125.718 239.49 123.009 237.861 120.256 237.865L120.254 236.865L120.253 235.865C123.789 235.86 127.202 237.943 128.833 241.428L127.928 241.852ZM120.254 236.865L119.323 237.228C119.08 236.606 118.814 235.981 118.522 235.355L119.427 234.932L120.333 234.508C120.645 235.175 120.929 235.84 121.186 236.502L120.254 236.865ZM119.427 234.932L118.522 235.355C113.007 223.571 99.2756 218.405 87.8801 223.738L87.4562 222.832L87.0324 221.926C99.4761 216.103 114.373 221.772 120.333 234.508L119.427 234.932Z" fill="black" mask="url(#path-2-inside-1_90_271)"/>
<path d="M115.472 228.89C116.129 227.079 110.079 223.521 106.972 221.968C101.392 221.823 88.8461 222.107 83.3042 224.399C77.7624 226.692 76.066 231.42 75.9106 233.497C77.1524 234.544 81.0334 235.61 86.6227 231.491C92.212 227.372 93.3379 228.975 93.2022 230.291C92.0575 236.84 97.1023 236.484 99.7679 235.487C96.2941 233.204 97.6168 230.355 98.7124 229.216C99.8014 228.33 102.815 227.221 106.158 229.866C109.5 232.511 113.76 230.317 115.472 228.89Z" fill="black" stroke="black" stroke-linecap="round" stroke-linejoin="round"/>
<path d="M81.6463 227.372C89.5499 222.525 100.286 222.528 106.297 223.364C107.09 223.474 107.729 222.678 107.403 221.947C99.8953 205.135 88.2865 197.513 80.3999 194.782C78.6594 194.18 77.2454 196.403 77.8913 198.127C80.7844 205.854 80.6214 218.516 79.9289 226.362C79.8511 227.245 80.8913 227.835 81.6463 227.372Z" fill="#FFEB6A" stroke="black" stroke-linecap="round"/>
<circle cx="4.76571" cy="4.76571" r="4.26571" transform="matrix(-0.905735 0.423845 0.423845 0.905735 81.5695 187.994)" fill="#248B35" stroke="black" stroke-linecap="round"/>
<circle cx="2.72326" cy="2.72326" r="2.72326" transform="matrix(-0.905735 0.423845 0.423845 0.905735 111.66 240.821)" fill="black"/>
<circle cx="2.72326" cy="2.72326" r="2.72326" transform="matrix(-0.905735 0.423845 0.423845 0.905735 89.0814 242.367)" fill="black"/>
<path d="M104.779 246.048C103.25 248.287 99.9191 251.129 96.6973 246.447" stroke="black" stroke-linecap="round" stroke-linejoin="round"/>
<path d="M180.548 67.6211C183.775 61.7395 192.225 61.7395 195.452 67.6211L211.367 96.6279C212.738 99.1254 215.156 100.876 217.957 101.397L250.543 107.463C257.173 108.697 259.794 116.791 255.146 121.678L232.434 145.557C230.458 147.634 229.525 150.492 229.896 153.334L234.158 185.976C235.028 192.641 228.182 197.631 222.103 194.763L192.054 180.585C189.487 179.374 186.513 179.374 183.946 180.585L153.897 194.763C147.818 197.631 140.972 192.641 141.842 185.976L146.104 153.334C146.475 150.492 145.542 147.634 143.566 145.557L120.854 121.678C116.206 116.791 118.827 108.697 125.457 107.463L158.043 101.397C160.844 100.876 163.262 99.1254 164.633 96.6279L180.548 67.6211Z" fill="#FFDB3B" stroke="black"/>
<path d="M215.787 235.702C217.003 232.886 220.997 232.886 222.213 235.702L226.182 244.893C226.824 246.379 228.215 247.407 229.825 247.582L239.733 248.661C242.713 248.986 243.932 252.662 241.737 254.703L234.162 261.75C233.012 262.82 232.503 264.412 232.819 265.95L234.907 276.109C235.519 279.089 232.302 281.377 229.688 279.821L221.302 274.829C219.883 273.985 218.117 273.985 216.698 274.829L208.312 279.821C205.698 281.377 202.481 279.089 203.093 276.109L205.181 265.95C205.497 264.412 204.988 262.82 203.838 261.75L196.263 254.703C194.068 252.662 195.287 248.986 198.267 248.661L208.175 247.582C209.785 247.407 211.176 246.379 211.818 244.893L215.787 235.702Z" fill="#FFEB90" stroke="black"/>
<path d="M153.762 81.2139C154.949 78.3183 159.051 78.3183 160.238 81.2139L161.994 85.4971C162.616 87.0146 164.016 88.0728 165.646 88.2598L170.477 88.8145C173.403 89.1502 174.632 92.7306 172.527 94.792L168.471 98.7656C167.39 99.8247 166.913 101.356 167.203 102.842L168.261 108.265C168.847 111.271 165.562 113.528 162.967 111.9L159.391 109.658C157.929 108.742 156.071 108.742 154.609 109.658L151.033 111.9C148.438 113.528 145.153 111.271 145.739 108.265L146.797 102.842C147.087 101.356 146.61 99.8247 145.529 98.7656L141.473 94.792C139.368 92.7306 140.597 89.1502 143.523 88.8145L148.354 88.2598C149.984 88.0728 151.384 87.0146 152.006 85.4971L153.762 81.2139Z" fill="#FFEB90" stroke="black"/>
</svg>
