<svg width="300" height="400" viewBox="0 0 300 400" fill="none" xmlns="http://www.w3.org/2000/svg">
<path d="M152.5 169.5C175.717 169.5 192.793 172.047 204.049 175.306C209.679 176.936 213.833 178.738 216.567 180.476C217.935 181.345 218.931 182.186 219.579 182.967C220.23 183.751 220.5 184.435 220.5 185C220.5 185.505 220.158 186.156 219.277 186.935C218.413 187.698 217.113 188.51 215.399 189.34C211.977 190.997 206.998 192.68 200.818 194.188C188.464 197.204 171.378 199.5 152.5 199.5C133.622 199.5 116.536 197.204 104.182 194.188C98.0015 192.68 93.0228 190.997 89.6006 189.34C87.8874 188.51 86.5869 187.698 85.7227 186.935C84.8425 186.156 84.5 185.505 84.5 185C84.5 183.782 85.3516 182.186 87.624 180.451C89.881 178.728 93.4616 176.93 98.7109 175.303C108.879 172.15 125.215 169.66 150.068 169.508L152.5 169.5Z" fill="#6F3B28" stroke="black"/>
<path d="M148.5 162C88.8466 162 77.6667 171.199 74.6615 181.568C74.1045 183.489 74.0214 185.507 74.064 187.507L76.5597 304.806C76.8263 317.334 84.5658 328.675 96.6252 332.081C141.833 344.848 184.058 340.817 211.142 333.885C223.147 330.813 230.5 319.469 230.5 307.077V186.851C230.5 185.286 230.406 183.721 230.15 182.177C228.591 172.785 223.242 162 148.5 162Z" stroke="black" stroke-linecap="round"/>
<path d="M261 200C244.6 195.6 233.833 200.5 230.5 205V215.5C248.5 203.9 258.333 211.667 261 216.5C263.989 239.833 266.073 285.5 250.5 285.5C234.927 285.5 230.678 283.5 230.5 282.5V295C255 302 266.5 293 269.5 287.5C276.5 260 277.4 204.4 261 200Z" fill="white" stroke="black" stroke-linecap="round"/>
<path d="M126.137 213.25C132.805 213.25 138.914 217.511 143.381 224.551C147.844 231.585 150.621 241.332 150.621 252.125C150.621 262.918 147.844 272.665 143.381 279.699C138.914 286.739 132.805 291 126.137 291C121.144 291 114.56 288.866 109.458 282.97C104.361 277.078 100.696 267.375 101.651 252.156C102.329 241.363 105.11 231.603 109.408 224.559C113.709 217.51 119.478 213.25 126.137 213.25Z" fill="white" stroke="black"/>
<path d="M179.08 212C185.744 212 191.854 216.326 196.322 223.48C200.786 230.628 203.563 240.533 203.563 251.5C203.563 262.5 201.648 272.404 197.622 279.539C193.61 286.649 187.516 291 179.08 291C173.902 291 169.806 289.472 166.563 286.964C163.314 284.451 160.896 280.933 159.117 276.922C155.555 268.89 154.596 258.972 154.596 251.5C154.596 240.533 157.374 230.628 161.838 223.48C166.307 216.326 172.416 212 179.08 212Z" fill="white" stroke="black"/>
<path d="M139.375 263.375C139.375 272.695 137.453 280.25 131.687 280.25C125.922 280.25 124 272.695 124 263.375C124 254.055 127.442 246.5 131.687 246.5C135.933 246.5 139.375 254.055 139.375 263.375Z" fill="black"/>
<path d="M182.375 264.375C182.375 273.695 179.812 281.25 174.687 281.25C169.562 281.25 167 273.695 167 264.375C167 255.055 170.442 247.5 174.687 247.5C178.933 247.5 182.375 255.055 182.375 264.375Z" fill="black"/>
<path d="M145 291.5C148.473 293.825 155.4 296.891 161 291.5" stroke="black" stroke-width="3" stroke-linecap="round"/>
<path d="M101 289.177L103.941 279.5" stroke="#F3B6B6" stroke-width="3" stroke-linecap="round"/>
<path d="M106.881 289.177L109.822 279.5" stroke="#F3B6B6" stroke-width="3" stroke-linecap="round"/>
<path d="M195 289.177L197.941 279.5" stroke="#F3B6B6" stroke-width="3" stroke-linecap="round"/>
<path d="M200.881 289.177L203.822 279.5" stroke="#F3B6B6" stroke-width="3" stroke-linecap="round"/>
<path d="M116.796 177.439L113.6 181.7C112.447 183.238 113.413 185.067 115.314 185.347C120.268 186.075 127.707 188.457 133.274 190.481C134.593 190.961 136 189.991 136 188.588V180.748C136 179.747 135.26 178.9 134.268 178.766L118.663 176.657C117.945 176.56 117.231 176.859 116.796 177.439Z" fill="#F3ECE2"/>
<path d="M159.591 180.461L157.285 188.698C156.906 190.049 158 191.359 159.397 191.228L184.978 188.83C186.527 188.685 187.325 186.905 186.402 185.652L182.099 179.814C181.723 179.302 181.125 179 180.489 179H161.517C160.62 179 159.833 179.597 159.591 180.461Z" fill="#F3ECE2"/>
<path d="M151.414 168.586L147.45 172.55C146.122 173.878 147.19 176.138 149.059 175.955L167.195 174.177C168.219 174.077 169 173.215 169 172.186V170C169 168.895 168.105 168 167 168H152.828C152.298 168 151.789 168.211 151.414 168.586Z" fill="#F3ECE2"/>
<path d="M116.796 177.439L113.6 181.7C112.447 183.238 113.413 185.067 115.314 185.347C120.268 186.075 127.707 188.457 133.274 190.481C134.593 190.961 136 189.991 136 188.588V180.748C136 179.747 135.26 178.9 134.268 178.766L118.663 176.657C117.945 176.56 117.231 176.859 116.796 177.439Z" stroke="black" stroke-linecap="round" stroke-linejoin="round"/>
<path d="M159.591 180.461L157.285 188.698C156.906 190.049 158 191.359 159.397 191.228L184.978 188.83C186.527 188.685 187.325 186.905 186.402 185.652L182.099 179.814C181.723 179.302 181.125 179 180.489 179H161.517C160.62 179 159.833 179.597 159.591 180.461Z" stroke="black" stroke-linecap="round" stroke-linejoin="round"/>
<path d="M151.414 168.586L147.45 172.55C146.122 173.878 147.19 176.138 149.059 175.955L167.195 174.177C168.219 174.077 169 173.215 169 172.186V170C169 168.895 168.105 168 167 168H152.828C152.298 168 151.789 168.211 151.414 168.586Z" stroke="black" stroke-linecap="round" stroke-linejoin="round"/>
</svg>
