<svg width="300" height="400" viewBox="0 0 300 400" fill="none" xmlns="http://www.w3.org/2000/svg">
<g clip-path="url(#clip0_90_195)">
<path d="M80.5 109L77.5 192C42 232.5 45 274.5 90.5 306.5C58.9 337.3 48.6667 394.333 48 411L272.5 417C264.9 365.8 228 314.667 211 306.5C223 300.1 235.333 278.167 240 268C253.2 229.6 239.833 199 231.5 188.5L211 104L182.5 182.5C156.5 166 135 172.667 125 176.5L80.5 109Z" fill="#797979" stroke="black" stroke-linecap="round" stroke-linejoin="round"/>
<path d="M151.561 307.422C152.602 304.234 158.158 299.461 172.058 305.88C168.197 310.5 158.694 317.277 151.561 307.422Z" fill="#0F7B60" stroke="black" stroke-linecap="round" stroke-linejoin="round"/>
<path d="M149.352 317.754C147.617 314.883 141.125 311.491 129.037 320.886C133.842 324.514 144.632 328.967 149.352 317.754Z" fill="#0F7B60" stroke="black" stroke-linecap="round" stroke-linejoin="round"/>
<path d="M148 309.5C146.5 306.5 147.1 299.2 161.5 294C162 300 160 311.5 148 309.5Z" fill="#0F7B60" stroke="black" stroke-linecap="round" stroke-linejoin="round"/>
<path d="M106 257C117.167 255.334 139.9 245.7 141.5 220.5C144.333 232.667 155.8 257 179 257" stroke="black" stroke-linecap="round" stroke-linejoin="round"/>
<path d="M150.526 212.5H132.159C130.135 212.5 129.391 215.162 131.122 216.211L140.447 221.862C141.093 222.253 141.904 222.248 142.544 221.848L151.586 216.196C153.29 215.131 152.536 212.5 150.526 212.5Z" fill="black" stroke="black" stroke-linecap="round" stroke-linejoin="round"/>
<path d="M78.5 217.5C85.8333 206.5 106 199.8 128 223C117.5 248 84.5 239.5 78.5 217.5Z" fill="white"/>
<path d="M159 223C166.667 212.334 191 191.9 215 217.5C207.5 229 184.5 255 159 223Z" fill="white"/>
<path d="M78.5 217.5C85.8333 206.5 106 199.8 128 223C117.5 248 84.5 239.5 78.5 217.5Z" stroke="black" stroke-linecap="round" stroke-linejoin="round"/>
<path d="M159 223C166.667 212.334 191 191.9 215 217.5C207.5 229 184.5 255 159 223Z" stroke="black" stroke-linecap="round" stroke-linejoin="round"/>
<path d="M102.5 207.5C99 215.5 94.5 232.9 104.5 238.5C107.833 231.834 112.1 216.3 102.5 207.5Z" fill="#292F66"/>
<path d="M191 205.5C185.833 211.834 178.6 227.8 191 237C193.833 232.667 200.5 213 191 205.5Z" fill="#292F66"/>
<path d="M102.5 207.5C99 215.5 94.5 232.9 104.5 238.5C107.833 231.834 112.1 216.3 102.5 207.5Z" stroke="black" stroke-linecap="round" stroke-linejoin="round"/>
<path d="M191 205.5C185.833 211.834 178.6 227.8 191 237C193.833 232.667 200.5 213 191 205.5Z" stroke="black" stroke-linecap="round" stroke-linejoin="round"/>
<path d="M113 180.5L87 186.5V137L113 180.5Z" fill="#C76E6E"/>
<path d="M205 137L192 180.5L219.5 186.5L205 137Z" fill="#C76E6E"/>
<path d="M113 180.5L87 186.5V137L113 180.5Z" stroke="black" stroke-linecap="round" stroke-linejoin="round"/>
<path d="M205 137L192 180.5L219.5 186.5L205 137Z" stroke="black" stroke-linecap="round" stroke-linejoin="round"/>
<path d="M203 246L264 232.5M203 246L264 252.5M203 246L250.5 271.5" stroke="black" stroke-linecap="round" stroke-linejoin="round"/>
<path d="M91 243L30 229.5M91 243L30 249.5M91 243L43.5 268.5" stroke="black" stroke-linecap="round" stroke-linejoin="round"/>
<path d="M142.5 301.5C146.918 301.5 150.5 305.082 150.5 309.5C150.5 313.918 146.918 317.5 142.5 317.5C138.082 317.5 134.5 313.918 134.5 309.5C134.5 305.082 138.082 301.5 142.5 301.5Z" fill="#A80202" stroke="black"/>
<circle cx="153" cy="316" r="9.5" fill="#A80202" stroke="black"/>
</g>
<defs>
<clipPath id="clip0_90_195">
<rect width="300" height="400" fill="white"/>
</clipPath>
</defs>
</svg>
