<svg width="300" height="400" viewBox="0 0 300 400" fill="none" xmlns="http://www.w3.org/2000/svg">
<g clip-path="url(#clip0_90_60)">
<path d="M43.3573 193.277L82.723 228.937C83.9519 230.051 85.8682 229.884 86.8863 228.575C87.7979 227.403 87.657 225.727 86.5624 224.724L47.4728 188.892C46.8529 188.324 46.5 187.521 46.5 186.68V177.6C46.5 176.164 45.336 175 43.9002 175C42.5447 175 41.4167 176.041 41.3086 177.393L40.699 185.012C40.5837 186.454 39.456 187.608 38.0173 187.757L28.2179 188.771C27.0611 188.89 26.2931 190.026 26.6126 191.144C26.8419 191.947 27.5755 192.5 28.4103 192.5H41.3432C42.0877 192.5 42.8056 192.777 43.3573 193.277Z" fill="#4D301A" stroke="black"/>
<path d="M257.194 183.314L222.992 223.953C221.924 225.222 220.003 225.315 218.818 224.155C217.756 223.117 217.67 221.437 218.62 220.296L252.525 179.524C253.062 178.877 253.304 178.034 253.191 177.201L252.021 168.6C251.798 166.958 252.948 165.446 254.59 165.223C256.231 165 257.743 166.15 257.967 167.792L258.505 171.755C258.729 173.397 260.241 174.547 261.882 174.324L269.314 173.313C270.956 173.09 272.468 174.24 272.691 175.881L272.893 177.368C273.116 179.01 271.966 180.521 270.324 180.745L259.085 182.273C258.347 182.373 257.673 182.744 257.194 183.314Z" fill="#4D301A" stroke="black"/>
<mask id="path-3-inside-1_90_60" fill="white">
<path d="M150 91C182.585 91 209 116.296 209 147.5C209 163.013 202.47 177.065 191.9 187.275C211.869 200.212 225 222.134 225 247C225 261.224 220.703 274.483 213.288 285.649C238.635 304.188 255 333.505 255 366.5C255 422.557 207.766 468 149.5 468C91.234 468 44 422.557 44 366.5C44 333.212 60.6555 303.667 86.3867 285.157C79.1712 274.094 75 261.015 75 247C75 222.134 88.1305 200.212 108.099 187.275C97.5291 177.065 91 163.013 91 147.5C91 116.296 117.415 91 150 91Z"/>
</mask>
<path d="M150 91C182.585 91 209 116.296 209 147.5C209 163.013 202.47 177.065 191.9 187.275C211.869 200.212 225 222.134 225 247C225 261.224 220.703 274.483 213.288 285.649C238.635 304.188 255 333.505 255 366.5C255 422.557 207.766 468 149.5 468C91.234 468 44 422.557 44 366.5C44 333.212 60.6555 303.667 86.3867 285.157C79.1712 274.094 75 261.015 75 247C75 222.134 88.1305 200.212 108.099 187.275C97.5291 177.065 91 163.013 91 147.5C91 116.296 117.415 91 150 91Z" fill="white"/>
<path d="M191.9 187.275L191.206 186.556L190.301 187.43L191.357 188.115L191.9 187.275ZM213.288 285.649L212.455 285.096L211.926 285.892L212.698 286.457L213.288 285.649ZM86.3867 285.157L86.9707 285.969L87.7462 285.411L87.2243 284.611L86.3867 285.157ZM108.099 187.275L108.642 188.115L109.698 187.43L108.793 186.556L108.099 187.275ZM150 91V92C182.074 92 208 116.889 208 147.5H209H210C210 115.703 183.096 90 150 90V91ZM209 147.5H208C208 162.724 201.593 176.522 191.206 186.556L191.9 187.275L192.595 187.995C203.347 177.608 210 163.302 210 147.5H209ZM191.9 187.275L191.357 188.115C211.063 200.881 224 222.498 224 247H225H226C226 221.769 212.675 199.542 192.444 186.436L191.9 187.275ZM225 247H224C224 261.018 219.766 274.087 212.455 285.096L213.288 285.649L214.121 286.203C221.64 274.88 226 261.429 226 247H225ZM213.288 285.649L212.698 286.457C237.806 304.82 254 333.846 254 366.5H255H256C256 333.163 239.463 303.555 213.878 284.842L213.288 285.649ZM255 366.5H254C254 421.969 207.251 467 149.5 467V468V469C208.282 469 256 423.145 256 366.5H255ZM149.5 468V467C91.7495 467 45 421.969 45 366.5H44H43C43 423.145 90.7185 469 149.5 469V468ZM44 366.5H45C45 333.557 61.4814 304.304 86.9707 285.969L86.3867 285.157L85.8028 284.345C59.8297 303.029 43 332.867 43 366.5H44ZM86.3867 285.157L87.2243 284.611C80.1103 273.704 76 260.813 76 247H75H74C74 261.217 78.2321 274.485 85.5491 285.704L86.3867 285.157ZM75 247H76C76 222.499 88.9365 200.881 108.642 188.115L108.099 187.275L107.555 186.436C87.3246 199.542 74 221.769 74 247H75ZM108.099 187.275L108.793 186.556C98.4059 176.522 92 162.724 92 147.5H91H90C90 163.302 96.6522 177.608 107.404 187.995L108.099 187.275ZM91 147.5H92C92 116.889 117.926 92 150 92V91V90C116.904 90 90 115.703 90 147.5H91Z" fill="black" mask="url(#path-3-inside-1_90_60)"/>
<path d="M152.741 164.945C157.347 153.999 150.612 148.583 146.321 147.105C146.113 147.033 145.888 147.042 145.681 147.119L89.5255 168.066C88.4428 168.47 88.7942 170.083 89.9468 170L151.904 165.543C152.271 165.516 152.599 165.284 152.741 164.945Z" fill="#FF904B" stroke="black"/>
<ellipse cx="123" cy="139.5" rx="6" ry="7.5" fill="#060606"/>
<ellipse cx="174" cy="139.5" rx="6" ry="7.5" fill="#060606"/>
<circle cx="144" cy="232" r="6" fill="#060606"/>
<circle cx="144" cy="259" r="6" fill="#060606"/>
<circle cx="144" cy="286" r="6" fill="#060606"/>
<path d="M168.375 250.104L157.256 207.482C157.115 206.942 157.443 206.391 157.985 206.258L184.497 199.746C185.046 199.612 185.597 199.957 185.714 200.51L195.477 246.532C195.664 247.418 194.672 248.078 193.928 247.561L178.903 237.127C178.419 236.791 177.75 236.944 177.461 237.458L170.214 250.342C169.773 251.126 168.602 250.974 168.375 250.104Z" fill="#6A1212" stroke="black"/>
<path d="M91.5 203C84.4362 201.038 94.1204 186.723 100.155 179.415C100.372 179.153 100.695 179.025 101.032 179.065C129.867 182.531 179.788 177.5 201.385 174.516C201.464 174.505 201.544 174.504 201.624 174.513C212.909 175.81 211.052 193.478 208.614 202.581C208.542 202.852 208.365 203.069 208.113 203.194C175.405 219.39 100.465 205.49 91.5 203Z" fill="#E63838" stroke="black"/>
</g>
<defs>
<clipPath id="clip0_90_60">
<rect width="300" height="400" fill="white"/>
</clipPath>
</defs>
</svg>
