<svg width="300" height="400" viewBox="0 0 300 400" fill="none" xmlns="http://www.w3.org/2000/svg">
<path d="M104 161.142C98.5001 151.475 90.8001 130.542 104 124.142C117.2 117.742 136.5 139.808 144.5 151.642H156C160.5 127.142 225.5 103.642 197 161.142L188.5 171.642H106L104 161.142Z" fill="#FFDE39"/>
<path d="M144.5 151.642C136.5 139.808 117.2 117.742 104 124.142C90.8001 130.542 98.5001 151.475 104 161.142L106 171.642H188.5L197 161.142C225.5 103.642 160.5 127.142 156 151.642M144.5 151.642V164.642H156V151.642M144.5 151.642H156" stroke="black"/>
<rect x="47.5" y="162.642" width="205" height="199" rx="4.5" fill="#D51B1B" stroke="black"/>
<rect x="134.5" y="162.642" width="29" height="199" fill="#FFDE39" stroke="black"/>
<rect x="47.5" y="277.642" width="31" height="205" transform="rotate(-90 47.5 277.642)" fill="#FFDE39" stroke="black"/>
<path d="M128.556 220.927C134.578 220.927 140.132 225.276 144.209 232.53C148.277 239.769 150.809 249.803 150.809 260.913C150.809 272.023 148.277 282.057 144.209 289.296C140.132 296.551 134.578 300.9 128.556 300.9C124.044 300.899 118.065 298.723 113.42 292.661C108.774 286.599 105.432 276.607 106.303 260.941C106.92 249.833 109.454 239.788 113.372 232.538C117.298 225.273 122.544 220.927 128.556 220.927Z" fill="white" stroke="black"/>
<path d="M176.771 219.642C182.789 219.642 188.343 224.057 192.421 231.43C196.49 238.785 199.024 248.981 199.024 260.271C199.024 271.589 197.278 281.784 193.607 289.13C189.945 296.458 184.403 300.899 176.771 300.899C167.438 300.899 161.885 294.697 158.64 286.437C155.392 278.168 154.518 267.959 154.518 260.271C154.518 248.981 157.05 238.785 161.12 231.43C165.198 224.057 170.753 219.642 176.771 219.642Z" fill="white" stroke="black"/>
<path d="M141.664 274.405C141.664 283.988 139.913 291.756 134.663 291.756C129.412 291.756 127.662 283.988 127.662 274.405C127.662 264.822 130.796 257.053 134.663 257.053C138.529 257.053 141.664 264.822 141.664 274.405Z" fill="black"/>
<path d="M175.654 274.405C175.654 283.988 173.32 291.756 168.653 291.756C163.986 291.756 161.652 283.988 161.652 274.405C161.652 264.822 164.786 257.053 168.653 257.053C172.519 257.053 175.654 264.822 175.654 274.405Z" fill="black"/>
<path d="M193.645 304.142L196.977 293.174" stroke="#F3B6B6" stroke-width="3" stroke-linecap="round"/>
<path d="M200.31 304.142L203.643 293.174" stroke="#F3B6B6" stroke-width="3" stroke-linecap="round"/>
<path d="M95 304.142L98.3326 293.174" stroke="#F3B6B6" stroke-width="3" stroke-linecap="round"/>
<path d="M101.665 304.142L104.998 293.174" stroke="#F3B6B6" stroke-width="3" stroke-linecap="round"/>
</svg>
