<svg width="300" height="400" viewBox="0 0 300 400" fill="none" xmlns="http://www.w3.org/2000/svg">
<g clip-path="url(#clip0_90_236)">
<path d="M201.88 444.066C191.876 454.082 185.644 444.819 179.065 442.905C177.507 442.452 176.755 440.618 176.535 438.04L144.842 441.164L144.593 446.4C144.332 451.917 139.648 456.161 134.133 455.881L131.89 455.767C130.245 455.683 128.645 455.194 127.232 454.344L114.098 446.442C106.043 448.839 91.6436 449.72 98.4843 434.07C103.952 421.561 103.808 414.414 102.597 411.196C102.129 409.95 101.264 408.872 100.722 407.655C92.1847 388.488 81.6258 353.748 102.243 354.797L86.4339 269.301C86.1079 267.539 86.261 265.723 86.877 264.042L118.338 178.239C119.613 174.761 122.71 172.281 126.384 171.796L152.85 168.301C154.224 168.119 155.621 168.226 156.953 168.613L189.759 178.153C192.698 179.008 195.088 181.159 196.249 183.993L221.436 245.501C222.451 247.979 222.432 250.758 221.384 253.216L210.986 277.594C210.102 279.667 209.984 281.964 210.313 284.197C212.545 299.311 208.082 330.49 203.71 359.958C210.839 355.234 220.181 362.059 200.524 427.157C207.345 425.75 220.788 425.135 219.989 433.936C219.191 442.736 208.45 441.243 203.179 439.396C203.148 441.614 202.522 443.213 201.88 444.066Z" fill="white"/>
<path d="M177.241 350.718L180.274 413.846C180.33 415.01 180.178 416.172 179.854 417.29C178.091 423.367 176.06 432.451 176.535 438.04M143.792 342.701L144.18 394.82L144.842 441.164M144.842 441.164L144.593 446.4C144.332 451.917 139.648 456.161 134.133 455.881L131.89 455.767C130.245 455.683 128.645 455.194 127.232 454.344L114.098 446.442M144.842 441.164L176.535 438.04M114.098 446.442L122.188 438.342C124.054 436.473 125.102 433.938 125.101 431.292L125.088 375.43L114.413 299.106M114.098 446.442C106.043 448.839 91.6436 449.72 98.4843 434.07C103.952 421.561 103.808 414.414 102.597 411.196C102.129 409.95 101.264 408.872 100.722 407.655C92.1847 388.488 81.6258 353.748 102.243 354.797L86.4339 269.301C86.1079 267.539 86.261 265.723 86.877 264.042L118.338 178.239C119.613 174.761 122.71 172.281 126.384 171.796L152.85 168.301C154.224 168.119 155.621 168.226 156.953 168.613L189.759 178.153C192.698 179.008 195.088 181.159 196.249 183.993L221.436 245.501C222.451 247.979 222.432 250.758 221.384 253.216L210.986 277.594C210.102 279.667 209.984 281.964 210.313 284.197C212.545 299.311 208.082 330.49 203.71 359.958M203.71 359.958C198.99 391.77 194.375 421.589 198.398 427.049C202.132 432.116 203.221 436.342 203.179 439.396M203.71 359.958C210.839 355.234 220.181 362.059 200.524 427.157C207.345 425.75 220.788 425.135 219.989 433.936C219.191 442.736 208.45 441.243 203.179 439.396M203.179 439.396C203.148 441.614 202.522 443.213 201.88 444.066C191.876 454.082 185.644 444.819 179.065 442.905C177.507 442.452 176.755 440.618 176.535 438.04" stroke="black" stroke-linecap="round" stroke-linejoin="round"/>
<path d="M108.345 275.282L109.555 249.765L92.8744 256.949C88.9242 258.65 86.5154 262.694 86.8957 266.986L88.395 283.909C88.4468 284.494 88.5498 285.072 88.7029 285.639L92.824 300.891C92.9522 301.365 93.0453 301.848 93.1026 302.336L94.5883 314.98C94.6842 315.796 95.255 316.48 96.0415 316.72C97.3279 317.113 98.6369 316.193 98.7005 314.85L99.5524 296.883C99.626 295.331 101.614 294.747 102.524 296.01C103.562 297.453 105.828 296.458 105.461 294.72L101.993 278.274C101.609 276.452 103.812 275.24 105.15 276.538C106.317 277.671 108.268 276.903 108.345 275.282Z" fill="#A56F3C" stroke="black" stroke-linecap="round" stroke-linejoin="round"/>
<path d="M148.381 157.73C155.907 156.824 163.247 158.065 168.33 159.655C170.001 160.177 171.424 161.221 172.545 162.524L174.876 162.642C176.119 162.706 177.317 163.136 178.318 163.879L185.062 168.889C188.888 171.73 193.467 173.376 198.22 173.618C201.151 173.767 204.035 174.43 206.74 175.577L206.92 175.652C214.356 178.804 219.935 185.206 222.04 193.002L224.791 203.19L230.071 216.818C231.326 220.058 231.89 223.523 231.726 226.989L231.676 228.04C231.552 230.642 231.97 233.244 232.902 235.68L233.088 236.164C234.783 240.589 234.722 245.489 232.919 249.859L232.167 251.683C230.925 254.693 228.622 257.139 225.693 258.559C223.295 259.722 221.341 261.635 220.126 264.008L216.883 270.348C215.199 273.638 211.742 275.632 208.045 275.444C204.714 275.275 201.714 273.357 200.157 270.401L199.31 268.795C198.259 266.799 197.76 264.559 197.867 262.309L197.98 259.925C198.145 256.441 197.151 252.996 195.152 250.131C192.582 246.446 191.591 241.889 192.402 237.48L195.058 223.031C195.448 220.909 196.357 218.919 197.704 217.237C199.293 215.253 200.213 212.815 200.334 210.272L200.472 207.363C200.631 204.011 199.987 200.666 198.594 197.608L197.476 195.155C195.189 190.134 191.544 185.849 186.955 182.786L182.189 179.605C182.174 179.595 182.158 179.584 182.144 179.572L180.291 178.014C179.836 180.432 178.62 182.739 176.74 184.523C172.366 188.673 168.238 193.434 166.274 197.732C165.293 199.879 164.878 201.857 165.188 203.561C165.492 205.238 166.513 206.724 168.571 207.888C173.64 210.755 176.899 215.615 178.936 220.785C180.973 225.956 181.806 231.481 181.996 235.754C182.105 238.202 181.148 240.585 179.295 242.205C177.255 243.99 174.731 245.722 172.356 246.285C171.159 246.569 169.961 246.565 168.879 246.081C167.791 245.594 166.888 244.651 166.228 243.191C164.732 239.88 162.893 238.483 161.275 238.011C159.652 237.538 158.154 237.967 157.276 238.504L156.1 239.293C150.39 243.088 147.153 244.638 145.564 245.121C144.779 245.36 143.947 245.258 143.262 245.151C139.43 244.555 137.126 242.86 136.071 240.389C135.036 237.962 135.258 234.902 136.184 231.672C138.04 225.199 142.82 217.689 147.025 212.24C147.908 211.095 148.564 209.806 148.84 208.416C150.883 198.144 149.53 190.796 146.768 185.67C144.005 180.541 139.802 177.585 136.055 176.146C135.082 175.773 134.057 175.703 133.03 175.851C132.618 176.804 132.038 177.696 131.297 178.479L126.631 183.405C124.585 185.566 123.11 188.205 122.34 191.082L119.049 203.383C118.594 205.083 117.955 206.729 117.144 208.29C114.613 213.166 113.888 218.787 115.098 224.158L116.194 229.024C116.796 231.699 117.036 234.443 116.906 237.181L116.565 244.379C116.245 251.119 113.7 257.555 109.327 262.68L108.488 263.663C106.775 265.67 104.731 267.368 102.443 268.683L95.9994 272.385C93.4926 273.826 91.8944 276.445 91.7572 279.337L91.6687 281.203C91.3946 286.985 85.3973 290.665 80.1079 288.298C79.5559 288.051 79.0322 287.744 78.547 287.382L77.2381 286.408C73.4056 283.554 70.5519 279.579 69.0732 275.037L66.7605 267.934L66.7606 267.933L66.7093 267.799C64.5297 261.963 64.2326 255.596 65.8595 249.595L66.0289 248.97C67.2819 244.349 67.253 239.468 65.9445 234.853C65.1347 231.997 64.7932 229.03 64.9336 226.068L65.4088 216.047C65.495 214.229 65.8103 212.429 66.347 210.691L67.2988 207.609C69.0327 201.995 73.6809 197.778 79.4355 196.595C82.1712 196.032 84.6958 194.724 86.7301 192.814L92.5235 187.374C94.3903 185.621 96.0198 183.631 97.3707 181.455L102.332 173.465C104.141 170.551 106.598 168.096 109.514 166.29L113.338 163.921C117.495 161.346 122.691 161.099 127.09 163.265L128.677 164.047C129.373 164.39 130.018 164.818 130.599 165.318C135.884 160.669 142.204 158.475 148.381 157.73Z" fill="#A56F3C"/>
<path d="M148.381 157.73L148.32 157.234L148.32 157.234L148.381 157.73ZM168.33 159.655L168.478 159.177L168.478 159.177L168.33 159.655ZM172.545 162.524L172.166 162.849C172.256 162.953 172.384 163.016 172.521 163.023L172.545 162.524ZM174.876 162.642L174.852 163.142L174.876 162.642ZM178.318 163.879L178.615 163.478L178.615 163.478L178.318 163.879ZM185.062 168.889L184.765 169.29L184.765 169.29L185.062 168.889ZM198.22 173.618L198.196 174.117L198.22 173.618ZM206.74 175.577L206.546 176.037L206.548 176.038L206.74 175.577ZM206.92 175.652L207.114 175.192L207.112 175.191L206.92 175.652ZM222.04 193.002L221.558 193.131L221.558 193.131L222.04 193.002ZM224.791 203.19L224.309 203.319C224.313 203.336 224.319 203.353 224.325 203.37L224.791 203.19ZM230.071 216.818L229.605 216.997L230.071 216.818ZM231.726 226.989L232.225 227.015L232.225 227.015L231.726 226.989ZM231.676 228.04L232.175 228.065L231.676 228.04ZM232.902 235.68L232.435 235.858L232.436 235.859L232.902 235.68ZM233.088 236.164L233.555 235.987L233.555 235.986L233.088 236.164ZM232.919 249.859L232.457 249.667L232.457 249.667L232.919 249.859ZM232.167 251.683L232.629 251.875L232.629 251.875L232.167 251.683ZM225.693 258.559L225.474 258.109L225.693 258.559ZM220.126 264.008L219.681 263.779L219.681 263.779L220.126 264.008ZM216.883 270.348L217.328 270.577L217.328 270.577L216.883 270.348ZM208.045 275.444L208.021 275.944L208.021 275.944L208.045 275.444ZM200.157 270.401L200.599 270.169L200.599 270.169L200.157 270.401ZM199.31 268.795L198.868 269.027L198.868 269.027L199.31 268.795ZM197.867 262.309L197.367 262.283L197.367 262.283L197.867 262.309ZM197.98 259.925L198.479 259.95L197.98 259.925ZM195.152 250.131L195.562 249.845L195.562 249.845L195.152 250.131ZM192.402 237.48L191.91 237.387L191.91 237.387L192.402 237.48ZM195.058 223.031L194.566 222.939L194.566 222.939L195.058 223.031ZM197.704 217.237L197.314 216.923L197.704 217.237ZM200.334 210.272L200.833 210.298L200.833 210.298L200.334 210.272ZM200.472 207.363L200.971 207.389L200.971 207.389L200.472 207.363ZM198.594 197.608L198.139 197.814L198.139 197.814L198.594 197.608ZM197.476 195.155L197.931 194.949L197.931 194.949L197.476 195.155ZM186.955 182.786L186.678 183.201L186.678 183.201L186.955 182.786ZM182.189 179.605L181.912 180.021L181.912 180.021L182.189 179.605ZM182.144 179.572L181.823 179.955L181.824 179.955L182.144 179.572ZM180.291 178.014L180.612 177.632C180.476 177.518 180.29 177.484 180.123 177.543C179.956 177.602 179.833 177.746 179.8 177.92L180.291 178.014ZM176.74 184.523L177.084 184.886L177.085 184.886L176.74 184.523ZM166.274 197.732L165.82 197.523L165.82 197.523L166.274 197.732ZM165.188 203.561L164.696 203.649L164.696 203.649L165.188 203.561ZM168.571 207.888L168.326 208.323L168.327 208.323L168.571 207.888ZM178.936 220.785L179.401 220.603L179.401 220.603L178.936 220.785ZM181.996 235.754L182.496 235.734L182.496 235.734L181.996 235.754ZM179.295 242.205L179.625 242.582L179.625 242.582L179.295 242.205ZM172.356 246.285L172.473 246.772L172.473 246.772L172.356 246.285ZM168.879 246.081L168.676 246.537L168.676 246.537L168.879 246.081ZM166.228 243.191L166.683 242.987L166.683 242.987L166.228 243.191ZM161.275 238.011L161.414 237.531L161.414 237.531L161.275 238.011ZM157.276 238.504L157.014 238.077C157.008 238.081 157.002 238.084 156.996 238.088L157.276 238.504ZM156.1 239.293L156.378 239.71L156.38 239.708L156.1 239.293ZM145.564 245.121L145.71 245.6L145.71 245.6L145.564 245.121ZM143.262 245.151L143.187 245.645L143.187 245.645L143.262 245.151ZM136.071 240.389L135.611 240.584L135.611 240.584L136.071 240.389ZM136.184 231.672L135.704 231.532L135.704 231.532L136.184 231.672ZM147.025 212.24L146.629 211.934L147.025 212.24ZM148.84 208.416L149.33 208.516L149.33 208.516L148.84 208.416ZM146.768 185.67L147.208 185.434L147.208 185.434L146.768 185.67ZM136.055 176.146L136.233 175.68L136.233 175.68L136.055 176.146ZM133.03 175.851L132.958 175.356C132.786 175.38 132.64 175.492 132.572 175.651L133.03 175.851ZM131.297 178.479L131.66 178.823L131.66 178.823L131.297 178.479ZM126.631 183.405L126.268 183.061L126.268 183.061L126.631 183.405ZM122.34 191.082L121.857 190.951L121.857 190.951L122.34 191.082ZM119.049 203.383L119.532 203.514L119.532 203.514L119.049 203.383ZM117.144 208.29L117.588 208.522L117.588 208.522L117.144 208.29ZM115.098 224.158L115.585 224.05L115.098 224.158ZM116.194 229.024L116.681 228.915L116.194 229.024ZM116.906 237.181L117.405 237.206L117.405 237.206L116.906 237.181ZM116.565 244.379L117.064 244.404L116.565 244.379ZM109.327 262.68L109.708 263.006L109.708 263.005L109.327 262.68ZM108.488 263.663L108.107 263.337L108.107 263.338L108.488 263.663ZM102.443 268.683L102.193 268.249L102.193 268.249L102.443 268.683ZM95.9994 272.385L96.2495 272.819L96.2495 272.819L95.9994 272.385ZM91.7572 279.337L91.2579 279.312L91.2579 279.312L91.7572 279.337ZM91.6687 281.203L92.1681 281.228L91.6687 281.203ZM80.1079 288.298L79.9051 288.754L79.9051 288.754L80.1079 288.298ZM78.547 287.382L78.8447 286.982L78.8445 286.981L78.547 287.382ZM77.2381 286.408L76.9405 286.809L76.9407 286.809L77.2381 286.408ZM69.0732 275.037L69.5485 274.884L69.5485 274.884L69.0732 275.037ZM66.7605 267.934L66.2612 267.909C66.2583 267.969 66.2665 268.03 66.2853 268.088L66.7605 267.934ZM66.7606 267.933L67.2599 267.959C67.2632 267.89 67.2522 267.821 67.2276 267.757L66.7606 267.933ZM66.7093 267.799L66.2411 267.972L66.2422 267.975L66.7093 267.799ZM65.8595 249.595L66.342 249.728L66.342 249.728L65.8595 249.595ZM66.0289 248.97L65.5464 248.838L65.5464 248.838L66.0289 248.97ZM65.9445 234.853L65.4636 234.988L65.4636 234.988L65.9445 234.853ZM64.9336 226.068L64.4343 226.042L64.9336 226.068ZM65.4088 216.047L64.9094 216.021L64.9094 216.021L65.4088 216.047ZM66.347 210.691L66.8247 210.84L66.8247 210.84L66.347 210.691ZM67.2988 207.609L66.8211 207.459L66.8211 207.46L67.2988 207.609ZM79.4355 196.595L79.5377 197.085L79.5377 197.085L79.4355 196.595ZM86.7301 192.814L87.0729 193.179L87.0729 193.179L86.7301 192.814ZM92.5235 187.374L92.1807 187.009L92.1807 187.009L92.5235 187.374ZM97.3707 181.455L96.9458 181.19L96.9458 181.19L97.3707 181.455ZM102.332 173.465L102.757 173.73L102.757 173.73L102.332 173.465ZM109.514 166.29L109.778 166.716L109.778 166.716L109.514 166.29ZM113.338 163.921L113.074 163.495L113.074 163.495L113.338 163.921ZM127.09 163.265L126.87 163.714L126.87 163.714L127.09 163.265ZM128.677 164.047L128.897 163.598L128.897 163.598L128.677 164.047ZM130.599 165.318L130.274 165.697C130.463 165.86 130.743 165.859 130.93 165.694L130.599 165.318ZM148.381 157.73L148.443 158.227C155.883 157.331 163.151 158.558 168.182 160.132L168.33 159.655L168.478 159.177C163.344 157.572 155.931 156.317 148.32 157.234L148.381 157.73ZM168.33 159.655L168.182 160.132C169.748 160.622 171.095 161.604 172.166 162.849L172.545 162.524L172.923 162.198C171.753 160.838 170.254 159.733 168.478 159.177L168.33 159.655ZM172.545 162.524L172.521 163.023L174.852 163.142L174.876 162.642L174.899 162.143L172.568 162.024L172.545 162.524ZM174.876 162.642L174.852 163.142C175.996 163.2 177.099 163.596 178.021 164.28L178.318 163.879L178.615 163.478C177.535 162.676 176.241 162.211 174.899 162.143L174.876 162.642ZM178.318 163.879L178.021 164.28L184.765 169.29L185.062 168.889L185.359 168.487L178.615 163.478L178.318 163.879ZM185.062 168.889L184.765 169.29C188.671 172.19 193.345 173.87 198.196 174.117L198.22 173.618L198.243 173.118C193.59 172.882 189.106 171.27 185.359 168.487L185.062 168.889ZM198.22 173.618L198.196 174.117C201.069 174.263 203.895 174.913 206.546 176.037L206.74 175.577L206.934 175.116C204.174 173.947 201.233 173.27 198.243 173.118L198.22 173.618ZM206.74 175.577L206.548 176.038L206.728 176.113L206.92 175.652L207.112 175.191L206.932 175.116L206.74 175.577ZM206.92 175.652L206.726 176.113C214.02 179.204 219.493 185.484 221.558 193.131L222.04 193.002L222.523 192.874C220.378 184.928 214.692 178.404 207.114 175.192L206.92 175.652ZM222.04 193.002L221.558 193.131L224.309 203.319L224.791 203.19L225.274 203.062L222.523 192.873L222.04 193.002ZM224.791 203.19L224.325 203.37L229.605 216.997L230.071 216.818L230.537 216.639L225.257 203.011L224.791 203.19ZM230.071 216.818L229.605 216.997C230.835 220.172 231.387 223.567 231.226 226.964L231.726 226.989L232.225 227.015C232.392 223.479 231.817 219.944 230.537 216.639L230.071 216.818ZM231.726 226.989L231.226 226.964L231.176 228.014L231.676 228.04L232.175 228.065L232.225 227.015L231.726 226.989ZM231.676 228.04L231.176 228.014C231.05 230.686 231.478 233.357 232.435 235.858L232.902 235.68L233.369 235.503C232.461 233.132 232.055 230.599 232.175 228.065L231.676 228.04ZM232.902 235.68L232.436 235.859L232.622 236.342L233.088 236.164L233.555 235.986L233.369 235.502L232.902 235.68ZM233.088 236.164L232.622 236.342C234.27 240.647 234.211 245.415 232.457 249.667L232.919 249.859L233.381 250.051C235.232 245.563 235.295 240.531 233.555 235.987L233.088 236.164ZM232.919 249.859L232.457 249.667L231.705 251.491L232.167 251.683L232.629 251.875L233.381 250.051L232.919 249.859ZM232.167 251.683L231.705 251.491C230.51 254.388 228.293 256.742 225.474 258.109L225.693 258.559L225.913 259.009C228.951 257.536 231.341 254.998 232.629 251.875L232.167 251.683ZM225.693 258.559L225.474 258.109C222.978 259.319 220.945 261.309 219.681 263.779L220.126 264.008L220.572 264.237C221.737 261.96 223.611 260.125 225.913 259.009L225.693 258.559ZM220.126 264.008L219.681 263.779L216.438 270.119L216.883 270.348L217.328 270.577L220.572 264.237L220.126 264.008ZM216.883 270.348L216.438 270.119C214.843 273.235 211.569 275.123 208.069 274.945L208.045 275.444L208.021 275.944C211.914 276.141 215.555 274.042 217.328 270.577L216.883 270.348ZM208.045 275.444L208.069 274.945C204.914 274.784 202.073 272.968 200.599 270.169L200.157 270.401L199.715 270.633C201.354 273.746 204.513 275.765 208.021 275.944L208.045 275.444ZM200.157 270.401L200.599 270.169L199.752 268.563L199.31 268.795L198.868 269.027L199.715 270.633L200.157 270.401ZM199.31 268.795L199.752 268.563C198.743 266.646 198.264 264.495 198.366 262.334L197.867 262.309L197.367 262.283C197.256 264.623 197.775 266.951 198.868 269.027L199.31 268.795ZM197.867 262.309L198.366 262.334L198.479 259.95L197.98 259.925L197.48 259.899L197.367 262.283L197.867 262.309ZM197.98 259.925L198.479 259.95C198.649 256.356 197.624 252.802 195.562 249.845L195.152 250.131L194.743 250.416C196.678 253.19 197.64 256.526 197.48 259.899L197.98 259.925ZM195.152 250.131L195.562 249.845C193.068 246.27 192.107 241.849 192.893 237.572L192.402 237.48L191.91 237.387C191.075 241.928 192.096 246.621 194.743 250.416L195.152 250.131ZM192.402 237.48L192.893 237.572L195.549 223.124L195.058 223.031L194.566 222.939L191.91 237.387L192.402 237.48ZM195.058 223.031L195.549 223.124C195.925 221.083 196.799 219.168 198.095 217.55L197.704 217.237L197.314 216.923C195.915 218.669 194.971 220.736 194.566 222.939L195.058 223.031ZM197.704 217.237L198.095 217.55C199.749 215.484 200.708 212.946 200.833 210.298L200.334 210.272L199.834 210.247C199.719 212.685 198.837 215.021 197.314 216.923L197.704 217.237ZM200.334 210.272L200.833 210.298L200.971 207.389L200.472 207.363L199.972 207.338L199.834 210.247L200.334 210.272ZM200.472 207.363L200.971 207.389C201.134 203.957 200.475 200.533 199.049 197.402L198.594 197.608L198.139 197.814C199.499 200.8 200.128 204.065 199.972 207.338L200.472 207.363ZM198.594 197.608L199.049 197.402L197.931 194.949L197.476 195.155L197.021 195.361L198.139 197.814L198.594 197.608ZM197.476 195.155L197.931 194.949C195.605 189.843 191.898 185.485 187.231 182.37L186.955 182.786L186.678 183.201C191.19 186.213 194.773 190.425 197.021 195.361L197.476 195.155ZM186.955 182.786L187.231 182.37L182.465 179.189L182.189 179.605L181.912 180.021L186.678 183.201L186.955 182.786ZM182.189 179.605L182.465 179.189L182.465 179.19L182.144 179.572L181.824 179.955C181.859 179.985 181.892 180.007 181.912 180.021L182.189 179.605ZM182.144 179.572L182.465 179.19L180.612 177.632L180.291 178.014L179.97 178.397L181.823 179.955L182.144 179.572ZM180.291 178.014L179.8 177.92C179.364 180.237 178.198 182.449 176.395 184.16L176.74 184.523L177.085 184.886C179.042 183.029 180.309 180.627 180.783 178.108L180.291 178.014ZM176.74 184.523L176.395 184.16C172.01 188.32 167.825 193.135 165.82 197.523L166.274 197.732L166.729 197.941C168.652 193.734 172.721 189.026 177.084 184.886L176.74 184.523ZM166.274 197.732L165.82 197.523C164.817 199.717 164.361 201.804 164.696 203.649L165.188 203.561L165.679 203.473C165.395 201.911 165.769 200.042 166.729 197.941L166.274 197.732ZM165.188 203.561L164.696 203.649C165.031 205.494 166.159 207.097 168.326 208.323L168.571 207.888L168.816 207.453C166.868 206.351 165.954 204.982 165.679 203.473L165.188 203.561ZM168.571 207.888L168.327 208.323C173.261 211.113 176.459 215.86 178.471 220.967L178.936 220.785L179.401 220.603C177.34 215.37 174.02 210.396 168.816 207.453L168.571 207.888ZM178.936 220.785L178.471 220.967C180.483 226.073 181.309 231.541 181.497 235.775L181.996 235.754L182.496 235.734C182.304 231.421 181.464 225.839 179.401 220.603L178.936 220.785ZM181.996 235.754L181.497 235.775C181.599 238.079 180.698 240.313 178.965 241.828L179.295 242.205L179.625 242.582C181.597 240.857 182.611 238.325 182.496 235.734L181.996 235.754ZM179.295 242.205L178.965 241.828C176.942 243.598 174.493 245.264 172.239 245.798L172.356 246.285L172.473 246.772C174.969 246.179 177.568 244.381 179.625 242.582L179.295 242.205ZM172.356 246.285L172.239 245.798C171.112 246.065 170.034 246.05 169.082 245.624L168.879 246.081L168.676 246.537C169.888 247.079 171.205 247.072 172.473 246.772L172.356 246.285ZM168.879 246.081L169.082 245.624C168.131 245.198 167.305 244.362 166.683 242.987L166.228 243.191L165.773 243.396C166.471 244.941 167.452 245.989 168.676 246.537L168.879 246.081ZM166.228 243.191L166.683 242.987C165.144 239.58 163.208 238.055 161.414 237.531L161.275 238.011L161.137 238.491C162.577 238.911 164.319 240.18 165.773 243.396L166.228 243.191ZM161.275 238.011L161.414 237.531C159.632 237.011 157.99 237.48 157.014 238.077L157.276 238.504L157.538 238.931C158.318 238.454 159.671 238.064 161.137 238.491L161.275 238.011ZM157.276 238.504L156.996 238.088L155.821 238.877L156.1 239.293L156.38 239.708L157.555 238.919L157.276 238.504ZM156.1 239.293L155.823 238.876C150.119 242.666 146.933 244.182 145.417 244.643L145.564 245.121L145.71 245.6C147.373 245.095 150.661 243.509 156.378 239.71L156.1 239.293ZM145.564 245.121L145.417 244.643C144.752 244.845 144.023 244.764 143.337 244.657L143.262 245.151L143.187 245.645C143.87 245.751 144.805 245.875 145.71 245.6L145.564 245.121ZM143.262 245.151L143.337 244.657C139.625 244.079 137.499 242.463 136.531 240.194L136.071 240.389L135.611 240.584C136.752 243.257 139.234 245.03 143.187 245.645L143.262 245.151ZM136.071 240.389L136.531 240.194C135.562 237.924 135.751 235.001 136.665 231.811L136.184 231.672L135.704 231.532C134.766 234.804 134.509 237.999 135.611 240.584L136.071 240.389ZM136.184 231.672L136.665 231.811C138.494 225.431 143.227 217.981 147.421 212.547L147.025 212.24L146.629 211.934C142.413 217.397 137.585 224.967 135.704 231.532L136.184 231.672ZM147.025 212.24L147.421 212.547C148.341 211.354 149.036 209.995 149.33 208.516L148.84 208.416L148.349 208.317C148.091 209.616 147.476 210.837 146.629 211.934L147.025 212.24ZM148.84 208.416L149.33 208.516C151.39 198.155 150.037 190.684 147.208 185.434L146.768 185.67L146.328 185.906C149.023 190.908 150.375 198.133 148.349 208.317L148.84 208.416ZM146.768 185.67L147.208 185.434C144.379 180.184 140.075 177.154 136.233 175.68L136.055 176.146L135.877 176.613C139.529 178.015 143.63 180.898 146.328 185.906L146.768 185.67ZM136.055 176.146L136.233 175.68C135.166 175.27 134.053 175.198 132.958 175.356L133.03 175.851L133.103 176.346C134.061 176.208 134.997 176.275 135.877 176.613L136.055 176.146ZM133.03 175.851L132.572 175.651C132.182 176.552 131.634 177.394 130.933 178.134L131.297 178.479L131.66 178.823C132.442 177.997 133.054 177.056 133.489 176.051L133.03 175.851ZM131.297 178.479L130.933 178.134L126.268 183.061L126.631 183.405L126.995 183.75L131.66 178.823L131.297 178.479ZM126.631 183.405L126.268 183.061C124.165 185.282 122.649 187.994 121.857 190.951L122.34 191.082L122.823 191.213C123.572 188.416 125.006 185.851 126.995 183.75L126.631 183.405ZM122.34 191.082L121.857 190.951L118.566 203.252L119.049 203.383L119.532 203.514L122.823 191.213L122.34 191.082ZM119.049 203.383L118.566 203.252C118.12 204.918 117.495 206.529 116.701 208.059L117.144 208.29L117.588 208.522C118.416 206.929 119.067 205.249 119.532 203.514L119.049 203.383ZM117.144 208.29L116.701 208.059C114.114 213.039 113.374 218.78 114.61 224.266L115.098 224.158L115.585 224.05C114.401 218.793 115.111 213.293 117.588 208.522L117.144 208.29ZM115.098 224.158L114.61 224.266L115.706 229.132L116.194 229.024L116.681 228.915L115.585 224.05L115.098 224.158ZM116.194 229.024L115.706 229.132C116.299 231.764 116.534 234.463 116.406 237.155L116.906 237.181L117.405 237.206C117.537 234.424 117.294 231.635 116.681 228.915L116.194 229.024ZM116.906 237.181L116.406 237.155L116.065 244.353L116.565 244.379L117.064 244.404L117.405 237.206L116.906 237.181ZM116.565 244.379L116.065 244.353C115.751 250.983 113.248 257.314 108.947 262.355L109.327 262.68L109.708 263.005C114.152 257.797 116.739 251.255 117.064 244.404L116.565 244.379ZM109.327 262.68L108.947 262.354L108.107 263.337L108.488 263.663L108.868 263.989L109.708 263.006L109.327 262.68ZM108.488 263.663L108.107 263.338C106.432 265.301 104.431 266.963 102.193 268.249L102.443 268.683L102.693 269.116C105.03 267.773 107.119 266.039 108.869 263.988L108.488 263.663ZM102.443 268.683L102.193 268.249L95.7492 271.952L95.9994 272.385L96.2495 272.819L102.693 269.116L102.443 268.683ZM95.9994 272.385L95.7493 271.952C93.0952 273.476 91.4031 276.249 91.2579 279.312L91.7572 279.337L92.2566 279.362C92.3857 276.64 93.8899 274.175 96.2495 272.819L95.9994 272.385ZM91.7572 279.337L91.2579 279.312L91.1694 281.178L91.6687 281.203L92.1681 281.228L92.2566 279.362L91.7572 279.337ZM91.6687 281.203L91.1694 281.178C90.9119 286.608 85.2789 290.065 80.3108 287.841L80.1079 288.298L79.9051 288.754C85.5157 291.265 91.8773 287.361 92.1681 281.228L91.6687 281.203ZM80.1079 288.298L80.3108 287.841C79.7922 287.609 79.3003 287.321 78.8447 286.982L78.547 287.382L78.2493 287.783C78.7641 288.166 79.3196 288.492 79.9051 288.754L80.1079 288.298ZM78.547 287.382L78.8445 286.981L77.5356 286.007L77.2381 286.408L76.9407 286.809L78.2495 287.783L78.547 287.382ZM77.2381 286.408L77.5358 286.008C73.7867 283.215 70.9951 279.327 69.5485 274.884L69.0732 275.037L68.5979 275.191C70.1088 279.832 73.0246 283.892 76.9405 286.809L77.2381 286.408ZM69.0732 275.037L69.5485 274.884L67.2358 267.781L66.7605 267.934L66.2853 268.088L68.5979 275.191L69.0732 275.037ZM66.7605 267.934L67.2599 267.96L67.2599 267.959L66.7606 267.933L66.2612 267.908L66.2612 267.909L66.7605 267.934ZM66.7606 267.933L67.2276 267.757L67.1763 267.622L66.7093 267.799L66.2422 267.975L66.2935 268.11L66.7606 267.933ZM66.7093 267.799L67.1775 267.625C65.0345 261.887 64.7425 255.627 66.342 249.728L65.8595 249.595L65.377 249.463C63.7228 255.564 64.0248 262.038 66.2411 267.972L66.7093 267.799ZM65.8595 249.595L66.342 249.728L66.5115 249.103L66.0289 248.97L65.5464 248.838L65.377 249.463L65.8595 249.595ZM66.0289 248.97L66.5115 249.103C67.7882 244.394 67.7587 239.421 66.4254 234.718L65.9445 234.853L65.4636 234.988C66.7473 239.516 66.7757 244.304 65.5464 248.838L66.0289 248.97ZM65.9445 234.853L66.4254 234.718C65.6304 231.914 65.2951 229.001 65.433 226.093L64.9336 226.068L64.4343 226.042C64.2913 229.059 64.639 232.08 65.4636 234.988L65.9445 234.853ZM64.9336 226.068L65.433 226.093L65.9081 216.072L65.4088 216.047L64.9094 216.021L64.4343 226.042L64.9336 226.068ZM65.4088 216.047L65.9081 216.072C65.9923 214.296 66.3004 212.538 66.8247 210.84L66.347 210.691L65.8694 210.542C65.3202 212.32 64.9976 214.161 64.9094 216.021L65.4088 216.047ZM66.347 210.691L66.8247 210.84L67.7765 207.758L67.2988 207.609L66.8211 207.46L65.8693 210.542L66.347 210.691ZM67.2988 207.609L67.7764 207.758C69.4567 202.318 73.9612 198.231 79.5377 197.085L79.4355 196.595L79.3332 196.105C73.4007 197.325 68.6087 201.673 66.8211 207.459L67.2988 207.609ZM79.4355 196.595L79.5377 197.085C82.3636 196.504 84.9715 195.152 87.0729 193.179L86.7301 192.814L86.3873 192.449C84.4201 194.296 81.9787 195.561 79.3332 196.105L79.4355 196.595ZM86.7301 192.814L87.0729 193.179L92.8663 187.739L92.5235 187.374L92.1807 187.009L86.3873 192.449L86.7301 192.814ZM92.5235 187.374L92.8663 187.739C94.7648 185.957 96.4218 183.933 97.7957 181.72L97.3707 181.455L96.9458 181.19C95.6177 183.33 94.0159 185.286 92.1807 187.009L92.5235 187.374ZM97.3707 181.455L97.7957 181.72L102.757 173.73L102.332 173.465L101.907 173.2L96.9458 181.19L97.3707 181.455ZM102.332 173.465L102.757 173.73C104.525 170.881 106.928 168.481 109.778 166.716L109.514 166.29L109.249 165.865C106.269 167.711 103.756 170.221 101.907 173.2L102.332 173.465ZM109.514 166.29L109.778 166.716L113.602 164.346L113.338 163.921L113.074 163.495L109.249 165.865L109.514 166.29ZM113.338 163.921L113.602 164.346C117.613 161.862 122.626 161.623 126.87 163.714L127.09 163.265L127.309 162.817C122.756 160.574 117.377 160.83 113.074 163.495L113.338 163.921ZM127.09 163.265L126.87 163.714L128.458 164.496L128.677 164.047L128.897 163.598L127.309 162.817L127.09 163.265ZM128.677 164.047L128.458 164.495C129.115 164.819 129.724 165.224 130.274 165.697L130.599 165.318L130.924 164.939C130.312 164.412 129.632 163.96 128.897 163.598L128.677 164.047ZM130.599 165.318L130.93 165.694C136.123 161.127 142.34 158.962 148.443 158.227L148.381 157.73L148.32 157.234C142.068 157.987 135.646 160.212 130.268 164.942L130.599 165.318Z" fill="black"/>
<path d="M180.14 196.073C184.76 196.308 188.319 200.192 188.103 204.733C187.888 209.274 183.979 212.776 179.359 212.542C174.739 212.307 171.18 208.424 171.395 203.883C171.611 199.341 175.52 195.838 180.14 196.073Z" fill="#281807" stroke="black"/>
<path d="M134.402 198.124C138.51 198.333 141.739 202.151 141.522 206.741C141.304 211.33 137.729 214.802 133.621 214.593C129.512 214.384 126.283 210.566 126.5 205.977C126.718 201.387 130.293 197.915 134.402 198.124Z" fill="black"/>
<path d="M134.402 198.124C138.51 198.333 141.739 202.151 141.522 206.741C141.304 211.33 137.729 214.802 133.621 214.593C129.512 214.384 126.283 210.566 126.5 205.977C126.718 201.387 130.293 197.915 134.402 198.124Z" fill="#281807"/>
<path d="M134.402 198.124C138.51 198.333 141.739 202.151 141.522 206.741C141.304 211.33 137.729 214.802 133.621 214.593C129.512 214.384 126.283 210.566 126.5 205.977C126.718 201.387 130.293 197.915 134.402 198.124Z" stroke="black"/>
<path d="M177.58 351.456L180.629 414.14C180.686 415.311 180.532 416.48 180.204 417.604C177.634 426.427 174.501 441.6 179.429 443.026C186.006 444.929 192.236 454.132 202.232 444.186C203.756 442.173 205.193 435.973 198.748 427.282C190.691 416.417 217.236 308.519 209.921 282.011M144.148 343.482L144.551 395.252L145.225 441.286L144.982 446.42C144.72 451.936 140.037 456.181 134.521 455.9L132.273 455.786C130.637 455.703 129.045 455.219 127.637 454.377L124.598 452.559C119.479 449.496 118.6 442.439 122.815 438.245C124.531 436.538 125.495 434.215 125.493 431.789L125.464 375.986L114.772 300.17" stroke="black" stroke-linecap="round" stroke-linejoin="round"/>
<path d="M130.647 304.042C132.904 303.372 134.499 334.122 134.768 335.528C135.037 336.934 140.15 320.685 140.15 320.685C141.025 322.109 141.905 345.245 143.216 344.819C144.526 344.393 147.59 331.489 147.59 331.489C147.59 331.489 157.555 367.964 156.5 360.612C155.446 353.261 157.423 347.913 157.462 340.331C160.924 349.861 163.073 354.665 167.7 361.182C166.424 350.674 166.825 346.532 168.662 340.901C171.192 345.728 172.173 349.377 173.006 357.803C177.539 350.398 178.606 346.916 178.928 341.423L184.453 353.172C186.613 341.098 186.527 335.663 185.71 326.651C185.71 326.651 190.005 344.593 190.056 333.649C190.107 322.705 195.214 314.885 195.441 298.997C197.358 305.296 199.713 307.555 199.713 307.555C199.713 307.555 201.677 290.471 206.079 281.815" stroke="black" stroke-linecap="round" stroke-linejoin="round"/>
<ellipse cx="1.63258" cy="2.62311" rx="1.63258" ry="2.62311" transform="matrix(0.998709 0.0508053 -0.0473587 0.998878 130.401 205.299)" fill="white"/>
<ellipse cx="1.55386" cy="2.62311" rx="1.55386" ry="2.62311" transform="matrix(0.998709 0.0508053 -0.0473587 0.998878 175.153 203.198)" fill="white"/>
<path d="M166.754 213.93C161.943 209.544 156.831 211.312 154.372 213.3C148.784 217.087 152.929 220.803 157.339 223.009C159.328 224.004 161.703 224.011 163.467 222.667C166.58 220.293 169.323 216.272 166.754 213.93Z" fill="#281807" stroke="black" stroke-linecap="round" stroke-linejoin="round"/>
<path d="M179.424 160.861C176.647 146.126 168.225 114.662 156.755 106.681C145.285 98.7013 136.024 121.155 132.149 131.522C132.408 133.413 133.041 135.942 135.83 134.847C138.423 133.829 143.359 129.637 145.318 126.695C140.05 135.705 137.6 153.037 137.768 161.839L179.424 160.861Z" fill="#D51B1B"/>
<path d="M148.424 121.547C147.827 122.344 146.202 124.9 145.712 126.045M145.712 126.045C140.172 134.847 137.596 152.82 137.768 161.839L179.424 160.861C176.647 146.126 168.225 114.662 156.755 106.681C145.285 98.7013 136.024 121.155 132.149 131.522C132.408 133.413 133.041 135.942 135.83 134.847C138.62 133.752 144.126 128.979 145.712 126.045Z" stroke="black" stroke-linecap="round"/>
<path d="M180.919 157.066L181.556 158.078C182.166 159.049 183.432 159.367 184.429 158.802C185.704 158.079 187.312 158.818 187.592 160.256L187.957 162.128C188.247 163.614 187.553 165.118 186.235 165.862L182.065 168.217C180.532 169.083 178.588 168.573 177.678 167.065C176.611 165.297 174.187 164.958 172.675 166.366L172.17 166.836C170.947 167.975 169.126 168.185 167.676 167.356L166.482 166.673C164.639 165.619 162.322 165.907 160.793 167.381C159.198 168.92 156.753 169.159 154.889 167.958L153.136 166.828C151.497 165.772 149.353 165.944 147.903 167.249L147.316 167.778C145.859 169.089 143.613 168.965 142.31 167.501C141.116 166.161 139.108 165.928 137.639 166.958L136.992 167.411C135.501 168.457 133.52 168.481 132.003 167.472L130.556 166.509C129.322 165.688 128.71 164.201 129.008 162.749L129.389 160.9C129.69 159.436 131.316 158.676 132.632 159.385C133.646 159.931 134.909 159.615 135.547 158.656L136.307 157.515C137.373 155.913 139.481 155.382 141.179 156.289L142.863 157.189C144.832 158.241 147.228 158.079 149.037 156.771L149.854 156.181C151.828 154.754 154.478 154.697 156.512 156.037L157.534 156.711C159.321 157.888 161.695 157.61 163.162 156.053L163.246 155.963C164.958 154.146 167.855 154.169 169.538 156.014C170.919 157.529 173.18 157.854 174.932 156.79L176.283 155.971C177.868 155.008 179.932 155.496 180.919 157.066Z" fill="white" stroke="black" stroke-linecap="round"/>
<path d="M135.775 130.085L136.767 130.963C137.588 131.691 138.059 132.736 138.059 133.833C138.059 135.634 136.805 137.192 135.047 137.579L134.354 137.731C132.923 138.045 131.427 137.676 130.306 136.733L129.23 135.827C128.405 135.132 127.928 134.109 127.928 133.03C127.928 131.776 128.572 130.609 129.632 129.939L130.128 129.626C131.903 128.506 134.204 128.693 135.775 130.085Z" fill="white" stroke="black" stroke-linecap="round"/>
</g>
<defs>
<clipPath id="clip0_90_236">
<rect width="300" height="400" fill="white"/>
</clipPath>
</defs>
</svg>
