<svg width="300" height="400" viewBox="0 0 300 400" fill="none" xmlns="http://www.w3.org/2000/svg">
<g clip-path="url(#clip0_90_151)">
<path d="M133.87 298.5H178.214C182.988 298.5 187.02 302.043 187.635 306.777L198.539 390.777C199.277 396.462 194.85 401.5 189.118 401.5H123.773C118.077 401.5 113.662 396.522 114.342 390.866L124.438 306.866C124.993 302.241 128.812 298.726 133.422 298.511L133.87 298.5Z" fill="#9B8D7B" stroke="black"/>
<path d="M35.9799 291.625C29.6126 271.875 55.8201 245.954 70.0279 235.207C70.2447 235.043 70.4188 234.844 70.5541 234.608L80.0299 218.098C80.4145 217.427 81.1509 217.039 81.9213 217.099L238.163 229.391C238.551 229.421 238.936 229.575 239.243 229.814C296.432 274.247 274.509 300.092 255.638 307.872C255.102 308.093 254.679 308.54 254.473 309.082C246.098 331.139 231.164 326.438 222.812 319.944C221.654 319.044 219.874 319.496 219.287 320.84C210.812 340.237 192.077 333.206 182.016 326.053C181.081 325.388 179.773 325.59 179.072 326.498C164.967 344.766 150.061 335.411 142.923 326.806C142.096 325.809 140.555 325.737 139.646 326.659C124.229 342.295 110.31 330.345 103.892 320.358C103.137 319.184 101.441 319.011 100.457 320.001C83.8792 336.672 70.0719 321.441 64.3151 309.978C63.8254 309.003 62.6738 308.559 61.6258 308.862C54.5284 310.915 41.8423 309.809 35.9799 291.625Z" fill="#1F2F21" stroke="black"/>
<path d="M54.8457 231.297C49.3566 214.035 71.9176 191.386 84.1894 181.963C84.4047 181.798 84.5776 181.598 84.7113 181.362L92.7794 167.11C93.1625 166.433 93.9035 166.04 94.6788 166.101L229.257 176.835C229.648 176.866 230.036 177.023 230.345 177.266C279.502 216.022 260.793 238.604 244.54 245.466C244.005 245.691 243.585 246.138 243.38 246.681C236.262 265.543 223.708 261.876 216.452 256.353C215.277 255.459 213.481 255.914 212.876 257.261C205.553 273.574 189.81 267.747 181.139 261.603C180.195 260.934 178.874 261.127 178.166 262.043C166.196 277.52 153.593 269.772 147.377 262.361C146.538 261.36 144.975 261.293 144.054 262.22C131.027 275.32 119.276 265.389 113.68 256.783C112.913 255.604 111.193 255.434 110.196 256.425C96.1359 270.413 84.4263 257.529 79.4224 247.599C78.9278 246.618 77.7639 246.168 76.7039 246.457C70.5305 248.144 59.8302 246.971 54.8457 231.297Z" fill="#195222" stroke="black"/>
<path d="M94.6437 127.101C75.9107 110.837 129.344 84.1524 159.93 72.2719C160.391 72.0928 160.91 72.1059 161.372 72.2834C240.157 102.573 236.574 120.888 223.186 127.403C221.923 128.017 221.509 129.716 222.408 130.796C270.219 188.244 245.425 198.148 225.864 195.838C225.18 195.757 224.495 196.027 224.033 196.537C211.309 210.575 194.278 203.443 185.812 197.036C184.89 196.338 183.561 196.487 182.818 197.374C168.54 214.424 151.186 205.232 142.846 197.183C142.028 196.393 140.717 196.375 139.878 197.142C121.344 214.072 104.134 201.565 97.1074 192.265C96.7155 191.747 96.0711 191.432 95.4211 191.422C51.9397 190.789 76.03 151.514 94.9479 130.232C95.7594 129.319 95.5661 127.902 94.6437 127.101Z" fill="white" stroke="black"/>
<path d="M159.874 36.3828C160.851 34.8043 163.149 34.8043 164.126 36.3828L173.253 51.123C173.773 51.9632 174.625 52.5451 175.597 52.7236L193.348 55.9834C195.335 56.3483 196.091 58.7973 194.655 60.2188L182.729 72.0273C181.956 72.7932 181.583 73.8752 181.72 74.9551L183.775 91.1436C184.017 93.0497 182.108 94.5051 180.334 93.7666L163.346 86.6895C162.484 86.3306 161.516 86.3306 160.654 86.6895L143.666 93.7666C141.892 94.5051 139.983 93.0497 140.225 91.1436L142.28 74.9551C142.417 73.8752 142.044 72.7932 141.271 72.0273L129.345 60.2188C127.909 58.7973 128.665 56.3483 130.652 55.9834L148.403 52.7236C149.375 52.5451 150.227 51.9632 150.747 51.123L159.874 36.3828Z" fill="#FFDD44" stroke="black"/>
<path d="M136.67 175.859C143.753 175.859 150.243 180.499 154.988 188.164C159.729 195.822 162.678 206.433 162.678 218.18C162.678 229.926 159.729 240.537 154.988 248.195C150.243 255.861 143.753 260.5 136.67 260.5C131.369 260.5 124.376 258.179 118.955 251.757C113.537 245.339 109.647 234.772 110.661 218.21C111.38 206.465 114.332 195.843 118.897 188.174C123.466 180.499 129.596 175.859 136.67 175.859Z" fill="white" stroke="black"/>
<path d="M192.842 174.5C199.921 174.5 206.411 179.211 211.158 187.001C215.9 194.782 218.85 205.564 218.85 217.5C218.85 229.467 216.816 240.248 212.539 248.018C208.275 255.764 201.799 260.5 192.842 260.5C187.344 260.5 182.993 258.837 179.548 256.105C176.095 253.368 173.525 249.536 171.636 245.169C167.852 236.425 166.834 225.629 166.834 217.5C166.834 205.564 169.784 194.782 174.525 187.001C179.272 179.211 185.763 174.5 192.842 174.5Z" fill="white" stroke="black"/>
<path d="M149.584 229.055C149.584 239.19 147.545 247.406 141.428 247.406C135.31 247.406 133.271 239.19 133.271 229.055C133.271 218.919 136.923 210.703 141.428 210.703C145.932 210.703 149.584 218.919 149.584 229.055Z" fill="black"/>
<path d="M198.312 229.352C198.312 239.487 195.594 247.703 190.156 247.703C184.719 247.703 182 239.487 182 229.352C182 219.216 185.652 211 190.156 211C194.661 211 198.312 219.216 198.312 229.352Z" fill="black"/>
<path d="M163.389 273.5C167.812 273.5 171.044 272.732 173.518 271.394C175.969 270.068 177.717 268.159 179.152 265.795C179.719 263.913 179.55 262.594 178.952 261.641C178.338 260.662 177.206 259.962 175.636 259.478C172.481 258.505 167.899 258.5 163.389 258.5C158.877 258.5 154.545 258.506 151.516 259.477C150.014 259.958 148.898 260.657 148.232 261.652C147.584 262.622 147.313 263.95 147.639 265.811C149.074 267.954 150.822 269.855 153.268 271.23C155.746 272.625 158.976 273.5 163.389 273.5Z" fill="#DA3232" stroke="black"/>
<path d="M98.8146 278.813C93.8829 273.331 89.9102 276.529 88.5403 278.813C87.3074 273.788 79.7455 271.138 77.444 278.813C75.1426 286.488 82.3757 294.802 85.6635 298C92.1021 293.889 103.746 284.295 98.8146 278.813Z" fill="#FF8282" stroke="black"/>
<path d="M204.979 156.409C209.053 152.526 212.335 154.791 213.467 156.409C214.485 152.85 220.732 150.973 222.633 156.409C224.534 161.846 218.559 167.735 215.843 170C210.524 167.088 200.905 160.292 204.979 156.409Z" fill="#FF8282" stroke="black"/>
<path d="M140.021 119.409C135.947 115.526 132.665 117.791 131.533 119.409C130.515 115.85 124.268 113.973 122.367 119.409C120.466 124.846 126.441 130.735 129.157 133C134.476 130.088 144.095 123.292 140.021 119.409Z" fill="#FF8282" stroke="black"/>
</g>
<defs>
<clipPath id="clip0_90_151">
<rect width="300" height="400" fill="white"/>
</clipPath>
</defs>
</svg>
