<svg width="300" height="400" viewBox="0 0 300 400" fill="none" xmlns="http://www.w3.org/2000/svg">
<g clip-path="url(#clip0_90_326)">
<path d="M109.997 167.478C125.198 156.715 161.324 144.219 193.802 174.267C194.557 174.965 195.4 175.592 196.374 175.921C202.865 178.111 219.674 179.06 245.862 168.249C246.718 175.501 243.98 192.559 226.18 202.775C208.38 212.991 201.648 210.815 200.507 208.45C200.507 213.122 198.023 225.649 188.595 241.306C186.563 244.68 186.384 248.982 187.446 252.775C189.262 259.257 190.945 270.351 190.238 286.489C189.303 307.865 191.848 324.842 193.603 332.341C193.901 333.615 194.008 334.927 193.852 336.227L187.411 389.621C187.302 390.525 187.489 391.44 187.943 392.23C189.177 394.373 188.31 397.114 186.068 398.157L183.48 399.362C182.577 399.782 181.592 400 180.596 400H178.51C173.797 400 170.32 395.599 171.412 391.014L178.546 348.802C178.639 348.251 178.685 347.693 178.685 347.135V333.371C178.685 329.82 176.802 326.534 173.736 324.74L173.157 324.401C172.005 323.727 170.73 323.291 169.407 323.117L158.575 321.697V334.258L156.864 351.758L154.386 363.055C153.9 365.269 155.587 367.366 157.854 367.366H158.565C159.368 367.366 160.112 367.786 160.527 368.474C161.123 369.462 160.891 370.74 159.985 371.455L157.777 373.198C156.397 374.288 154.578 374.649 152.886 374.169L141.863 371.045C140.237 370.584 139.312 368.871 139.819 367.258L141.692 361.307C142.104 360 142.242 358.622 142.098 357.259L140.176 338.988V319.284L131.015 318.082C125.47 317.355 120.406 321.317 119.778 326.874L117.927 343.245V363.109V382.579C117.927 386.309 115.851 389.729 112.541 391.45L106.695 394.491C104.557 395.604 102.088 395.906 99.744 395.343L96.7481 394.623C94.7775 394.149 93.2385 392.612 92.7632 390.642C92.2064 388.334 93.2234 385.933 95.2684 384.728L96.9133 383.758C97.7847 383.244 98.7777 382.973 99.7892 382.973C103.397 382.973 106.085 379.645 105.325 376.118L98.2442 343.245L94.5473 352.16C93.8873 353.752 93.6858 355.497 93.9654 357.197C94.7043 361.689 92.0601 366.049 87.7356 367.47L82.5122 369.186C80.6465 369.8 78.5958 369.204 77.3484 367.688C76.0322 366.087 75.9022 363.819 77.0268 362.079L78.7971 359.339C79.2088 358.702 79.7057 358.125 80.2739 357.622C82.4055 355.737 83.4262 352.894 82.9802 350.084L79.6233 328.933C79.4867 328.073 79.4632 327.198 79.5533 326.331L83.5606 287.794C83.6507 286.928 83.8537 286.077 84.1643 285.263L94.7051 257.645C95.0657 256.7 95.5674 255.816 96.1932 255.021L102.469 247.057C105.07 243.755 105.295 239.184 103.619 235.329C100.207 227.481 96.7028 215.27 98.2442 202.775C86.8341 206.558 55.8918 204.79 53.317 162.573C52.3447 146.632 53.6839 138.853 56.3121 136C60.163 138.925 68.4042 139.896 75.1388 147.438C81.4607 155.945 96.4966 171.596 107.69 168.662C108.536 168.44 109.283 167.984 109.997 167.478Z" fill="#D9C0A5"/>
<path d="M98.2442 343.245L105.325 376.118C106.085 379.645 103.397 382.973 99.7892 382.973C98.7777 382.973 97.7847 383.244 96.9133 383.758L95.2684 384.728C93.2234 385.933 92.2064 388.334 92.7632 390.642C93.2385 392.612 94.7775 394.149 96.7481 394.623L99.744 395.343C102.088 395.906 104.557 395.604 106.695 394.491L112.541 391.45C115.851 389.729 117.927 386.309 117.927 382.579V363.109V343.245L119.778 326.874C120.406 321.317 125.47 317.355 131.015 318.082L140.176 319.284M98.2442 343.245V297.367M98.2442 343.245L94.5473 352.16C93.8873 353.752 93.6858 355.497 93.9654 357.197C94.7043 361.689 92.0601 366.049 87.7356 367.47L82.5122 369.186C80.6465 369.8 78.5958 369.204 77.3484 367.688C76.0322 366.087 75.9022 363.819 77.0268 362.079L78.7971 359.339C79.2088 358.702 79.7057 358.125 80.2739 357.622C82.4055 355.737 83.4262 352.894 82.9802 350.084L79.6233 328.933C79.4867 328.073 79.4632 327.198 79.5533 326.331L83.5606 287.794C83.6507 286.928 83.8537 286.077 84.1643 285.263L94.7051 257.645C95.0657 256.7 95.5674 255.816 96.1932 255.021L102.469 247.057C105.07 243.755 105.295 239.184 103.619 235.329C100.207 227.481 96.7028 215.27 98.2442 202.775C86.8341 206.558 55.8918 204.79 53.317 162.573C52.3447 146.632 53.6839 138.853 56.3121 136C60.163 138.925 68.4042 139.896 75.1388 147.438C81.4607 155.945 96.4966 171.596 107.69 168.662C108.536 168.44 109.283 167.984 109.997 167.478C125.198 156.715 161.324 144.219 193.802 174.267C194.557 174.965 195.4 175.592 196.374 175.921C202.865 178.111 219.674 179.06 245.862 168.249C246.718 175.501 243.98 192.559 226.18 202.775C208.38 212.991 201.648 210.815 200.507 208.45C200.507 213.122 198.023 225.649 188.595 241.306C186.563 244.68 186.384 248.982 187.446 252.775C189.262 259.257 190.945 270.351 190.238 286.489C189.303 307.865 191.848 324.842 193.603 332.341C193.901 333.615 194.008 334.927 193.852 336.227L187.411 389.621C187.302 390.525 187.489 391.44 187.943 392.23C189.177 394.373 188.31 397.114 186.068 398.157L183.48 399.362C182.577 399.782 181.592 400 180.596 400H178.51C173.797 400 170.32 395.599 171.412 391.014L178.546 348.802C178.639 348.251 178.685 347.694 178.685 347.135V333.371C178.685 329.82 176.802 326.534 173.736 324.74L173.157 324.401C172.005 323.727 170.73 323.291 169.407 323.117L158.575 321.697M140.176 319.284V338.988L142.098 357.259C142.242 358.622 142.104 360 141.692 361.307L139.819 367.258C139.312 368.871 140.237 370.584 141.863 371.045L152.886 374.169C154.578 374.649 156.397 374.288 157.777 373.198L159.985 371.455C160.891 370.74 161.123 369.462 160.527 368.474C160.112 367.786 159.368 367.366 158.565 367.366H157.854C155.587 367.366 153.9 365.269 154.386 363.055L156.864 351.758L158.575 334.258V321.697M140.176 319.284L158.575 321.697" stroke="black" stroke-linecap="round" stroke-linejoin="round"/>
<path d="M155.18 221.816L158.656 217.959C160.431 215.99 159.298 212.837 156.675 212.45C156.514 212.426 156.352 212.414 156.189 212.414H151.032C150.387 212.414 149.743 212.351 149.11 212.227L143.985 211.224C143.243 211.079 142.474 211.185 141.799 211.525C139.907 212.48 139.338 214.913 140.61 216.608L143.509 220.467C144.187 221.37 145.062 222.107 146.068 222.621L147.201 223.202C149.011 224.128 151.142 224.188 153 223.363L153.122 223.309C153.905 222.961 154.606 222.453 155.18 221.816Z" fill="#050505"/>
<path d="M171.702 228.437H126.281C125.63 228.437 125.153 229.048 125.311 229.679L128.448 242.231C129.035 244.58 130.453 246.635 132.44 248.017L135.594 250.21C137.27 251.375 139.262 252 141.303 252H154.31H158.43C162.595 252 166.325 249.418 167.79 245.518L170.137 239.276L172.668 229.692C172.836 229.058 172.358 228.437 171.702 228.437Z" fill="#050505"/>
<path d="M155.18 221.816L158.656 217.959C160.431 215.99 159.298 212.837 156.675 212.45C156.514 212.426 156.352 212.414 156.189 212.414H151.032C150.387 212.414 149.743 212.351 149.11 212.227L143.985 211.224C143.243 211.079 142.474 211.185 141.799 211.525C139.907 212.48 139.338 214.913 140.61 216.608L143.509 220.467C144.187 221.37 145.062 222.107 146.068 222.621L147.201 223.202C149.011 224.128 151.142 224.188 153 223.363L153.122 223.309C153.905 222.961 154.606 222.453 155.18 221.816Z" stroke="black" stroke-linecap="round" stroke-linejoin="round"/>
<path d="M171.702 228.437H126.281C125.63 228.437 125.153 229.048 125.311 229.679L128.448 242.231C129.035 244.58 130.453 246.635 132.44 248.017L135.594 250.21C137.27 251.375 139.262 252 141.303 252H154.31H158.43C162.595 252 166.325 249.418 167.79 245.518L170.137 239.276L172.668 229.692C172.836 229.058 172.358 228.437 171.702 228.437Z" stroke="black" stroke-linecap="round" stroke-linejoin="round"/>
<path d="M121.889 188.553C127.19 188.84 131.381 194.047 131.101 200.326C130.822 206.605 126.189 211.334 120.888 211.046C115.586 210.759 111.395 205.552 111.675 199.273C111.954 192.994 116.587 188.266 121.889 188.553Z" fill="#281807" stroke="black"/>
<path d="M185.767 195.134C190.54 195.393 194.332 200.142 194.076 205.899C193.82 211.656 189.624 215.972 184.851 215.713C180.078 215.454 176.286 210.705 176.542 204.949C176.798 199.192 180.993 194.876 185.767 195.134Z" fill="#281807" stroke="black"/>
<path d="M131.536 235L129 228H170L167.464 235L162.392 228.933L159.433 235L156.052 229.4L150.134 234.533L146.33 228.933L141.68 235L137.031 228.933L131.536 235Z" fill="white" stroke="black" stroke-linecap="round" stroke-linejoin="round"/>
<ellipse cx="1.65525" cy="2.83272" rx="1.65525" ry="2.83272" transform="matrix(0.998534 0.0541212 -0.0444553 0.999011 116.039 194.111)" fill="white"/>
<ellipse cx="3.70048" cy="3.50589" rx="3.70048" ry="3.50589" transform="matrix(0.998534 0.0541212 -0.0444553 0.999011 119.522 197.889)" fill="black"/>
<ellipse cx="3.70048" cy="3.50589" rx="3.70048" ry="3.50589" transform="matrix(0.998534 0.0541212 -0.0444553 0.999011 182.848 203.556)" fill="black"/>
<ellipse cx="1.65525" cy="2.83272" rx="1.65525" ry="2.83272" transform="matrix(0.998534 0.0541212 -0.0444553 0.999011 181.077 198.833)" fill="white"/>
<path d="M99.7034 182.833C85.7312 180.95 70.0266 164.16 63.9208 156C57.7866 192.907 83.8 197.426 97.5735 195.072L99.7034 182.833Z" fill="#FFEDED"/>
<path d="M239 177.655C233.207 184.433 210.459 189.894 199.81 191.777C201.854 198.932 201.797 201.035 201.513 201.192C218.894 206.088 233.746 187.54 239 177.655Z" fill="#FFEDED"/>
<path d="M99.7034 182.833C85.7312 180.95 70.0266 164.16 63.9208 156C57.7866 192.907 83.8 197.426 97.5735 195.072L99.7034 182.833Z" stroke="black" stroke-linecap="round" stroke-linejoin="round"/>
<path d="M239 177.655C233.207 184.433 210.459 189.894 199.81 191.777C201.854 198.932 201.797 201.035 201.513 201.192C218.894 206.088 233.746 187.54 239 177.655Z" stroke="black" stroke-linecap="round" stroke-linejoin="round"/>
<path d="M170.556 154.333C167.741 138.418 159.204 104.435 147.577 95.8161C135.95 87.197 126.561 111.449 122.633 122.645C122.895 124.687 123.537 127.419 126.365 126.236C128.993 125.137 133.997 120.609 135.982 117.431C130.642 127.163 128.159 145.882 128.329 155.389L170.556 154.333Z" fill="#D51B1B"/>
<path d="M139.131 111.871C138.526 112.733 136.879 115.493 136.382 116.73M136.382 116.73C130.766 126.236 128.155 145.648 128.329 155.389L170.556 154.333C167.741 138.418 159.204 104.435 147.577 95.8161C135.95 87.197 126.561 111.449 122.633 122.645C122.895 124.687 123.537 127.419 126.365 126.236C129.193 125.053 134.774 119.899 136.382 116.73Z" stroke="black" stroke-linecap="round"/>
<path d="M172.073 150.235L172.742 151.369C173.337 152.378 174.642 152.706 175.646 152.099C176.908 151.336 178.541 152.071 178.807 153.52L179.232 155.843C179.512 157.374 178.813 158.92 177.478 159.724L173.315 162.229C171.74 163.176 169.697 162.641 168.792 161.044C167.732 159.173 165.181 158.823 163.652 160.34L163.204 160.785C161.979 162 160.084 162.224 158.613 161.327L157.479 160.636C155.61 159.497 153.2 159.803 151.671 161.374C150.075 163.013 147.533 163.266 145.649 161.973L143.932 160.794C142.278 159.659 140.053 159.842 138.603 161.232L138.032 161.78C136.57 163.182 134.229 163.055 132.931 161.503C131.742 160.08 129.646 159.836 128.159 160.948L127.546 161.405C126.049 162.523 124.004 162.55 122.482 161.471L120.977 160.404C119.742 159.529 119.133 158.011 119.42 156.523L119.866 154.217C120.151 152.741 121.804 151.982 123.107 152.73C124.128 153.315 125.431 152.988 126.055 151.988L126.848 150.719C127.912 149.015 130.131 148.453 131.875 149.446L133.481 150.36C135.465 151.489 137.934 151.317 139.744 149.922L140.582 149.277C142.559 147.755 145.293 147.693 147.332 149.124L148.327 149.823C150.133 151.091 152.606 150.798 154.069 149.142L154.145 149.057C155.85 147.127 158.866 147.149 160.538 149.103C161.916 150.713 164.274 151.054 166.056 149.902L167.283 149.108C168.912 148.055 171.088 148.567 172.073 150.235Z" fill="white" stroke="black" stroke-linecap="round"/>
<path d="M126.39 121.17L127.293 122.022C128.142 122.824 128.624 123.94 128.624 125.107C128.624 127.078 127.266 128.79 125.347 129.239L124.969 129.327C123.464 129.679 121.882 129.274 120.731 128.243L119.717 127.333C118.85 126.556 118.355 125.446 118.355 124.281C118.355 122.916 119.034 121.641 120.166 120.879L120.46 120.681C122.308 119.438 124.771 119.641 126.39 121.17Z" fill="white" stroke="black" stroke-linecap="round"/>
</g>
<defs>
<clipPath id="clip0_90_326">
<rect width="300" height="400" fill="white"/>
</clipPath>
</defs>
</svg>
