<svg width="300" height="400" viewBox="0 0 300 400" fill="none" xmlns="http://www.w3.org/2000/svg">
<ellipse cx="150" cy="237.5" rx="112" ry="109.5" fill="#F4F4F4"/>
<circle cx="109.843" cy="229.237" r="8.5" fill="black"/>
<circle cx="182.5" cy="229.413" r="8.5" fill="black"/>
<path d="M101.843 286.737C103.343 291.737 170.843 298.237 180.343 286.737C170.343 281.237 120.843 276.737 101.843 286.737Z" fill="#B52020" stroke="#D34242" stroke-linecap="round"/>
<ellipse cx="90" cy="240.913" rx="9" ry="3" fill="#EAA7A7"/>
<ellipse cx="203" cy="240.913" rx="9" ry="3" fill="#EAA7A7"/>
<mask id="path-7-inside-1_90_105" fill="white">
<path d="M150 128C211.856 128 262 177.025 262 237.5C262 261.372 254.185 283.458 240.922 301.45L234.116 293.321L233.947 293.119L234.019 292.865C243.499 258.937 242.107 231.686 233.854 212.573C225.607 193.476 210.507 182.481 192.459 180.998C185.327 180.412 179.32 183.103 174.264 187.807C169.196 192.52 165.096 199.246 161.82 206.677C155.269 221.538 152.077 239.082 150.997 248.557L150.983 248.673L150.92 248.771L145.42 257.271L144.782 258.257L144.514 257.114L142.514 248.614L142.501 248.562L142.5 248.508C142.101 224.379 136.451 206.931 129.464 195.804C125.969 190.239 122.148 186.265 118.492 183.82C114.83 181.371 111.377 180.482 108.59 180.992L108.554 180.999L108.516 181C92.9145 181.497 81.7825 186.243 74.0215 193.582C66.2541 200.927 61.8157 210.913 59.6914 221.97C55.4396 244.099 60.4867 270.379 66.4727 287.838L66.5283 288L66.4727 288.162L61.0234 304.014C46.5816 285.575 38 262.518 38 237.5C38 177.025 88.1441 128 150 128Z"/>
</mask>
<path d="M150 128C211.856 128 262 177.025 262 237.5C262 261.372 254.185 283.458 240.922 301.45L234.116 293.321L233.947 293.119L234.019 292.865C243.499 258.937 242.107 231.686 233.854 212.573C225.607 193.476 210.507 182.481 192.459 180.998C185.327 180.412 179.32 183.103 174.264 187.807C169.196 192.52 165.096 199.246 161.82 206.677C155.269 221.538 152.077 239.082 150.997 248.557L150.983 248.673L150.92 248.771L145.42 257.271L144.782 258.257L144.514 257.114L142.514 248.614L142.501 248.562L142.5 248.508C142.101 224.379 136.451 206.931 129.464 195.804C125.969 190.239 122.148 186.265 118.492 183.82C114.83 181.371 111.377 180.482 108.59 180.992L108.554 180.999L108.516 181C92.9145 181.497 81.7825 186.243 74.0215 193.582C66.2541 200.927 61.8157 210.913 59.6914 221.97C55.4396 244.099 60.4867 270.379 66.4727 287.838L66.5283 288L66.4727 288.162L61.0234 304.014C46.5816 285.575 38 262.518 38 237.5C38 177.025 88.1441 128 150 128Z" fill="#7183B2"/>
<path d="M240.922 301.45L240.155 302.092L240.972 303.068L241.727 302.044L240.922 301.45ZM234.116 293.321L233.349 293.963L233.349 293.963L234.116 293.321ZM233.947 293.119L232.984 292.849L232.842 293.356L233.18 293.76L233.947 293.119ZM234.019 292.865L234.981 293.136L234.982 293.134L234.019 292.865ZM233.854 212.573L234.772 212.177L233.854 212.573ZM192.459 180.998L192.541 180.001L192.459 180.998ZM174.264 187.807L173.583 187.074V187.074L174.264 187.807ZM161.82 206.677L160.905 206.273L161.82 206.677ZM150.997 248.557L151.99 248.673L151.991 248.67L150.997 248.557ZM150.983 248.673L151.824 249.214L151.95 249.019L151.977 248.79L150.983 248.673ZM150.92 248.771L151.759 249.315L151.761 249.313L150.92 248.771ZM145.42 257.271L146.259 257.815L146.259 257.815L145.42 257.271ZM144.782 258.257L143.809 258.486L144.346 260.771L145.622 258.8L144.782 258.257ZM144.514 257.114L145.487 256.885L145.487 256.885L144.514 257.114ZM142.514 248.614L143.487 248.385L143.485 248.376L142.514 248.614ZM142.501 248.562L141.501 248.58L141.503 248.692L141.53 248.801L142.501 248.562ZM142.5 248.508L141.5 248.524L141.5 248.526L142.5 248.508ZM129.464 195.804L130.311 195.272L129.464 195.804ZM118.492 183.82L119.048 182.989L119.048 182.989L118.492 183.82ZM108.59 180.992L108.41 180.009L108.404 180.01L108.59 180.992ZM108.554 180.999L108.579 181.999L108.66 181.997L108.74 181.982L108.554 180.999ZM108.516 181L108.49 180L108.484 180.001L108.516 181ZM74.0215 193.582L73.3344 192.855V192.855L74.0215 193.582ZM59.6914 221.97L58.7094 221.781L59.6914 221.97ZM66.4727 287.838L65.5267 288.162L65.5269 288.163L66.4727 287.838ZM66.5283 288L67.4741 288.325L67.5856 288L67.4741 287.675L66.5283 288ZM66.4727 288.162L67.4183 288.487L67.4185 288.487L66.4727 288.162ZM61.0234 304.014L60.2362 304.63L61.3709 306.079L61.9691 304.339L61.0234 304.014ZM150 128V129C211.325 129 261 177.598 261 237.5H262H263C263 176.451 212.387 127 150 127V128ZM262 237.5H261C261 261.149 253.258 283.029 240.117 300.857L240.922 301.45L241.727 302.044C255.111 283.887 263 261.594 263 237.5H262ZM240.922 301.45L241.689 300.808L234.883 292.679L234.116 293.321L233.349 293.963L240.155 302.092L240.922 301.45ZM234.116 293.321L234.884 292.68L234.715 292.478L233.947 293.119L233.18 293.76L233.349 293.963L234.116 293.321ZM233.947 293.119L234.91 293.389L234.981 293.136L234.019 292.865L233.056 292.595L232.984 292.849L233.947 293.119ZM234.019 292.865L234.982 293.134C244.502 259.063 243.143 231.564 234.772 212.177L233.854 212.573L232.935 212.97C241.071 231.809 242.496 258.81 233.055 292.596L234.019 292.865ZM233.854 212.573L234.772 212.177C226.393 192.774 210.993 181.518 192.541 180.001L192.459 180.998L192.377 181.995C210.022 183.445 224.821 194.178 232.935 212.97L233.854 212.573ZM192.459 180.998L192.541 180.001C185.073 179.388 178.8 182.222 173.583 187.074L174.264 187.807L174.945 188.539C179.841 183.985 185.581 181.436 192.377 181.995L192.459 180.998ZM174.264 187.807L173.583 187.074C168.376 191.917 164.209 198.78 160.905 206.273L161.82 206.677L162.735 207.08C165.983 199.712 170.017 193.123 174.945 188.539L174.264 187.807ZM161.82 206.677L160.905 206.273C154.298 221.262 151.09 238.918 150.004 248.443L150.997 248.557L151.991 248.67C153.065 239.247 156.241 221.813 162.735 207.08L161.82 206.677ZM150.997 248.557L150.004 248.44L149.99 248.556L150.983 248.673L151.977 248.79L151.99 248.673L150.997 248.557ZM150.983 248.673L150.142 248.132L150.079 248.23L150.92 248.771L151.761 249.313L151.824 249.214L150.983 248.673ZM150.92 248.771L150.08 248.228L144.58 256.728L145.42 257.271L146.259 257.815L151.759 249.315L150.92 248.771ZM145.42 257.271L144.58 256.728L143.943 257.714L144.782 258.257L145.622 258.8L146.259 257.815L145.42 257.271ZM144.782 258.257L145.756 258.028L145.487 256.885L144.514 257.114L143.54 257.343L143.809 258.486L144.782 258.257ZM144.514 257.114L145.487 256.885L143.487 248.385L142.514 248.614L141.54 248.843L143.54 257.343L144.514 257.114ZM142.514 248.614L143.485 248.376L143.472 248.324L142.501 248.562L141.53 248.801L141.542 248.852L142.514 248.614ZM142.501 248.562L143.501 248.545L143.5 248.49L142.5 248.508L141.5 248.526L141.501 248.58L142.501 248.562ZM142.5 248.508L143.5 248.491C143.099 224.221 137.415 206.586 130.311 195.272L129.464 195.804L128.617 196.335C135.487 207.277 141.104 224.537 141.5 248.524L142.5 248.508ZM129.464 195.804L130.311 195.272C126.759 189.616 122.846 185.529 119.048 182.989L118.492 183.82L117.936 184.652C121.45 187.001 125.179 190.861 128.617 196.335L129.464 195.804ZM118.492 183.82L119.048 182.989C115.257 180.454 111.54 179.435 108.41 180.009L108.59 180.992L108.77 181.976C111.214 181.528 114.403 182.289 117.936 184.652L118.492 183.82ZM108.59 180.992L108.404 180.01L108.368 180.016L108.554 180.999L108.74 181.982L108.776 181.975L108.59 180.992ZM108.554 180.999L108.528 179.999L108.49 180L108.516 181L108.541 182L108.579 181.999L108.554 180.999ZM108.516 181L108.484 180.001C92.6852 180.504 81.3046 185.319 73.3344 192.855L74.0215 193.582L74.7085 194.309C82.2604 187.168 93.1437 182.49 108.547 181.999L108.516 181ZM74.0215 193.582L73.3344 192.855C65.3707 200.386 60.86 210.588 58.7094 221.781L59.6914 221.97L60.6734 222.158C62.7715 211.239 67.1375 201.468 74.7085 194.309L74.0215 193.582ZM59.6914 221.97L58.7094 221.781C54.4114 244.151 59.5127 270.621 65.5267 288.162L66.4727 287.838L67.4186 287.514C61.4608 270.137 56.4679 244.047 60.6734 222.158L59.6914 221.97ZM66.4727 287.838L65.5269 288.163L65.5825 288.325L66.5283 288L67.4741 287.675L67.4185 287.513L66.4727 287.838ZM66.5283 288L65.5825 287.675L65.5269 287.837L66.4727 288.162L67.4185 288.487L67.4741 288.325L66.5283 288ZM66.4727 288.162L65.527 287.837L60.0778 303.689L61.0234 304.014L61.9691 304.339L67.4183 288.487L66.4727 288.162ZM61.0234 304.014L61.8107 303.397C47.5006 285.127 39 262.284 39 237.5H38H37C37 262.751 45.6626 286.024 60.2362 304.63L61.0234 304.014ZM38 237.5H39C39 177.598 88.675 129 150 129V128V127C87.6132 127 37 176.451 37 237.5H38Z" fill="black" mask="url(#path-7-inside-1_90_105)"/>
<path d="M240.343 321.997C227.626 319.74 211.332 320.288 201.843 321.237C199.509 333.237 193.943 358.337 190.343 362.737C186.743 367.137 191.176 375.237 193.843 378.737C202.343 380.404 223.543 383.137 240.343 380.737C261.343 377.737 272.843 365.737 276.343 357.237C279.143 350.437 271.843 327.737 267.843 317.237L253.343 305.737L240.343 321.997Z" fill="#B52020"/>
<path d="M25.3426 355.737C19.7426 337.337 33.0093 318.737 40.3426 311.737L69.8426 302.737C74.3426 320.404 82.8426 357.837 80.8426 366.237C78.8426 374.637 64.0093 378.071 56.8426 378.737C48.6759 378.737 30.9426 374.137 25.3426 355.737Z" fill="#B52020"/>
<path d="M256.843 329.237C253.904 325.564 247.726 323.307 240.343 321.997M240.343 321.997C227.626 319.74 211.332 320.288 201.843 321.237C199.509 333.237 193.943 358.337 190.343 362.737C186.743 367.137 191.176 375.237 193.843 378.737C202.343 380.404 223.543 383.137 240.343 380.737C261.343 377.737 272.843 365.737 276.343 357.237C279.143 350.437 271.843 327.737 267.843 317.237L253.343 305.737L240.343 321.997ZM40.3426 311.737C33.0093 318.737 19.7426 337.337 25.3426 355.737C30.9426 374.137 48.6759 378.737 56.8426 378.737C64.0093 378.071 78.8426 374.637 80.8426 366.237C82.8426 357.837 74.3426 320.404 69.8426 302.737L40.3426 311.737Z" stroke="black" stroke-linecap="round"/>
<path d="M250.197 290.497L259.881 292.776C261.163 293.078 262.336 293.731 263.268 294.662C264.596 295.991 265.343 297.793 265.343 299.672V300.122C265.343 302.425 266.314 304.62 268.018 306.169L268.846 306.923C270.118 308.078 270.843 309.717 270.843 311.435C270.843 314.253 268.913 316.703 266.175 317.364L256.343 319.737L244.398 322.126C242.378 322.53 240.301 322.564 238.269 322.225L224.73 319.969C223.807 319.815 222.872 319.737 221.936 319.737H208.843L189.436 317.312C189.042 317.262 188.643 317.259 188.248 317.301C182.761 317.884 180.298 310.618 185.009 307.745L185.843 307.237L202.004 300.249C203.555 299.578 205.196 299.143 206.875 298.956L224.426 297.006C226.029 296.828 227.598 296.423 229.087 295.802L239.765 291.353C243.066 289.978 246.716 289.678 250.197 290.497Z" fill="#F5F5F5" stroke="black" stroke-linecap="round"/>
<path d="M68.9207 289.72L81.3425 294.237L98.6973 302.713C101.234 303.952 102.843 306.528 102.843 309.351C102.843 313.43 99.5353 316.737 95.4557 316.737H83.8425L46.1255 315.287C45.2739 315.254 44.4304 315.109 43.617 314.854L40.5608 313.899C38.3487 313.208 36.8425 311.159 36.8425 308.842C36.8425 307.796 37.1522 306.773 37.7325 305.903L39.6085 303.088C40.3986 301.903 40.6856 300.453 40.4062 299.056C40.0541 297.295 40.6052 295.475 41.875 294.205L43.011 293.069C44.2041 291.876 45.7299 291.071 47.3883 290.76L52.8425 289.737L60.5367 288.776C63.3667 288.422 66.2403 288.746 68.9207 289.72Z" fill="#F5F5F5" stroke="black" stroke-linecap="round"/>
<path d="M96.3426 283.237C100.009 278.904 114.443 270.737 142.843 272.737C171.243 274.737 183.009 279.904 185.343 282.237V317.737L181.343 367.237C167.009 374.571 130.743 384.837 100.343 367.237C99.5093 367.071 97.7426 365.937 97.3426 362.737C97.0403 360.319 96.7189 330.514 96.508 305.237C86.6403 302.437 81.2862 308.071 79.8426 311.237L77.3426 321.237H68.3426C67.3426 322.737 65.9426 322.237 68.3426 308.237C70.7426 294.237 88.0639 293.404 96.4245 294.737C96.3928 290.549 96.3652 286.654 96.3426 283.237Z" fill="#D34242"/>
<path d="M96.4245 294.737C96.3928 290.549 96.3652 286.654 96.3426 283.237C100.009 278.904 114.443 270.737 142.843 272.737C171.243 274.737 183.009 279.904 185.343 282.237V317.737L181.343 367.237C167.009 374.571 130.743 384.837 100.343 367.237C99.5093 367.071 97.7426 365.937 97.3426 362.737C97.0403 360.319 96.7189 330.514 96.508 305.237M96.4245 294.737C88.0639 293.404 70.7426 294.237 68.3426 308.237C65.9426 322.237 67.3426 322.737 68.3426 321.237H77.3426L79.8426 311.237C81.2862 308.071 86.6403 302.437 96.508 305.237M96.4245 294.737C96.4498 298.082 96.4778 301.613 96.508 305.237" stroke="black" stroke-linecap="round"/>
<path d="M67.3426 310.737C43.7426 331.537 53.5092 355.737 61.3426 365.237C70.1426 370.837 78.6759 369.571 81.8426 368.237C88.8426 369.237 106.843 346.737 101.343 324.737C96.9426 307.137 76.8426 308.071 67.3426 310.737Z" fill="white" stroke="black" stroke-linecap="round"/>
<path d="M169.843 333.237C172.603 320.47 186.724 318.94 196.222 320.044C198.881 320.353 201.193 322.001 202.389 324.396C211.664 342.969 203.86 360.611 196.268 370.343C194.028 373.215 190.147 374.12 186.755 372.794C163.696 363.775 166.12 350.455 169.843 333.237Z" fill="white" stroke="black" stroke-linecap="round"/>
<path d="M147.5 238.5C153.395 238.5 158.711 239.35 162.535 240.708C164.449 241.388 165.964 242.186 166.989 243.047C168.017 243.91 168.5 244.788 168.5 245.637C168.5 246.528 167.977 247.782 166.91 249.204C165.857 250.608 164.321 252.112 162.41 253.494C158.586 256.26 153.311 258.5 147.5 258.5C141.689 258.5 136.414 256.26 132.59 253.494C130.679 252.112 129.143 250.608 128.09 249.204C127.023 247.782 126.5 246.528 126.5 245.637C126.5 244.788 126.983 243.91 128.011 243.047C129.036 242.186 130.551 241.388 132.465 240.708C136.289 239.35 141.605 238.5 147.5 238.5Z" fill="#F2AE6E" stroke="#3A2626"/>
</svg>
