<svg width="300" height="400" viewBox="0 0 300 400" fill="none" xmlns="http://www.w3.org/2000/svg">
<path d="M49 234C43.9999 264.5 55.8333 287.833 67.5 295.5L159 329L239.5 301C246.667 291.167 258.751 267.679 257 242C255.5 220 243.667 193.5 235.5 184.5C235.833 167.167 234.7 131.9 225.5 129.5C216.3 127.1 191 151.667 183 165C160.6 159.4 142.833 162.667 134.5 165C121.833 147.5 95.1 118.4 89.5 128C83.9 137.6 80 167.167 81 182C72.6666 184.333 54.5459 200.17 49 234Z" stroke="black" stroke-linecap="round"/>
<path d="M246.343 328.101C233.626 325.844 217.332 326.393 207.843 327.342C205.509 339.341 199.943 364.441 196.343 368.841C192.743 373.241 197.176 381.341 199.843 384.841C208.343 386.508 229.543 389.241 246.343 386.841C267.343 383.841 278.843 371.841 282.343 363.341C285.143 356.541 277.843 333.841 273.843 323.341L259.343 311.841L246.343 328.101Z" fill="#B52020"/>
<path d="M31.3426 361.841C25.7426 343.441 39.0093 324.841 46.3426 317.841L75.8426 308.841C80.3426 326.508 88.8426 363.941 86.8426 372.341C84.8426 380.741 70.0093 384.175 62.8426 384.841C54.6759 384.841 36.9426 380.241 31.3426 361.841Z" fill="#B52020"/>
<path d="M262.843 335.342C259.904 331.668 253.726 329.411 246.343 328.101M246.343 328.101C233.626 325.844 217.332 326.393 207.843 327.342C205.509 339.341 199.943 364.441 196.343 368.841C192.743 373.241 197.176 381.341 199.843 384.841C208.343 386.508 229.543 389.241 246.343 386.841C267.343 383.841 278.843 371.841 282.343 363.341C285.143 356.541 277.843 333.841 273.843 323.341L259.343 311.841L246.343 328.101ZM46.3426 317.841C39.0093 324.841 25.7426 343.441 31.3426 361.841C36.9426 380.241 54.6759 384.841 62.8426 384.841C70.0093 384.175 84.8426 380.741 86.8426 372.341C88.8426 363.941 80.3426 326.508 75.8426 308.841L46.3426 317.841Z" stroke="black" stroke-linecap="round"/>
<circle cx="115.843" cy="235.341" r="8.5" fill="black"/>
<circle cx="188.5" cy="235.517" r="8.5" fill="black"/>
<path d="M145.167 246.774C145.767 248.151 146.886 249.385 147.937 250.288C148.819 251.046 149.923 251.471 151.059 251.723L151.593 251.842C153.044 252.164 154.601 252.001 155.79 251.109C157.437 249.874 158.307 248.603 158.712 247.497C159.324 245.83 158.153 244.182 156.611 243.301C152.952 241.212 149.69 241.446 147.41 242.314C145.578 243.012 144.383 244.977 145.167 246.774Z" fill="black"/>
<path d="M151.593 251.842L151.059 251.723C149.923 251.471 148.819 251.046 147.937 250.288C146.886 249.385 145.767 248.151 145.167 246.774C144.383 244.977 145.578 243.012 147.41 242.314C149.69 241.446 152.952 241.212 156.611 243.301C158.153 244.182 159.324 245.83 158.712 247.497C158.307 248.603 157.437 249.874 155.79 251.109C154.601 252.001 153.044 252.164 151.593 251.842ZM151.593 251.842C150.176 256.342 145.043 263.142 135.843 254.342M151.593 251.842C154.009 256.508 160.243 263.842 165.843 255.842" stroke="black" stroke-width="3" stroke-linecap="round"/>
<path d="M256.197 296.601L265.881 298.88C267.163 299.182 268.336 299.835 269.268 300.767C270.596 302.095 271.343 303.897 271.343 305.776V306.226C271.343 308.529 272.314 310.724 274.017 312.273L274.846 313.027C276.118 314.183 276.843 315.821 276.843 317.54C276.843 320.357 274.913 322.807 272.175 323.468L262.343 325.841L250.398 328.23C248.378 328.634 246.301 328.668 244.269 328.329L230.73 326.073C229.807 325.919 228.872 325.841 227.936 325.841H214.843L195.436 323.416C195.042 323.366 194.643 323.363 194.248 323.405C188.761 323.988 186.298 316.722 191.009 313.85L191.843 313.341L208.004 306.353C209.554 305.682 211.196 305.247 212.874 305.06L230.426 303.11C232.029 302.932 233.598 302.527 235.087 301.906L245.765 297.457C249.066 296.082 252.716 295.782 256.197 296.601Z" fill="#F5F5F5" stroke="black" stroke-linecap="round"/>
<path d="M74.9207 295.824L87.3425 300.341L104.697 308.817C107.234 310.056 108.843 312.632 108.843 315.455C108.843 319.534 105.535 322.841 101.456 322.841H89.8425L52.1255 321.391C51.2739 321.358 50.4304 321.213 49.617 320.959L46.5608 320.003C44.3487 319.312 42.8425 317.263 42.8425 314.946C42.8425 313.9 43.1522 312.877 43.7325 312.007L45.6085 309.193C46.3986 308.007 46.6856 306.557 46.4062 305.16C46.0541 303.399 46.6052 301.579 47.875 300.309L49.011 299.173C50.2041 297.98 51.7299 297.175 53.3883 296.864L58.8425 295.841L66.5367 294.88C69.3667 294.526 72.2403 294.85 74.9207 295.824Z" fill="#F5F5F5" stroke="black" stroke-linecap="round"/>
<path d="M102.343 289.342C106.009 285.008 120.443 276.842 148.843 278.842C177.243 280.842 189.009 286.008 191.343 288.342V323.842L187.343 373.342C173.009 380.675 136.743 390.942 106.343 373.342C105.509 373.175 103.743 372.042 103.343 368.842C103.04 366.423 102.719 336.618 102.508 311.342C92.6403 308.542 87.2862 314.175 85.8426 317.342L83.3426 327.342H74.3426C73.3426 328.842 71.9426 328.342 74.3426 314.342C76.7426 300.342 94.0639 299.508 102.424 300.842C102.393 296.653 102.365 292.758 102.343 289.342Z" fill="#D34242"/>
<path d="M102.424 300.842C102.393 296.653 102.365 292.758 102.343 289.342C106.009 285.008 120.443 276.842 148.843 278.842C177.243 280.842 189.009 286.008 191.343 288.342V323.842L187.343 373.342C173.009 380.675 136.743 390.942 106.343 373.342C105.509 373.175 103.743 372.042 103.343 368.842C103.04 366.423 102.719 336.618 102.508 311.342M102.424 300.842C94.0639 299.508 76.7426 300.342 74.3426 314.342C71.9426 328.342 73.3426 328.842 74.3426 327.342H83.3426L85.8426 317.342C87.2862 314.175 92.6403 308.542 102.508 311.342M102.424 300.842C102.45 304.186 102.478 307.717 102.508 311.342" stroke="black" stroke-linecap="round"/>
<path d="M73.3426 316.841C49.7426 337.641 59.5092 361.841 67.3426 371.341C76.1426 376.941 84.6759 375.675 87.8426 374.341C94.8426 375.341 112.843 352.841 107.343 330.841C102.943 313.241 82.8426 314.175 73.3426 316.841Z" fill="white" stroke="black" stroke-linecap="round"/>
<path d="M175.843 339.342C178.603 326.575 192.724 325.044 202.222 326.148C204.881 326.458 207.193 328.105 208.389 330.5C217.664 349.073 209.86 366.715 202.268 376.447C200.027 379.319 196.147 380.224 192.755 378.898C169.696 369.879 172.12 356.559 175.843 339.342Z" fill="white" stroke="black" stroke-linecap="round"/>
<path d="M107.843 292.842C109.343 297.842 176.843 304.342 186.343 292.842C176.343 287.342 126.843 282.842 107.843 292.842Z" fill="#B52020" stroke="#D34242" stroke-linecap="round"/>
<ellipse cx="96" cy="247.017" rx="9" ry="3" fill="#EAA7A7"/>
<ellipse cx="209" cy="247.017" rx="9" ry="3" fill="#EAA7A7"/>
</svg>
