<svg width="300" height="400" viewBox="0 0 300 400" fill="none" xmlns="http://www.w3.org/2000/svg">
<path d="M134 333.972C142.4 288.346 167.875 190.917 202.57 166.207C237.265 141.496 265.279 211.025 277 243.124C276.219 248.979 274.304 256.812 265.865 253.42C258.024 250.269 243.092 237.288 237.167 228.177C253.102 256.077 260.511 309.745 260.004 337L134 333.972Z" fill="#DA3232"/>
<path d="M227.77 212.236C229.577 214.706 234.492 222.62 235.975 226.166M235.975 226.166C252.733 253.42 260.524 309.074 260.004 337L134 333.972C142.4 288.346 167.875 190.917 202.57 166.207C237.265 141.496 265.279 211.025 277 243.124C276.219 248.979 274.304 256.812 265.865 253.42C257.425 250.029 240.772 235.251 235.975 226.166Z" stroke="black" stroke-linecap="round"/>
<path d="M130.119 321.955L127.551 326.151C125.743 329.104 121.906 330.07 118.914 328.326C115.115 326.112 110.271 328.318 109.452 332.636L108.045 340.05C107.332 343.804 109.068 347.6 112.374 349.518L126.595 357.768C130.878 360.252 136.361 358.813 138.868 354.547L139.727 353.084C142.668 348.08 149.509 347.131 153.706 351.146L157.105 354.397C160.015 357.18 164.417 357.694 167.887 355.655L176.343 350.686C179.863 348.617 184.336 349.179 187.238 352.054L193.073 357.835C196.103 360.836 200.822 361.301 204.376 358.948L215.594 351.522C219.052 349.233 223.627 349.605 226.674 352.422L231.772 357.136C235.505 360.589 241.353 360.268 244.682 356.428L246.629 354.182C249.678 350.665 254.908 350.056 258.688 352.778L264.037 356.631C267.114 358.847 271.247 358.898 274.375 356.76L282.324 351.328C285.302 349.292 286.776 345.674 286.067 342.135L284.564 334.629C283.684 330.233 278.784 327.96 274.862 330.129C271.818 331.813 267.988 330.853 266.096 327.932L262.675 322.651C260.109 318.691 254.922 317.382 250.788 319.651L239.423 325.89C236.339 327.582 232.551 327.322 229.726 325.224L218.261 316.71C215.19 314.43 211.015 314.338 207.85 316.481L197.015 323.815C193.321 326.316 188.351 325.731 185.334 322.441L179.887 316.499C176.28 312.565 170.064 312.613 166.522 316.602L161.642 322.1C158.73 325.381 153.875 326.082 150.151 323.759L142.555 319.022C138.312 316.376 132.728 317.693 130.119 321.955Z" fill="white" stroke="black" stroke-linecap="round"/>
<path d="M268.815 237.171L262.723 243.1C260.982 244.794 260 247.12 260 249.55V253.788C260 257.945 262.848 261.562 266.89 262.537L272.42 263.871C275.345 264.576 278.43 263.773 280.64 261.73L286.11 256.672C287.952 254.969 289 252.573 289 250.064V247.024C289 244.073 287.553 241.309 285.128 239.628L280.221 236.225C276.682 233.771 271.901 234.168 268.815 237.171Z" fill="white" stroke="black" stroke-linecap="round"/>
<path d="M179.815 250.898C185.098 250.898 189.983 254.714 193.576 261.106C197.159 267.483 199.391 276.327 199.391 286.122C199.391 295.917 197.159 304.76 193.576 311.136C189.983 317.529 185.098 321.344 179.815 321.344C175.852 321.344 170.594 319.432 166.506 314.098C162.418 308.764 159.471 299.963 160.239 286.149C160.783 276.354 163.018 267.5 166.47 261.113C169.93 254.711 174.542 250.898 179.815 250.898Z" fill="white" stroke="black"/>
<path d="M222.358 249.764C227.636 249.764 232.521 253.638 236.116 260.135C239.7 266.615 241.933 275.601 241.933 285.554C241.933 295.536 240.394 304.521 237.161 310.992C233.936 317.444 229.064 321.345 222.358 321.345C214.158 321.345 209.273 315.898 206.415 308.621C203.553 301.335 202.782 292.335 202.782 285.554C202.782 275.601 205.014 266.615 208.599 260.135C212.194 253.638 217.079 249.764 222.358 249.764Z" fill="white" stroke="black"/>
<path d="M181.381 296.026C181.381 304.481 179.837 311.336 175.204 311.336C170.571 311.336 169.026 304.481 169.026 296.026C169.026 287.57 171.792 280.716 175.204 280.716C178.615 280.716 181.381 287.57 181.381 296.026Z" fill="black"/>
<path d="M221.372 296.026C221.372 304.481 219.313 311.336 215.195 311.336C211.077 311.336 209.018 304.481 209.018 296.026C209.018 287.57 211.783 280.716 215.195 280.716C218.606 280.716 221.372 287.57 221.372 296.026Z" fill="black"/>
<path d="M237.247 324.264L240.187 314.587" stroke="#F3B6B6" stroke-width="3" stroke-linecap="round"/>
<path d="M243.128 324.264L246.068 314.587" stroke="#F3B6B6" stroke-width="3" stroke-linecap="round"/>
<path d="M150.207 324.264L153.148 314.587" stroke="#F3B6B6" stroke-width="3" stroke-linecap="round"/>
<path d="M156.088 324.264L159.029 314.587" stroke="#F3B6B6" stroke-width="3" stroke-linecap="round"/>
<path d="M83 344.882C79.7104 328.031 69.7344 292.049 56.1475 282.923C42.5607 273.797 31.5902 299.475 27 311.33C27.306 313.492 28.0557 316.385 31.3607 315.132C34.4313 313.969 40.2787 309.175 42.599 305.81C36.3585 316.114 33.4571 335.934 33.6557 346L83 344.882Z" fill="#248B35"/>
<path d="M46.2787 299.922C45.5714 300.835 43.6464 303.757 43.0656 305.067M43.0656 305.067C36.5031 315.132 33.4522 335.687 33.6557 346L83 344.882C79.7104 328.031 69.7344 292.049 56.1475 282.923C42.5607 273.797 31.5902 299.475 27 311.33C27.306 313.492 28.0557 316.385 31.3607 315.132C34.6656 313.88 41.187 308.422 43.0656 305.067Z" stroke="black" stroke-linecap="round"/>
<path d="M84.771 340.541L85.5098 341.675C86.2478 342.808 87.7336 343.182 88.9188 342.533C90.4473 341.695 92.3506 342.581 92.6958 344.29L93.0911 346.247C93.4428 347.989 92.6196 349.755 91.0603 350.606L86.0761 353.323C84.2742 354.305 82.0177 353.713 80.9289 351.971C79.6506 349.927 76.8379 349.53 75.046 351.141L74.4056 351.716C72.9485 353.026 70.821 353.269 69.1047 352.321L67.6426 351.513C65.461 350.309 62.7532 350.642 60.9304 352.338C59.0265 354.111 56.1701 354.387 53.9598 353.012L51.8453 351.696C49.8987 350.485 47.3909 350.684 45.6617 352.187L44.9502 352.805C43.2156 354.313 40.596 354.167 39.0366 352.477C37.6104 350.931 35.269 350.659 33.5283 351.837L32.7352 352.374C30.9586 353.576 28.6355 353.604 26.8292 352.444L25.1355 351.356C23.6666 350.412 22.935 348.658 23.2986 346.952L23.7091 345.025C24.0795 343.286 26.0042 342.379 27.5823 343.199C28.7872 343.826 30.2692 343.457 31.0394 342.34L31.9249 341.055C33.198 339.209 35.6455 338.596 37.6403 339.625L39.6994 340.687C42.0384 341.894 44.8523 341.707 47.0092 340.202L47.9714 339.53C50.3243 337.888 53.4346 337.823 55.8571 339.364L57.0952 340.151C59.2138 341.499 61.9859 341.178 63.7381 339.382L63.8443 339.273C65.8906 337.176 69.2727 337.204 71.2865 339.336C72.9368 341.083 75.5739 341.461 77.6459 340.246L79.335 339.256C81.1982 338.165 83.5916 338.73 84.771 340.541Z" fill="#D51B1B" stroke="black" stroke-linecap="round"/>
<path d="M31.2401 309.64L32.4851 310.704C33.4465 311.527 34 312.728 34 313.993C34 316.038 32.5695 317.803 30.5696 318.227L29.5476 318.444C27.8877 318.796 26.1578 318.378 24.8409 317.308L23.513 316.229C22.5558 315.452 22 314.284 22 313.05C22 311.622 22.7445 310.296 23.9645 309.553L24.686 309.113C26.7546 307.853 29.3991 308.065 31.2401 309.64Z" fill="#FFE100" stroke="black" stroke-linecap="round"/>
<path d="M39.6432 329.103C42.0274 331.522 48.2264 334.909 53.9485 329.103" stroke="black" stroke-width="2" stroke-linecap="round"/>
<path d="M60.6241 329.103C63.0084 331.841 69.2073 335.675 74.9294 329.103" stroke="black" stroke-width="2" stroke-linecap="round"/>
<path d="M98.33 322.857C89.2427 314.074 79.7274 327.644 76.1057 335.527C82.2031 337.762 95.3448 339.091 98.2969 332.665C101.249 326.24 99.4794 323.961 98.33 322.857Z" fill="#DEEEFF" stroke="black" stroke-linecap="round"/>
</svg>
